Gidole-Regular.ufo
<glyph name="exclam" format="1">
  <advance width="260"/>
  <unicode hex="0021"/>
  <outline>
    <contour>
      <point x="130" y="96" type="curve" smooth="yes"/>
      <point x="160" y="96"/>
      <point x="181" y="75"/>
      <point x="181" y="45" type="curve" smooth="yes"/>
      <point x="181" y="15"/>
      <point x="160" y="-6"/>
      <point x="130" y="-6" type="curve" smooth="yes"/>
      <point x="100" y="-6"/>
      <point x="79" y="15"/>
      <point x="79" y="45" type="curve" smooth="yes"/>
      <point x="79" y="75"/>
      <point x="100" y="96"/>
    </contour>
    <contour>
      <point x="93" y="666" type="line"/>
      <point x="167" y="666" type="line"/>
      <point x="167" y="472" type="line" smooth="yes"/>
      <point x="167" y="292"/>
      <point x="157" y="169" type="line"/>
      <point x="103" y="169" type="line"/>
      <point x="93" y="292"/>
      <point x="93" y="472" type="curve" smooth="yes"/>
    </contour>
  </outline>
</glyph>
<glyph name="dollar" format="1">
  <advance width="531"/>
  <unicode hex="0024"/>
  <outline>
    <contour>
      <point x="234" y="736" type="line"/>
      <point x="288" y="736" type="line"/>
      <point x="288" y="671" type="line"/>
      <point x="345" y="667"/>
      <point x="403" y="650"/>
      <point x="453" y="619" type="curve"/>
      <point x="413" y="561" type="line"/>
      <point x="376" y="583"/>
      <point x="333" y="596"/>
      <point x="288" y="601" type="curve"/>
      <point x="288" y="379" type="line"/>
      <point x="348" y="363"/>
      <point x="390" y="343"/>
      <point x="423" y="312" type="curve" smooth="yes"/>
      <point x="471" y="266"/>
      <point x="481" y="212"/>
      <point x="481" y="180" type="curve" smooth="yes"/>
      <point x="481" y="125"/>
      <point x="455" y="73"/>
      <point x="413" y="40" type="curve" smooth="yes"/>
      <point x="376" y="11"/>
      <point x="331" y="-2"/>
      <point x="288" y="-5" type="curve"/>
      <point x="288" y="-70" type="line"/>
      <point x="234" y="-70" type="line"/>
      <point x="234" y="-5" type="line"/>
      <point x="166" y="0"/>
      <point x="99" y="23"/>
      <point x="44" y="63" type="curve"/>
      <point x="88" y="119" type="line"/>
      <point x="130" y="88"/>
      <point x="182" y="70"/>
      <point x="234" y="65" type="curve"/>
      <point x="234" y="320" type="line"/>
      <point x="195" y="330"/>
      <point x="150" y="344"/>
      <point x="113" y="375" type="curve" smooth="yes"/>
      <point x="75" y="407"/>
      <point x="50" y="452"/>
      <point x="50" y="507" type="curve" smooth="yes"/>
      <point x="50" y="555"/>
      <point x="73" y="599"/>
      <point x="108" y="628" type="curve" smooth="yes"/>
      <point x="150" y="661"/>
      <point x="205" y="670"/>
      <point x="234" y="671" type="curve"/>
    </contour>
    <contour>
      <point x="234" y="601" type="line"/>
      <point x="201" y="600"/>
      <point x="172" y="588"/>
      <point x="155" y="574" type="curve" smooth="yes"/>
      <point x="129" y="551"/>
      <point x="124" y="520"/>
      <point x="124" y="507" type="curve" smooth="yes"/>
      <point x="124" y="474"/>
      <point x="137" y="449"/>
      <point x="162" y="428" type="curve" smooth="yes"/>
      <point x="181" y="412"/>
      <point x="206" y="401"/>
      <point x="234" y="393" type="curve"/>
    </contour>
    <contour>
      <point x="288" y="306" type="curve"/>
      <point x="288" y="65" type="line"/>
      <point x="320" y="69"/>
      <point x="349" y="78"/>
      <point x="372" y="100" type="curve" smooth="yes"/>
      <point x="393" y="120"/>
      <point x="407" y="146"/>
      <point x="407" y="180" type="curve" smooth="yes"/>
      <point x="407" y="197"/>
      <point x="401" y="233"/>
      <point x="372" y="261" type="curve" smooth="yes"/>
      <point x="347" y="285"/>
      <point x="326" y="293"/>
    </contour>
  </outline>
</glyph>
<glyph name="ampersand" format="1">
  <advance width="642"/>
  <unicode hex="0026"/>
  <outline>
    <contour>
      <point x="312" y="308" type="line" smooth="yes"/>
      <point x="249" y="308"/>
      <point x="211" y="308"/>
      <point x="177" y="280" type="curve" smooth="yes"/>
      <point x="151" y="258"/>
      <point x="134" y="222"/>
      <point x="134" y="184" type="curve" smooth="yes"/>
      <point x="134" y="145"/>
      <point x="151" y="115"/>
      <point x="171" y="97" type="curve" smooth="yes"/>
      <point x="195" y="75"/>
      <point x="232" y="64"/>
      <point x="272" y="64" type="curve" smooth="yes"/>
      <point x="321" y="64"/>
      <point x="368" y="79"/>
      <point x="397" y="107" type="curve"/>
      <point x="397" y="107"/>
      <point x="395" y="116"/>
      <point x="395" y="163" type="curve" smooth="yes"/>
      <point x="395" y="308" type="line"/>
    </contour>
    <contour>
      <point x="312" y="378" type="curve" smooth="yes"/>
      <point x="395" y="378" type="line"/>
      <point x="395" y="478" type="line"/>
      <point x="469" y="478" type="line"/>
      <point x="469" y="378" type="line"/>
      <point x="577" y="378" type="line"/>
      <point x="577" y="308" type="line"/>
      <point x="469" y="308" type="line"/>
      <point x="469" y="164" type="line" smooth="yes"/>
      <point x="469" y="115"/>
      <point x="469" y="95"/>
      <point x="483" y="80" type="curve" smooth="yes"/>
      <point x="494" y="68"/>
      <point x="512" y="64"/>
      <point x="528" y="64" type="curve" smooth="yes"/>
      <point x="545" y="64"/>
      <point x="563" y="68"/>
      <point x="580" y="76" type="curve"/>
      <point x="612" y="12" type="line"/>
      <point x="586" y="1"/>
      <point x="558" y="-6"/>
      <point x="528" y="-6" type="curve" smooth="yes"/>
      <point x="483" y="-6"/>
      <point x="447" y="10"/>
      <point x="424" y="40" type="curve"/>
      <point x="385" y="10"/>
      <point x="332" y="-6"/>
      <point x="272" y="-6" type="curve" smooth="yes"/>
      <point x="219" y="-6"/>
      <point x="166" y="8"/>
      <point x="125" y="42" type="curve" smooth="yes"/>
      <point x="87" y="73"/>
      <point x="60" y="124"/>
      <point x="60" y="184" type="curve"/>
      <point x="60" y="248"/>
      <point x="91" y="310"/>
      <point x="150" y="345" type="curve"/>
      <point x="97" y="379"/>
      <point x="72" y="435"/>
      <point x="72" y="492" type="curve" smooth="yes"/>
      <point x="72" y="552"/>
      <point x="99" y="597"/>
      <point x="133" y="626" type="curve" smooth="yes"/>
      <point x="174" y="660"/>
      <point x="224" y="672"/>
      <point x="271" y="672" type="curve" smooth="yes"/>
      <point x="326" y="672"/>
      <point x="384" y="657"/>
      <point x="431" y="621" type="curve"/>
      <point x="387" y="565" type="line"/>
      <point x="354" y="591"/>
      <point x="313" y="602"/>
      <point x="272" y="602" type="curve" smooth="yes"/>
      <point x="244" y="602"/>
      <point x="210" y="596"/>
      <point x="185" y="576" type="curve" smooth="yes"/>
      <point x="160" y="556"/>
      <point x="146" y="526"/>
      <point x="146" y="492" type="curve" smooth="yes"/>
      <point x="146" y="457"/>
      <point x="161" y="424"/>
      <point x="185" y="404" type="curve" smooth="yes"/>
      <point x="216" y="378"/>
      <point x="250" y="378"/>
    </contour>
  </outline>
</glyph>
<glyph name="parenleft" format="1">
  <advance width="320"/>
  <unicode hex="0028"/>
  <outline>
    <contour>
      <point x="140" y="298" type="curve"/>
      <point x="140" y="108"/>
      <point x="140" y="20"/>
      <point x="180" y="-56" type="curve" smooth="yes"/>
      <point x="201" y="-97"/>
      <point x="235" y="-130"/>
      <point x="278" y="-149" type="curve"/>
      <point x="254" y="-200" type="line"/>
      <point x="198" y="-176"/>
      <point x="153" y="-132"/>
      <point x="126" y="-80" type="curve" smooth="yes"/>
      <point x="80" y="7"/>
      <point x="80" y="103"/>
      <point x="80" y="298" type="curve"/>
      <point x="80" y="493"/>
      <point x="80" y="588"/>
      <point x="126" y="675" type="curve" smooth="yes"/>
      <point x="153" y="727"/>
      <point x="198" y="771"/>
      <point x="254" y="795" type="curve"/>
      <point x="278" y="744" type="line"/>
      <point x="235" y="725"/>
      <point x="201" y="692"/>
      <point x="180" y="651" type="curve" smooth="yes"/>
      <point x="140" y="575"/>
      <point x="140" y="488"/>
    </contour>
  </outline>
</glyph>
<glyph name="parenright" format="1">
  <advance width="320"/>
  <unicode hex="0029"/>
  <outline>
    <contour>
      <point x="180" y="298" type="curve"/>
      <point x="180" y="488"/>
      <point x="180" y="575"/>
      <point x="140" y="651" type="curve" smooth="yes"/>
      <point x="119" y="692"/>
      <point x="85" y="725"/>
      <point x="42" y="744" type="curve"/>
      <point x="66" y="795" type="line"/>
      <point x="122" y="771"/>
      <point x="167" y="727"/>
      <point x="194" y="675" type="curve" smooth="yes"/>
      <point x="240" y="588"/>
      <point x="240" y="493"/>
      <point x="240" y="298" type="curve"/>
      <point x="240" y="103"/>
      <point x="240" y="7"/>
      <point x="194" y="-80" type="curve" smooth="yes"/>
      <point x="167" y="-132"/>
      <point x="122" y="-176"/>
      <point x="66" y="-200" type="curve"/>
      <point x="42" y="-149" type="line"/>
      <point x="85" y="-130"/>
      <point x="119" y="-97"/>
      <point x="140" y="-56" type="curve" smooth="yes"/>
      <point x="180" y="20"/>
      <point x="180" y="108"/>
    </contour>
  </outline>
</glyph>
<glyph name="plus" format="1">
  <advance width="520"/>
  <unicode hex="002B"/>
  <outline>
    <contour>
      <point x="80" y="279" type="line"/>
      <point x="230" y="279" type="line"/>
      <point x="230" y="430" type="line"/>
      <point x="290" y="430" type="line"/>
      <point x="290" y="279" type="line"/>
      <point x="440" y="279" type="line"/>
      <point x="440" y="221" type="line"/>
      <point x="290" y="221" type="line"/>
      <point x="290" y="70" type="line"/>
      <point x="230" y="70" type="line"/>
      <point x="230" y="221" type="line"/>
      <point x="80" y="221" type="line"/>
    </contour>
  </outline>
</glyph>
<glyph name="period" format="1">
  <advance width="202"/>
  <unicode hex="002E"/>
  <outline>
    <contour>
      <point x="101" y="96" type="curve" smooth="yes"/>
      <point x="131" y="96"/>
      <point x="152" y="75"/>
      <point x="152" y="45" type="curve" smooth="yes"/>
      <point x="152" y="15"/>
      <point x="131" y="-6"/>
      <point x="101" y="-6" type="curve" smooth="yes"/>
      <point x="71" y="-6"/>
      <point x="50" y="15"/>
      <point x="50" y="45" type="curve" smooth="yes"/>
      <point x="50" y="75"/>
      <point x="71" y="96"/>
    </contour>
  </outline>
</glyph>
<glyph name="zero" format="1">
  <advance width="534"/>
  <unicode hex="0030"/>
  <outline>
    <contour>
      <point x="267" y="602" type="curve" smooth="yes"/>
      <point x="215" y="602"/>
      <point x="179" y="580"/>
      <point x="159" y="543" type="curve" smooth="yes"/>
      <point x="139" y="506"/>
      <point x="139" y="461"/>
      <point x="139" y="333" type="curve" smooth="yes"/>
      <point x="139" y="205"/>
      <point x="139" y="160"/>
      <point x="159" y="123" type="curve" smooth="yes"/>
      <point x="179" y="86"/>
      <point x="215" y="64"/>
      <point x="267" y="64" type="curve" smooth="yes"/>
      <point x="319" y="64"/>
      <point x="355" y="86"/>
      <point x="375" y="123" type="curve" smooth="yes"/>
      <point x="395" y="160"/>
      <point x="395" y="205"/>
      <point x="395" y="333" type="curve" smooth="yes"/>
      <point x="395" y="461"/>
      <point x="395" y="506"/>
      <point x="375" y="543" type="curve" smooth="yes"/>
      <point x="355" y="580"/>
      <point x="319" y="602"/>
    </contour>
    <contour>
      <point x="267" y="672" type="curve" smooth="yes"/>
      <point x="348" y="672"/>
      <point x="407" y="634"/>
      <point x="438" y="580" type="curve" smooth="yes"/>
      <point x="469" y="526"/>
      <point x="469" y="478"/>
      <point x="469" y="333" type="curve" smooth="yes"/>
      <point x="469" y="188"/>
      <point x="469" y="140"/>
      <point x="438" y="86" type="curve" smooth="yes"/>
      <point x="407" y="32"/>
      <point x="348" y="-6"/>
      <point x="267" y="-6" type="curve" smooth="yes"/>
      <point x="186" y="-6"/>
      <point x="127" y="32"/>
      <point x="96" y="86" type="curve" smooth="yes"/>
      <point x="65" y="140"/>
      <point x="65" y="188"/>
      <point x="65" y="333" type="curve" smooth="yes"/>
      <point x="65" y="478"/>
      <point x="65" y="526"/>
      <point x="96" y="580" type="curve" smooth="yes"/>
      <point x="127" y="634"/>
      <point x="186" y="672"/>
    </contour>
  </outline>
</glyph>
<glyph name="two" format="1">
  <advance width="506"/>
  <unicode hex="0032"/>
  <outline>
    <contour>
      <point x="446" y="70" type="line"/>
      <point x="446" y="0" type="line"/>
      <point x="60" y="0" type="line"/>
      <point x="60" y="50" type="line"/>
      <point x="295" y="369" type="line" smooth="yes"/>
      <point x="331" y="418"/>
      <point x="352" y="447"/>
      <point x="352" y="490" type="curve" smooth="yes"/>
      <point x="352" y="552"/>
      <point x="309" y="602"/>
      <point x="232" y="602" type="curve" smooth="yes"/>
      <point x="189" y="602"/>
      <point x="146" y="587"/>
      <point x="113" y="560" type="curve"/>
      <point x="73" y="619" type="line"/>
      <point x="119" y="654"/>
      <point x="176" y="672"/>
      <point x="232" y="672" type="curve" smooth="yes"/>
      <point x="347" y="672"/>
      <point x="426" y="594"/>
      <point x="426" y="490" type="curve" smooth="yes"/>
      <point x="426" y="428"/>
      <point x="398" y="387"/>
      <point x="360" y="335" type="curve" smooth="yes"/>
      <point x="165" y="70" type="line"/>
    </contour>
  </outline>
</glyph>
<glyph name="three" format="1">
  <advance width="483"/>
  <unicode hex="0033"/>
  <outline>
    <contour>
      <point x="222" y="672" type="curve" smooth="yes"/>
      <point x="342" y="672"/>
      <point x="416" y="590"/>
      <point x="416" y="490" type="curve" smooth="yes"/>
      <point x="416" y="423"/>
      <point x="385" y="374"/>
      <point x="338" y="345" type="curve"/>
      <point x="391" y="314"/>
      <point x="428" y="259"/>
      <point x="428" y="186" type="curve" smooth="yes"/>
      <point x="428" y="74"/>
      <point x="341" y="-6"/>
      <point x="222" y="-6" type="curve" smooth="yes"/>
      <point x="154" y="-6"/>
      <point x="92" y="19"/>
      <point x="50" y="56" type="curve"/>
      <point x="95" y="111" type="line"/>
      <point x="125" y="83"/>
      <point x="170" y="64"/>
      <point x="222" y="64" type="curve" smooth="yes"/>
      <point x="313" y="64"/>
      <point x="354" y="125"/>
      <point x="354" y="186" type="curve" smooth="yes"/>
      <point x="354" y="231"/>
      <point x="333" y="268"/>
      <point x="299" y="288" type="curve" smooth="yes"/>
      <point x="265" y="308"/>
      <point x="228" y="308"/>
      <point x="165" y="308" type="curve"/>
      <point x="165" y="378" type="line"/>
      <point x="226" y="378"/>
      <point x="261" y="378"/>
      <point x="293" y="397" type="curve" smooth="yes"/>
      <point x="325" y="416"/>
      <point x="342" y="451"/>
      <point x="342" y="490" type="curve" smooth="yes"/>
      <point x="342" y="552"/>
      <point x="298" y="602"/>
      <point x="222" y="602" type="curve" smooth="yes"/>
      <point x="180" y="602"/>
      <point x="136" y="587"/>
      <point x="103" y="561" type="curve"/>
      <point x="62" y="618" type="line"/>
      <point x="108" y="654"/>
      <point x="167" y="672"/>
    </contour>
  </outline>
</glyph>
<glyph name="four" format="1">
  <advance width="525"/>
  <unicode hex="0034"/>
  <outline>
    <contour>
      <point x="256" y="666" type="line"/>
      <point x="330" y="666" type="line"/>
      <point x="137" y="233" type="line"/>
      <point x="343" y="233" type="line"/>
      <point x="343" y="403" type="line"/>
      <point x="413" y="403" type="line"/>
      <point x="413" y="233" type="line"/>
      <point x="470" y="233" type="line"/>
      <point x="470" y="165" type="line"/>
      <point x="413" y="165" type="line"/>
      <point x="413" y="0" type="line"/>
      <point x="343" y="0" type="line"/>
      <point x="343" y="165" type="line"/>
      <point x="55" y="165" type="line"/>
      <point x="55" y="215" type="line"/>
    </contour>
  </outline>
</glyph>
<glyph name="five" format="1">
  <advance width="492"/>
  <unicode hex="0035"/>
  <outline>
    <contour>
      <point x="82" y="666" type="line"/>
      <point x="401" y="666" type="line"/>
      <point x="401" y="596" type="line"/>
      <point x="154" y="596" type="line"/>
      <point x="154" y="389" type="line"/>
      <point x="177" y="398"/>
      <point x="203" y="402"/>
      <point x="230" y="402" type="curve" smooth="yes"/>
      <point x="291" y="402"/>
      <point x="345" y="384"/>
      <point x="383" y="348" type="curve" smooth="yes"/>
      <point x="421" y="312"/>
      <point x="442" y="260"/>
      <point x="442" y="198" type="curve" smooth="yes"/>
      <point x="442" y="137"/>
      <point x="421" y="84"/>
      <point x="383" y="48" type="curve" smooth="yes"/>
      <point x="346" y="12"/>
      <point x="292" y="-6"/>
      <point x="230" y="-6" type="curve" smooth="yes"/>
      <point x="164" y="-6"/>
      <point x="103" y="13"/>
      <point x="60" y="49" type="curve"/>
      <point x="106" y="104" type="line"/>
      <point x="133" y="80"/>
      <point x="177" y="64"/>
      <point x="230" y="64" type="curve" smooth="yes"/>
      <point x="278" y="64"/>
      <point x="309" y="77"/>
      <point x="331" y="98" type="curve" smooth="yes"/>
      <point x="352" y="118"/>
      <point x="368" y="152"/>
      <point x="368" y="198" type="curve" smooth="yes"/>
      <point x="368" y="245"/>
      <point x="352" y="278"/>
      <point x="331" y="298" type="curve" smooth="yes"/>
      <point x="309" y="319"/>
      <point x="276" y="332"/>
      <point x="230" y="332" type="curve" smooth="yes"/>
      <point x="195" y="332"/>
      <point x="168" y="324"/>
      <point x="148" y="312" type="curve"/>
      <point x="82" y="341" type="line"/>
    </contour>
  </outline>
</glyph>
<glyph name="six" format="1">
  <advance width="500"/>
  <unicode hex="0036"/>
  <outline>
    <contour>
      <point x="250" y="416" type="curve" smooth="yes"/>
      <point x="370" y="416"/>
      <point x="450" y="323"/>
      <point x="450" y="205" type="curve" smooth="yes"/>
      <point x="450" y="87"/>
      <point x="370" y="-6"/>
      <point x="250" y="-6" type="curve" smooth="yes"/>
      <point x="130" y="-6"/>
      <point x="50" y="87"/>
      <point x="50" y="205" type="curve" smooth="yes"/>
      <point x="50" y="259"/>
      <point x="66" y="300"/>
      <point x="96" y="363" type="curve" smooth="yes"/>
      <point x="241" y="666" type="line"/>
      <point x="322" y="666" type="line"/>
      <point x="197" y="405" type="line"/>
      <point x="213" y="412"/>
      <point x="231" y="416"/>
    </contour>
    <contour>
      <point x="250" y="346" type="curve" smooth="yes"/>
      <point x="177" y="346"/>
      <point x="124" y="294"/>
      <point x="124" y="205" type="curve" smooth="yes"/>
      <point x="124" y="116"/>
      <point x="177" y="64"/>
      <point x="250" y="64" type="curve" smooth="yes"/>
      <point x="323" y="64"/>
      <point x="376" y="116"/>
      <point x="376" y="205" type="curve" smooth="yes"/>
      <point x="376" y="294"/>
      <point x="323" y="346"/>
    </contour>
  </outline>
</glyph>
<glyph name="seven" format="1">
  <advance width="500"/>
  <unicode hex="0037"/>
  <outline>
    <contour>
      <point x="55" y="666" type="line"/>
      <point x="445" y="666" type="line"/>
      <point x="445" y="616" type="line"/>
      <point x="183" y="0" type="line"/>
      <point x="104" y="0" type="line"/>
      <point x="357" y="596" type="line"/>
      <point x="55" y="596" type="line"/>
    </contour>
  </outline>
</glyph>
<glyph name="eight" format="1">
  <advance width="522"/>
  <unicode hex="0038"/>
  <outline>
    <contour>
      <point x="261" y="672" type="curve" smooth="yes"/>
      <point x="373" y="672"/>
      <point x="455" y="595"/>
      <point x="455" y="490" type="curve" smooth="yes"/>
      <point x="455" y="429"/>
      <point x="427" y="377"/>
      <point x="377" y="345" type="curve"/>
      <point x="434" y="311"/>
      <point x="467" y="254"/>
      <point x="467" y="186" type="curve" smooth="yes"/>
      <point x="467" y="75"/>
      <point x="379" y="-6"/>
      <point x="261" y="-6" type="curve" smooth="yes"/>
      <point x="143" y="-6"/>
      <point x="55" y="75"/>
      <point x="55" y="186" type="curve" smooth="yes"/>
      <point x="55" y="254"/>
      <point x="88" y="311"/>
      <point x="145" y="345" type="curve"/>
      <point x="95" y="377"/>
      <point x="67" y="429"/>
      <point x="67" y="490" type="curve" smooth="yes"/>
      <point x="67" y="595"/>
      <point x="149" y="672"/>
    </contour>
    <contour>
      <point x="261" y="602" type="curve" smooth="yes"/>
      <point x="188" y="602"/>
      <point x="141" y="558"/>
      <point x="141" y="490" type="curve" smooth="yes"/>
      <point x="141" y="422"/>
      <point x="188" y="378"/>
      <point x="261" y="378" type="curve" smooth="yes"/>
      <point x="334" y="378"/>
      <point x="381" y="422"/>
      <point x="381" y="490" type="curve" smooth="yes"/>
      <point x="381" y="558"/>
      <point x="334" y="602"/>
    </contour>
    <contour>
      <point x="261" y="308" type="curve" smooth="yes"/>
      <point x="180" y="308"/>
      <point x="129" y="260"/>
      <point x="129" y="186" type="curve" smooth="yes"/>
      <point x="129" y="112"/>
      <point x="180" y="64"/>
      <point x="261" y="64" type="curve" smooth="yes"/>
      <point x="342" y="64"/>
      <point x="393" y="112"/>
      <point x="393" y="186" type="curve" smooth="yes"/>
      <point x="393" y="260"/>
      <point x="342" y="308"/>
    </contour>
  </outline>
</glyph>
<glyph name="nine" format="1">
  <advance width="500"/>
  <unicode hex="0039"/>
  <outline>
    <contour>
      <point x="250" y="250" type="curve" smooth="yes"/>
      <point x="130" y="250"/>
      <point x="50" y="343"/>
      <point x="50" y="461" type="curve" smooth="yes"/>
      <point x="50" y="579"/>
      <point x="130" y="672"/>
      <point x="250" y="672" type="curve" smooth="yes"/>
      <point x="370" y="672"/>
      <point x="450" y="579"/>
      <point x="450" y="461" type="curve" smooth="yes"/>
      <point x="450" y="407"/>
      <point x="434" y="366"/>
      <point x="404" y="303" type="curve" smooth="yes"/>
      <point x="259" y="0" type="line"/>
      <point x="178" y="0" type="line"/>
      <point x="303" y="261" type="line"/>
      <point x="287" y="254"/>
      <point x="269" y="250"/>
    </contour>
    <contour>
      <point x="250" y="320" type="curve" smooth="yes"/>
      <point x="323" y="320"/>
      <point x="376" y="372"/>
      <point x="376" y="461" type="curve" smooth="yes"/>
      <point x="376" y="550"/>
      <point x="323" y="602"/>
      <point x="250" y="602" type="curve" smooth="yes"/>
      <point x="177" y="602"/>
      <point x="124" y="550"/>
      <point x="124" y="461" type="curve" smooth="yes"/>
      <point x="124" y="372"/>
      <point x="177" y="320"/>
    </contour>
  </outline>
</glyph>
<glyph name="colon" format="1">
  <advance width="202"/>
  <unicode hex="003A"/>
  <outline>
    <contour>
      <point x="101" y="96" type="curve" smooth="yes"/>
      <point x="131" y="96"/>
      <point x="152" y="75"/>
      <point x="152" y="45" type="curve" smooth="yes"/>
      <point x="152" y="15"/>
      <point x="131" y="-6"/>
      <point x="101" y="-6" type="curve" smooth="yes"/>
      <point x="71" y="-6"/>
      <point x="50" y="15"/>
      <point x="50" y="45" type="curve" smooth="yes"/>
      <point x="50" y="75"/>
      <point x="71" y="96"/>
    </contour>
    <contour>
      <point x="101" y="385" type="curve" smooth="yes"/>
      <point x="131" y="385"/>
      <point x="152" y="364"/>
      <point x="152" y="334" type="curve" smooth="yes"/>
      <point x="152" y="304"/>
      <point x="131" y="283"/>
      <point x="101" y="283" type="curve" smooth="yes"/>
      <point x="71" y="283"/>
      <point x="50" y="304"/>
      <point x="50" y="334" type="curve" smooth="yes"/>
      <point x="50" y="364"/>
      <point x="71" y="385"/>
    </contour>
  </outline>
</glyph>
<glyph name="semicolon" format="1">
  <advance width="202"/>
  <unicode hex="003B"/>
  <outline>
    <contour>
      <point x="50" y="45" type="curve" smooth="yes"/>
      <point x="50" y="76"/>
      <point x="71" y="96"/>
      <point x="101" y="96" type="curve" smooth="yes"/>
      <point x="131" y="96"/>
      <point x="152" y="76"/>
      <point x="152" y="45" type="curve" smooth="yes"/>
      <point x="152" y="32"/>
      <point x="148" y="19"/>
      <point x="138" y="-9" type="curve" smooth="yes"/>
      <point x="98" y="-121" type="line"/>
      <point x="53" y="-121" type="line"/>
      <point x="82" y="-3" type="line" smooth="yes"/>
      <point x="63" y="3"/>
      <point x="50" y="22"/>
    </contour>
    <contour>
      <point x="101" y="385" type="curve" smooth="yes"/>
      <point x="131" y="385"/>
      <point x="152" y="364"/>
      <point x="152" y="334" type="curve" smooth="yes"/>
      <point x="152" y="304"/>
      <point x="131" y="283"/>
      <point x="101" y="283" type="curve" smooth="yes"/>
      <point x="71" y="283"/>
      <point x="50" y="304"/>
      <point x="50" y="334" type="curve" smooth="yes"/>
      <point x="50" y="364"/>
      <point x="71" y="385"/>
    </contour>
  </outline>
</glyph>
<glyph name="less" format="1">
  <advance width="520"/>
  <unicode hex="003C"/>
  <outline>
    <contour>
      <point x="449" y="394" type="line"/>
      <point x="157" y="250" type="line"/>
      <point x="449" y="106" type="line"/>
      <point x="421" y="54" type="line"/>
      <point x="80" y="224" type="line"/>
      <point x="80" y="276" type="line"/>
      <point x="421" y="446" type="line"/>
    </contour>
  </outline>
</glyph>
<glyph name="equal" format="1">
  <advance width="520"/>
  <unicode hex="003D"/>
  <outline>
    <contour>
      <point x="80" y="347" type="line"/>
      <point x="440" y="347" type="line"/>
      <point x="440" y="289" type="line"/>
      <point x="80" y="289" type="line"/>
    </contour>
    <contour>
      <point x="80" y="211" type="line"/>
      <point x="440" y="211" type="line"/>
      <point x="440" y="153" type="line"/>
      <point x="80" y="153" type="line"/>
    </contour>
  </outline>
</glyph>
<glyph name="greater" format="1">
  <advance width="520"/>
  <unicode hex="003E"/>
  <outline>
    <contour>
      <point x="71" y="394" type="line"/>
      <point x="99" y="446" type="line"/>
      <point x="440" y="276" type="line"/>
      <point x="440" y="224" type="line"/>
      <point x="99" y="54" type="line"/>
      <point x="71" y="106" type="line"/>
      <point x="363" y="250" type="line"/>
    </contour>
  </outline>
</glyph>
<glyph name="question" format="1">
  <advance width="464"/>
  <unicode hex="003F"/>
  <outline>
    <contour>
      <point x="404" y="490" type="curve" smooth="yes"/>
      <point x="404" y="414"/>
      <point x="367" y="373"/>
      <point x="321" y="342" type="curve" smooth="yes"/>
      <point x="275" y="311"/>
      <point x="242" y="290"/>
      <point x="239" y="216" type="curve" smooth="yes"/>
      <point x="237" y="169" type="line"/>
      <point x="183" y="169" type="line"/>
      <point x="181" y="206"/>
      <point x="181" y="224" type="curve" smooth="yes"/>
      <point x="181" y="312"/>
      <point x="217" y="355"/>
      <point x="261" y="382" type="curve" smooth="yes"/>
      <point x="305" y="409"/>
      <point x="330" y="439"/>
      <point x="330" y="490" type="curve" smooth="yes"/>
      <point x="330" y="552"/>
      <point x="286" y="602"/>
      <point x="210" y="602" type="curve" smooth="yes"/>
      <point x="168" y="602"/>
      <point x="124" y="587"/>
      <point x="91" y="561" type="curve"/>
      <point x="50" y="618" type="line"/>
      <point x="96" y="654"/>
      <point x="155" y="672"/>
      <point x="210" y="672" type="curve" smooth="yes"/>
      <point x="330" y="672"/>
      <point x="404" y="590"/>
    </contour>
    <contour>
      <point x="210" y="96" type="curve" smooth="yes"/>
      <point x="240" y="96"/>
      <point x="261" y="75"/>
      <point x="261" y="45" type="curve" smooth="yes"/>
      <point x="261" y="15"/>
      <point x="240" y="-6"/>
      <point x="210" y="-6" type="curve" smooth="yes"/>
      <point x="180" y="-6"/>
      <point x="159" y="15"/>
      <point x="159" y="45" type="curve" smooth="yes"/>
      <point x="159" y="75"/>
      <point x="180" y="96"/>
    </contour>
  </outline>
</glyph>
<glyph name="at" format="1">
  <advance width="865"/>
  <unicode hex="0040"/>
  <outline>
    <contour>
      <point x="469" y="229" type="line" smooth="yes"/>
      <point x="410" y="229"/>
      <point x="372" y="229"/>
      <point x="342" y="206" type="curve" smooth="yes"/>
      <point x="325" y="193"/>
      <point x="311" y="171"/>
      <point x="311" y="143" type="curve" smooth="yes"/>
      <point x="311" y="116"/>
      <point x="325" y="94"/>
      <point x="344" y="80" type="curve" smooth="yes"/>
      <point x="363" y="66"/>
      <point x="388" y="60"/>
      <point x="414" y="60" type="curve" smooth="yes"/>
      <point x="459" y="60"/>
      <point x="494" y="78"/>
      <point x="513" y="105" type="curve" smooth="yes"/>
      <point x="534" y="135"/>
      <point x="534" y="172"/>
      <point x="534" y="229" type="curve"/>
    </contour>
    <contour>
      <point x="357" y="666" type="line" smooth="yes"/>
      <point x="478" y="666"/>
      <point x="599" y="666"/>
      <point x="695" y="570" type="curve" smooth="yes"/>
      <point x="790" y="475"/>
      <point x="790" y="351"/>
      <point x="790" y="235" type="curve" smooth="yes"/>
      <point x="790" y="98" type="line" smooth="yes"/>
      <point x="790" y="15"/>
      <point x="790" y="-57"/>
      <point x="735" y="-117" type="curve" smooth="yes"/>
      <point x="674" y="-183"/>
      <point x="589" y="-183"/>
      <point x="507" y="-183" type="curve" smooth="yes"/>
      <point x="358" y="-183" type="line" smooth="yes"/>
      <point x="276" y="-183"/>
      <point x="191" y="-183"/>
      <point x="130" y="-117" type="curve" smooth="yes"/>
      <point x="75" y="-57"/>
      <point x="75" y="15"/>
      <point x="75" y="98" type="curve" smooth="yes"/>
      <point x="75" y="200" type="line" smooth="yes"/>
      <point x="75" y="283"/>
      <point x="75" y="355"/>
      <point x="130" y="415" type="curve" smooth="yes"/>
      <point x="191" y="481"/>
      <point x="277" y="481"/>
      <point x="359" y="481" type="curve" smooth="yes"/>
      <point x="436" y="481"/>
      <point x="490" y="481"/>
      <point x="542" y="442" type="curve" smooth="yes"/>
      <point x="604" y="395"/>
      <point x="604" y="322"/>
      <point x="604" y="266" type="curve" smooth="yes"/>
      <point x="604" y="0" type="line"/>
      <point x="534" y="0" type="line"/>
      <point x="534" y="51" type="line"/>
      <point x="504" y="15"/>
      <point x="457" y="-6"/>
      <point x="409" y="-6" type="curve" smooth="yes"/>
      <point x="374" y="-6"/>
      <point x="335" y="2"/>
      <point x="301" y="27" type="curve" smooth="yes"/>
      <point x="267" y="52"/>
      <point x="241" y="94"/>
      <point x="241" y="143" type="curve" smooth="yes"/>
      <point x="241" y="188"/>
      <point x="263" y="228"/>
      <point x="299" y="255" type="curve" smooth="yes"/>
      <point x="347" y="291"/>
      <point x="407" y="291"/>
      <point x="469" y="291" type="curve" smooth="yes"/>
      <point x="534" y="291" type="line"/>
      <point x="534" y="318"/>
      <point x="534" y="365"/>
      <point x="495" y="396" type="curve" smooth="yes"/>
      <point x="466" y="419"/>
      <point x="428" y="419"/>
      <point x="359" y="419" type="curve" smooth="yes"/>
      <point x="281" y="419"/>
      <point x="218" y="419"/>
      <point x="177" y="371" type="curve" smooth="yes"/>
      <point x="141" y="329"/>
      <point x="141" y="275"/>
      <point x="141" y="200" type="curve" smooth="yes"/>
      <point x="141" y="98" type="line" smooth="yes"/>
      <point x="141" y="23"/>
      <point x="141" y="-31"/>
      <point x="177" y="-73" type="curve" smooth="yes"/>
      <point x="218" y="-121"/>
      <point x="280" y="-121"/>
      <point x="358" y="-121" type="curve" smooth="yes"/>
      <point x="507" y="-121" type="line" smooth="yes"/>
      <point x="585" y="-121"/>
      <point x="647" y="-121"/>
      <point x="688" y="-73" type="curve" smooth="yes"/>
      <point x="724" y="-31"/>
      <point x="724" y="23"/>
      <point x="724" y="98" type="curve" smooth="yes"/>
      <point x="724" y="235" type="line" smooth="yes"/>
      <point x="724" y="349"/>
      <point x="724" y="451"/>
      <point x="647" y="528" type="curve" smooth="yes"/>
      <point x="571" y="604"/>
      <point x="467" y="604"/>
      <point x="357" y="604" type="curve" smooth="yes"/>
      <point x="282" y="604" type="line"/>
      <point x="282" y="666" type="line"/>
    </contour>
  </outline>
</glyph>
<glyph name="A" format="1">
  <advance width="544"/>
  <unicode hex="0041"/>
  <outline>
    <contour>
      <point x="-33" y="0" type="move" name="DoubleTop"/>
    </contour>
    <contour>
      <point x="-33" y="0" type="move" name="Apos"/>
    </contour>
    <contour>
      <point x="-33" y="0" type="move" name="Center"/>
    </contour>
    <contour>
      <point x="504" y="0" type="move" name="Bottom"/>
    </contour>
    <contour>
      <point x="272" y="666" type="move" name="Top"/>
    </contour>
    <contour>
      <point x="15" y="0" type="line"/>
      <point x="242" y="666" type="line"/>
      <point x="302" y="666" type="line"/>
      <point x="529" y="0" type="line"/>
      <point x="451" y="0" type="line"/>
      <point x="398" y="165" type="line"/>
      <point x="146" y="165" type="line"/>
      <point x="93" y="0" type="line"/>
    </contour>
    <contour>
      <point x="376" y="235" type="line"/>
      <point x="272" y="562" type="line"/>
      <point x="168" y="235" type="line"/>
    </contour>
  </outline>
</glyph>
<glyph name="B" format="1">
  <advance width="540"/>
  <unicode hex="0042"/>
  <outline>
    <contour>
      <point x="234" y="308" type="curve" smooth="yes"/>
      <point x="149" y="308" type="line"/>
      <point x="149" y="70" type="line"/>
      <point x="234" y="70" type="line" smooth="yes"/>
      <point x="303" y="70"/>
      <point x="348" y="70"/>
      <point x="381" y="105" type="curve" smooth="yes"/>
      <point x="398" y="123"/>
      <point x="411" y="153"/>
      <point x="411" y="189" type="curve" smooth="yes"/>
      <point x="411" y="225"/>
      <point x="398" y="255"/>
      <point x="381" y="273" type="curve" smooth="yes"/>
      <point x="348" y="308"/>
      <point x="303" y="308"/>
    </contour>
    <contour>
      <point x="224" y="596" type="curve" smooth="yes"/>
      <point x="149" y="596" type="line"/>
      <point x="149" y="378" type="line"/>
      <point x="224" y="378" type="line" smooth="yes"/>
      <point x="292" y="378"/>
      <point x="338" y="378"/>
      <point x="367" y="414" type="curve" smooth="yes"/>
      <point x="384" y="435"/>
      <point x="391" y="461"/>
      <point x="391" y="487" type="curve" smooth="yes"/>
      <point x="391" y="513"/>
      <point x="384" y="539"/>
      <point x="367" y="560" type="curve" smooth="yes"/>
      <point x="338" y="596"/>
      <point x="292" y="596"/>
    </contour>
    <contour>
      <point x="224" y="666" type="line" smooth="yes"/>
      <point x="295" y="666"/>
      <point x="351" y="666"/>
      <point x="401" y="627" type="curve" smooth="yes"/>
      <point x="442" y="595"/>
      <point x="465" y="544"/>
      <point x="465" y="487" type="curve" smooth="yes"/>
      <point x="465" y="426"/>
      <point x="439" y="377"/>
      <point x="392" y="348" type="curve"/>
      <point x="450" y="318"/>
      <point x="485" y="262"/>
      <point x="485" y="189" type="curve" smooth="yes"/>
      <point x="485" y="132"/>
      <point x="463" y="85"/>
      <point x="432" y="54" type="curve" smooth="yes"/>
      <point x="378" y="0"/>
      <point x="308" y="0"/>
      <point x="234" y="0" type="curve" smooth="yes"/>
      <point x="75" y="0" type="line"/>
      <point x="75" y="666" type="line"/>
    </contour>
  </outline>
</glyph>
<glyph name="C" format="1">
  <advance width="534"/>
  <unicode hex="0043"/>
  <outline>
    <contour>
      <point x="0" y="0" type="move" name="DoubleTop"/>
    </contour>
    <contour>
      <point x="0" y="0" type="move" name="Apos"/>
    </contour>
    <contour>
      <point x="0" y="0" type="move" name="Center"/>
    </contour>
    <contour>
      <point x="290" y="0" type="move" name="Bottom"/>
    </contour>
    <contour>
      <point x="290" y="666" type="move" name="Top"/>
    </contour>
    <contour>
      <point x="290" y="672" type="curve" smooth="yes"/>
      <point x="362" y="672"/>
      <point x="425" y="644"/>
      <point x="465" y="605" type="curve"/>
      <point x="420" y="550" type="line"/>
      <point x="391" y="580"/>
      <point x="346" y="602"/>
      <point x="290" y="602" type="curve" smooth="yes"/>
      <point x="241" y="602"/>
      <point x="200" y="584"/>
      <point x="175" y="552" type="curve" smooth="yes"/>
      <point x="139" y="506"/>
      <point x="139" y="448"/>
      <point x="139" y="333" type="curve" smooth="yes"/>
      <point x="139" y="218"/>
      <point x="139" y="161"/>
      <point x="174" y="115" type="curve" smooth="yes"/>
      <point x="198" y="84"/>
      <point x="237" y="64"/>
      <point x="290" y="64" type="curve" smooth="yes"/>
      <point x="348" y="64"/>
      <point x="398" y="88"/>
      <point x="428" y="123" type="curve"/>
      <point x="479" y="73" type="line"/>
      <point x="438" y="28"/>
      <point x="369" y="-6"/>
      <point x="290" y="-6" type="curve" smooth="yes"/>
      <point x="210" y="-6"/>
      <point x="150" y="27"/>
      <point x="114" y="74" type="curve" smooth="yes"/>
      <point x="65" y="138"/>
      <point x="65" y="208"/>
      <point x="65" y="333" type="curve" smooth="yes"/>
      <point x="65" y="454"/>
      <point x="65" y="529"/>
      <point x="115" y="593" type="curve" smooth="yes"/>
      <point x="150" y="638"/>
      <point x="210" y="672"/>
    </contour>
  </outline>
</glyph>
<glyph name="D" format="1">
  <advance width="570"/>
  <unicode hex="0044"/>
  <outline>
    <contour>
      <point x="0" y="0" type="move" name="DoubleTop"/>
    </contour>
    <contour>
      <point x="0" y="0" type="move" name="Apos"/>
    </contour>
    <contour>
      <point x="-5" y="0" type="move" name="Center"/>
    </contour>
    <contour>
      <point x="277" y="0" type="move" name="Bottom"/>
    </contour>
    <contour>
      <point x="280" y="666" type="move" name="Top"/>
    </contour>
    <contour>
      <point x="75" y="666" type="line"/>
      <point x="174" y="666" type="line" smooth="yes"/>
      <point x="302" y="666"/>
      <point x="368" y="666"/>
      <point x="437" y="597" type="curve" smooth="yes"/>
      <point x="505" y="529"/>
      <point x="505" y="465"/>
      <point x="505" y="333" type="curve" smooth="yes"/>
      <point x="505" y="201"/>
      <point x="505" y="137"/>
      <point x="437" y="69" type="curve" smooth="yes"/>
      <point x="368" y="0"/>
      <point x="302" y="-1.56755e-14"/>
      <point x="174" y="0" type="curve" smooth="yes"/>
      <point x="75" y="0" type="line"/>
    </contour>
    <contour>
      <point x="149" y="596" type="line"/>
      <point x="149" y="70" type="line"/>
      <point x="174" y="70" type="line" smooth="yes"/>
      <point x="293" y="70"/>
      <point x="336" y="70"/>
      <point x="383" y="117" type="curve" smooth="yes"/>
      <point x="431" y="165"/>
      <point x="431" y="207"/>
      <point x="431" y="333" type="curve" smooth="yes"/>
      <point x="431" y="459"/>
      <point x="431" y="501"/>
      <point x="383" y="549" type="curve" smooth="yes"/>
      <point x="336" y="596"/>
      <point x="293" y="596"/>
      <point x="174" y="596" type="curve" smooth="yes"/>
    </contour>
  </outline>
</glyph>
<glyph name="E" format="1">
  <advance width="500"/>
  <unicode hex="0045"/>
  <outline>
    <contour>
      <point x="75" y="666" type="line"/>
      <point x="435" y="666" type="line"/>
      <point x="435" y="596" type="line"/>
      <point x="149" y="596" type="line"/>
      <point x="149" y="378" type="line"/>
      <point x="385" y="378" type="line"/>
      <point x="385" y="308" type="line"/>
      <point x="149" y="308" type="line"/>
      <point x="149" y="70" type="line"/>
      <point x="435" y="70" type="line"/>
      <point x="435" y="0" type="line"/>
      <point x="75" y="0" type="line"/>
    </contour>
  </outline>
</glyph>
<glyph name="F" format="1">
  <advance width="495"/>
  <unicode hex="0046"/>
  <outline>
    <contour>
      <point x="75" y="666" type="line"/>
      <point x="435" y="666" type="line"/>
      <point x="435" y="596" type="line"/>
      <point x="149" y="596" type="line"/>
      <point x="149" y="378" type="line"/>
      <point x="385" y="378" type="line"/>
      <point x="385" y="308" type="line"/>
      <point x="149" y="308" type="line"/>
      <point x="149" y="0" type="line"/>
      <point x="75" y="0" type="line"/>
    </contour>
  </outline>
</glyph>
<glyph name="G" format="1">
  <advance width="580"/>
  <unicode hex="0047"/>
  <outline>
    <contour>
      <point x="0" y="0" type="move" name="DoubleTop"/>
    </contour>
    <contour>
      <point x="0" y="0" type="move" name="Apos"/>
    </contour>
    <contour>
      <point x="0" y="0" type="move" name="Center"/>
    </contour>
    <contour>
      <point x="290" y="0" type="move" name="Bottom"/>
    </contour>
    <contour>
      <point x="290" y="666" type="move" name="Top"/>
    </contour>
    <contour>
      <point x="290" y="672" type="curve" smooth="yes"/>
      <point x="354" y="672"/>
      <point x="419" y="649"/>
      <point x="467" y="609" type="curve"/>
      <point x="423" y="554" type="line"/>
      <point x="387" y="585"/>
      <point x="337" y="602"/>
      <point x="289" y="602" type="curve" smooth="yes"/>
      <point x="247" y="602"/>
      <point x="208" y="587"/>
      <point x="184" y="563" type="curve" smooth="yes"/>
      <point x="139" y="518"/>
      <point x="139" y="460"/>
      <point x="139" y="381" type="curve" smooth="yes"/>
      <point x="139" y="285" type="line" smooth="yes"/>
      <point x="139" y="206"/>
      <point x="139" y="151"/>
      <point x="181" y="106" type="curve" smooth="yes"/>
      <point x="208" y="77"/>
      <point x="250" y="64"/>
      <point x="290" y="64" type="curve" smooth="yes"/>
      <point x="330" y="64"/>
      <point x="372" y="77"/>
      <point x="399" y="106" type="curve" smooth="yes"/>
      <point x="441" y="151"/>
      <point x="441" y="206"/>
      <point x="441" y="285" type="curve" smooth="yes"/>
      <point x="441" y="287" type="line"/>
      <point x="303" y="287" type="line"/>
      <point x="303" y="357" type="line"/>
      <point x="515" y="357" type="line"/>
      <point x="515" y="285" type="line" smooth="yes"/>
      <point x="515" y="201"/>
      <point x="515" y="120"/>
      <point x="451" y="56" type="curve" smooth="yes"/>
      <point x="414" y="19"/>
      <point x="358" y="-6"/>
      <point x="290" y="-6" type="curve" smooth="yes"/>
      <point x="222" y="-6"/>
      <point x="166" y="19"/>
      <point x="129" y="56" type="curve" smooth="yes"/>
      <point x="65" y="120"/>
      <point x="65" y="201"/>
      <point x="65" y="285" type="curve" smooth="yes"/>
      <point x="65" y="381" type="line" smooth="yes"/>
      <point x="65" y="464"/>
      <point x="65" y="547"/>
      <point x="130" y="611" type="curve" smooth="yes"/>
      <point x="174" y="654"/>
      <point x="233" y="672"/>
    </contour>
  </outline>
</glyph>
<glyph name="I" format="1">
  <advance width="224"/>
  <unicode hex="0049"/>
  <outline>
    <contour>
      <point x="0" y="0" type="move" name="DoubleTop"/>
    </contour>
    <contour>
      <point x="0" y="0" type="move" name="Apos"/>
    </contour>
    <contour>
      <point x="-5" y="0" type="move" name="Center"/>
    </contour>
    <contour>
      <point x="111" y="0" type="move" name="Bottom"/>
    </contour>
    <contour>
      <point x="112" y="666" type="move" name="Top"/>
    </contour>
    <contour>
      <point x="149" y="666" type="line"/>
      <point x="149" y="0" type="line"/>
      <point x="75" y="0" type="line"/>
      <point x="75" y="666" type="line"/>
    </contour>
  </outline>
</glyph>
<glyph name="J" format="1">
  <advance width="446"/>
  <unicode hex="004A"/>
  <outline>
    <contour>
      <point x="-5" y="0" type="move" name="DoubleTop"/>
    </contour>
    <contour>
      <point x="-5" y="0" type="move" name="Apos"/>
    </contour>
    <contour>
      <point x="-5" y="0" type="move" name="Center"/>
    </contour>
    <contour>
      <point x="191" y="0" type="move" name="Bottom"/>
    </contour>
    <contour>
      <point x="339" y="666" type="move" name="Top"/>
    </contour>
    <contour>
      <point x="302" y="666" type="line"/>
      <point x="376" y="666" type="line"/>
      <point x="376" y="261" type="line" smooth="yes"/>
      <point x="376" y="179"/>
      <point x="376" y="117"/>
      <point x="335" y="64" type="curve" smooth="yes"/>
      <point x="297" y="15"/>
      <point x="240" y="-6"/>
      <point x="181" y="-6" type="curve" smooth="yes"/>
      <point x="129" y="-6"/>
      <point x="78" y="10"/>
      <point x="35" y="43" type="curve"/>
      <point x="80" y="99" type="line"/>
      <point x="107" y="76"/>
      <point x="145" y="64"/>
      <point x="181" y="64" type="curve" smooth="yes"/>
      <point x="221" y="64"/>
      <point x="250" y="78"/>
      <point x="269" y="98" type="curve" smooth="yes"/>
      <point x="302" y="133"/>
      <point x="302" y="184"/>
      <point x="302" y="261" type="curve" smooth="yes"/>
    </contour>
  </outline>
</glyph>
<glyph name="L" format="1">
  <advance width="510"/>
  <unicode hex="004C"/>
  <outline>
    <contour>
      <point x="0" y="0" type="move" name="DoubleTop"/>
    </contour>
    <contour>
      <point x="212" y="666" type="move" name="Apos"/>
    </contour>
    <contour>
      <point x="265" y="0" type="move" name="Bottom"/>
    </contour>
    <contour>
      <point x="265" y="334" type="move" name="Center"/>
    </contour>
    <contour>
      <point x="113" y="666" type="move" name="Top"/>
    </contour>
    <contour>
      <point x="75" y="666" type="line"/>
      <point x="149" y="666" type="line"/>
      <point x="149" y="70" type="line"/>
      <point x="455" y="70" type="line"/>
      <point x="455" y="0" type="line"/>
      <point x="75" y="0" type="line"/>
    </contour>
  </outline>
</glyph>
<glyph name="M" format="1">
  <advance width="720"/>
  <unicode hex="004D"/>
  <outline>
    <contour>
      <point x="75" y="666" type="line"/>
      <point x="140" y="666" type="line"/>
      <point x="360" y="243" type="line"/>
      <point x="579" y="666" type="line"/>
      <point x="645" y="666" type="line"/>
      <point x="645" y="0" type="line"/>
      <point x="571" y="0" type="line"/>
      <point x="571" y="512" type="line"/>
      <point x="392" y="165" type="line"/>
      <point x="328" y="165" type="line"/>
      <point x="149" y="510" type="line"/>
      <point x="149" y="0" type="line"/>
      <point x="75" y="0" type="line"/>
    </contour>
  </outline>
</glyph>
<glyph name="O" format="1">
  <advance width="600"/>
  <unicode hex="004F"/>
  <outline>
    <contour>
      <point x="0" y="0" type="move" name="DoubleTop"/>
    </contour>
    <contour>
      <point x="0" y="0" type="move" name="Apos"/>
    </contour>
    <contour>
      <point x="0" y="0" type="move" name="Center"/>
    </contour>
    <contour>
      <point x="300" y="0" type="move" name="Bottom"/>
    </contour>
    <contour>
      <point x="300" y="666" type="move" name="Top"/>
    </contour>
    <contour>
      <point x="139" y="333" type="curve" smooth="yes"/>
      <point x="139" y="237"/>
      <point x="139" y="182"/>
      <point x="164" y="136" type="curve" smooth="yes"/>
      <point x="188" y="92"/>
      <point x="236" y="64"/>
      <point x="300" y="64" type="curve" smooth="yes"/>
      <point x="364" y="64"/>
      <point x="412" y="92"/>
      <point x="436" y="136" type="curve" smooth="yes"/>
      <point x="461" y="182"/>
      <point x="461" y="237"/>
      <point x="461" y="333" type="curve" smooth="yes"/>
      <point x="461" y="429"/>
      <point x="461" y="484"/>
      <point x="436" y="530" type="curve" smooth="yes"/>
      <point x="412" y="574"/>
      <point x="364" y="602"/>
      <point x="300" y="602" type="curve" smooth="yes"/>
      <point x="236" y="602"/>
      <point x="188" y="574"/>
      <point x="164" y="530" type="curve" smooth="yes"/>
      <point x="139" y="484"/>
      <point x="139" y="429"/>
    </contour>
    <contour>
      <point x="65" y="333" type="curve" smooth="yes"/>
      <point x="65" y="439"/>
      <point x="65" y="500"/>
      <point x="97" y="560" type="curve" smooth="yes"/>
      <point x="134" y="629"/>
      <point x="207" y="672"/>
      <point x="300" y="672" type="curve" smooth="yes"/>
      <point x="393" y="672"/>
      <point x="466" y="629"/>
      <point x="503" y="560" type="curve" smooth="yes"/>
      <point x="535" y="500"/>
      <point x="535" y="439"/>
      <point x="535" y="333" type="curve" smooth="yes"/>
      <point x="535" y="227"/>
      <point x="535" y="166"/>
      <point x="503" y="106" type="curve" smooth="yes"/>
      <point x="466" y="37"/>
      <point x="393" y="-6"/>
      <point x="300" y="-6" type="curve" smooth="yes"/>
      <point x="207" y="-6"/>
      <point x="134" y="37"/>
      <point x="97" y="106" type="curve" smooth="yes"/>
      <point x="65" y="166"/>
      <point x="65" y="227"/>
    </contour>
  </outline>
</glyph>
<glyph name="P" format="1">
  <advance width="515"/>
  <unicode hex="0050"/>
  <outline>
    <contour>
      <point x="184" y="666" type="line" smooth="yes"/>
      <point x="263" y="666"/>
      <point x="337" y="666"/>
      <point x="398" y="611" type="curve" smooth="yes"/>
      <point x="447" y="567"/>
      <point x="465" y="504"/>
      <point x="465" y="451" type="curve" smooth="yes"/>
      <point x="465" y="398"/>
      <point x="447" y="335"/>
      <point x="398" y="291" type="curve" smooth="yes"/>
      <point x="337" y="236"/>
      <point x="263" y="236"/>
      <point x="184" y="236" type="curve" smooth="yes"/>
      <point x="149" y="236" type="line"/>
      <point x="149" y="0" type="line"/>
      <point x="75" y="0" type="line"/>
      <point x="75" y="666" type="line"/>
    </contour>
    <contour>
      <point x="184" y="596" type="curve" smooth="yes"/>
      <point x="149" y="596" type="line"/>
      <point x="149" y="306" type="line"/>
      <point x="184" y="306" type="line" smooth="yes"/>
      <point x="258" y="306"/>
      <point x="307" y="306"/>
      <point x="346" y="341" type="curve" smooth="yes"/>
      <point x="373" y="365"/>
      <point x="391" y="403"/>
      <point x="391" y="451" type="curve" smooth="yes"/>
      <point x="391" y="499"/>
      <point x="373" y="537"/>
      <point x="346" y="561" type="curve" smooth="yes"/>
      <point x="307" y="596"/>
      <point x="258" y="596"/>
    </contour>
  </outline>
</glyph>
<glyph name="R" format="1">
  <advance width="550"/>
  <unicode hex="0052"/>
  <outline>
    <contour>
      <point x="0" y="0" type="move" name="DoubleTop"/>
    </contour>
    <contour>
      <point x="0" y="0" type="move" name="Apos"/>
    </contour>
    <contour>
      <point x="-5" y="0" type="move" name="Center"/>
    </contour>
    <contour>
      <point x="277" y="0" type="move" name="Bottom"/>
    </contour>
    <contour>
      <point x="255" y="666" type="move" name="Top"/>
    </contour>
    <contour>
      <point x="149" y="596" type="line"/>
      <point x="149" y="326" type="line"/>
      <point x="203" y="326" type="line" smooth="yes"/>
      <point x="278" y="326"/>
      <point x="324" y="326"/>
      <point x="362" y="361" type="curve" smooth="yes"/>
      <point x="388" y="385"/>
      <point x="401" y="423"/>
      <point x="401" y="461" type="curve" smooth="yes"/>
      <point x="401" y="499"/>
      <point x="388" y="537"/>
      <point x="362" y="561" type="curve" smooth="yes"/>
      <point x="324" y="596"/>
      <point x="278" y="596"/>
      <point x="203" y="596" type="curve" smooth="yes"/>
    </contour>
    <contour>
      <point x="75" y="666" type="line"/>
      <point x="203" y="666" type="line" smooth="yes"/>
      <point x="282" y="666"/>
      <point x="355" y="666"/>
      <point x="414" y="611" type="curve" smooth="yes"/>
      <point x="451" y="576"/>
      <point x="475" y="524"/>
      <point x="475" y="461" type="curve" smooth="yes"/>
      <point x="475" y="374"/>
      <point x="429" y="308"/>
      <point x="367" y="279" type="curve"/>
      <point x="485" y="0" type="line"/>
      <point x="405" y="0" type="line"/>
      <point x="297" y="259" type="line"/>
      <point x="275" y="256"/>
      <point x="253" y="256"/>
      <point x="203" y="256" type="curve" smooth="yes"/>
      <point x="149" y="256" type="line"/>
      <point x="149" y="-1" type="line"/>
      <point x="75" y="-1" type="line"/>
    </contour>
  </outline>
</glyph>
<glyph name="S" format="1">
  <advance width="510"/>
  <unicode hex="0053"/>
  <outline>
    <contour>
      <point x="-6" y="0" type="move" name="DoubleTop"/>
    </contour>
    <contour>
      <point x="-6" y="0" type="move" name="Apos"/>
    </contour>
    <contour>
      <point x="-6" y="0" type="move" name="Center"/>
    </contour>
    <contour>
      <point x="247" y="0" type="move" name="Bottom"/>
    </contour>
    <contour>
      <point x="247" y="666" type="move" name="Top"/>
    </contour>
    <contour>
      <point x="247" y="672" type="curve" smooth="yes"/>
      <point x="313" y="672"/>
      <point x="380" y="651"/>
      <point x="427" y="616" type="curve"/>
      <point x="389" y="556" type="line"/>
      <point x="353" y="585"/>
      <point x="300" y="602"/>
      <point x="247" y="602" type="curve" smooth="yes"/>
      <point x="158" y="602"/>
      <point x="123" y="551"/>
      <point x="123" y="503" type="curve" smooth="yes"/>
      <point x="123" y="473"/>
      <point x="138" y="444"/>
      <point x="163" y="424" type="curve" smooth="yes"/>
      <point x="187" y="404"/>
      <point x="226" y="392"/>
      <point x="259" y="382" type="curve" smooth="yes"/>
      <point x="303" y="369"/>
      <point x="352" y="355"/>
      <point x="394" y="319" type="curve" smooth="yes"/>
      <point x="429" y="289"/>
      <point x="460" y="238"/>
      <point x="460" y="180" type="curve" smooth="yes"/>
      <point x="460" y="89"/>
      <point x="390" y="-6"/>
      <point x="247" y="-6" type="curve" smooth="yes"/>
      <point x="177" y="-6"/>
      <point x="106" y="16"/>
      <point x="48" y="62" type="curve"/>
      <point x="90" y="119" type="line"/>
      <point x="136" y="81"/>
      <point x="191" y="64"/>
      <point x="247" y="64" type="curve" smooth="yes"/>
      <point x="348" y="64"/>
      <point x="386" y="126"/>
      <point x="386" y="180" type="curve" smooth="yes"/>
      <point x="386" y="211"/>
      <point x="370" y="246"/>
      <point x="342" y="269" type="curve" smooth="yes"/>
      <point x="315" y="292"/>
      <point x="274" y="304"/>
      <point x="228" y="318" type="curve" smooth="yes"/>
      <point x="191" y="329"/>
      <point x="152" y="340"/>
      <point x="111" y="374" type="curve" smooth="yes"/>
      <point x="77" y="402"/>
      <point x="49" y="450"/>
      <point x="49" y="501" type="curve" smooth="yes"/>
      <point x="49" y="596"/>
      <point x="123" y="672"/>
    </contour>
  </outline>
</glyph>
<glyph name="T" format="1">
  <advance width="560"/>
  <unicode hex="0054"/>
  <outline>
    <contour>
      <point x="0" y="0" type="move" name="DoubleTop"/>
    </contour>
    <contour>
      <point x="0" y="0" type="move" name="Apos"/>
    </contour>
    <contour>
      <point x="35" y="0" type="move" name="Center"/>
    </contour>
    <contour>
      <point x="280" y="0" type="move" name="Bottom"/>
    </contour>
    <contour>
      <point x="280" y="666" type="move" name="Top"/>
    </contour>
    <contour>
      <point x="55" y="666" type="line"/>
      <point x="505" y="666" type="line"/>
      <point x="505" y="596" type="line"/>
      <point x="317" y="596" type="line"/>
      <point x="317" y="0" type="line"/>
      <point x="243" y="0" type="line"/>
      <point x="243" y="596" type="line"/>
      <point x="55" y="596" type="line"/>
    </contour>
  </outline>
</glyph>
<glyph name="U" format="1">
  <advance width="570"/>
  <unicode hex="0055"/>
  <outline>
    <contour>
      <point x="0" y="0" type="move" name="DoubleTop"/>
    </contour>
    <contour>
      <point x="0" y="0" type="move" name="Apos"/>
    </contour>
    <contour>
      <point x="0" y="0" type="move" name="Center"/>
    </contour>
    <contour>
      <point x="283" y="0" type="move" name="Bottom"/>
    </contour>
    <contour>
      <point x="285" y="666" type="move" name="Top"/>
    </contour>
    <contour>
      <point x="70" y="666" type="line"/>
      <point x="144" y="666" type="line"/>
      <point x="144" y="289" type="line" smooth="yes"/>
      <point x="144" y="201"/>
      <point x="144" y="147"/>
      <point x="183" y="104" type="curve" smooth="yes"/>
      <point x="205" y="80"/>
      <point x="241" y="64"/>
      <point x="285" y="64" type="curve" smooth="yes"/>
      <point x="329" y="64"/>
      <point x="365" y="80"/>
      <point x="387" y="104" type="curve" smooth="yes"/>
      <point x="426" y="147"/>
      <point x="426" y="201"/>
      <point x="426" y="289" type="curve" smooth="yes"/>
      <point x="426" y="666" type="line"/>
      <point x="500" y="666" type="line"/>
      <point x="500" y="289" type="line" smooth="yes"/>
      <point x="500" y="203"/>
      <point x="500" y="118"/>
      <point x="443" y="58" type="curve" smooth="yes"/>
      <point x="407" y="20"/>
      <point x="353" y="-6"/>
      <point x="285" y="-6" type="curve" smooth="yes"/>
      <point x="217" y="-6"/>
      <point x="163" y="20"/>
      <point x="127" y="58" type="curve" smooth="yes"/>
      <point x="70" y="118"/>
      <point x="70" y="203"/>
      <point x="70" y="289" type="curve" smooth="yes"/>
    </contour>
  </outline>
</glyph>
<glyph name="V" format="1">
  <advance width="548"/>
  <unicode hex="0056"/>
  <outline>
    <contour>
      <point x="309" y="0" type="line"/>
      <point x="239" y="0" type="line"/>
      <point x="25" y="666" type="line"/>
      <point x="102" y="666" type="line"/>
      <point x="274" y="106" type="line"/>
      <point x="446" y="666" type="line"/>
      <point x="523" y="666" type="line"/>
    </contour>
  </outline>
</glyph>
<glyph name="W" format="1">
  <advance width="800"/>
  <unicode hex="0057"/>
  <outline>
    <contour>
      <point x="0" y="0" type="move" name="DoubleTop"/>
    </contour>
    <contour>
      <point x="0" y="0" type="move" name="Apos"/>
    </contour>
    <contour>
      <point x="10" y="0" type="move" name="Bottom"/>
    </contour>
    <contour>
      <point x="10" y="0" type="move" name="Center"/>
    </contour>
    <contour>
      <point x="400" y="666" type="move" name="Top"/>
    </contour>
    <contour>
      <point x="35" y="666" type="line"/>
      <point x="110" y="666" type="line"/>
      <point x="244" y="107" type="line"/>
      <point x="368" y="501" type="line"/>
      <point x="432" y="501" type="line"/>
      <point x="556" y="108" type="line"/>
      <point x="690" y="666" type="line"/>
      <point x="765" y="666" type="line"/>
      <point x="591" y="0" type="line"/>
      <point x="525" y="0" type="line"/>
      <point x="400" y="389" type="line"/>
      <point x="275" y="0" type="line"/>
      <point x="209" y="0" type="line"/>
    </contour>
  </outline>
</glyph>
<glyph name="X" format="1">
  <advance width="570"/>
  <unicode hex="0058"/>
  <outline>
    <contour>
      <point x="50" y="666" type="line"/>
      <point x="132" y="666" type="line"/>
      <point x="285" y="396" type="line"/>
      <point x="438" y="666" type="line"/>
      <point x="520" y="666" type="line"/>
      <point x="332" y="338" type="line"/>
      <point x="525" y="0" type="line"/>
      <point x="443" y="0" type="line"/>
      <point x="285" y="280" type="line"/>
      <point x="127" y="0" type="line"/>
      <point x="45" y="0" type="line"/>
      <point x="238" y="338" type="line"/>
    </contour>
  </outline>
</glyph>
<glyph name="Y" format="1">
  <advance width="510"/>
  <unicode hex="0059"/>
  <outline>
    <contour>
      <point x="-15" y="0" type="move" name="DoubleTop"/>
    </contour>
    <contour>
      <point x="-15" y="0" type="move" name="Apos"/>
    </contour>
    <contour>
      <point x="-5" y="0" type="move" name="Bottom"/>
    </contour>
    <contour>
      <point x="-5" y="0" type="move" name="Center"/>
    </contour>
    <contour>
      <point x="255" y="666" type="move" name="Top"/>
    </contour>
    <contour>
      <point x="20" y="666" type="line"/>
      <point x="101" y="666" type="line"/>
      <point x="255" y="331" type="line"/>
      <point x="409" y="666" type="line"/>
      <point x="490" y="666" type="line"/>
      <point x="292" y="250" type="line"/>
      <point x="292" y="0" type="line"/>
      <point x="218" y="0" type="line"/>
      <point x="218" y="250" type="line"/>
    </contour>
  </outline>
</glyph>
<glyph name="Z" format="1">
  <advance width="540"/>
  <unicode hex="005A"/>
  <outline>
    <contour>
      <point x="0" y="0" type="move" name="DoubleTop"/>
    </contour>
    <contour>
      <point x="0" y="0" type="move" name="Apos"/>
    </contour>
    <contour>
      <point x="5" y="0" type="move" name="Center"/>
    </contour>
    <contour>
      <point x="270" y="0" type="move" name="Bottom"/>
    </contour>
    <contour>
      <point x="270" y="666" type="move" name="Top"/>
    </contour>
    <contour>
      <point x="70" y="666" type="line"/>
      <point x="470" y="666" type="line"/>
      <point x="470" y="616" type="line"/>
      <point x="147" y="70" type="line"/>
      <point x="480" y="70" type="line"/>
      <point x="480" y="0" type="line"/>
      <point x="60" y="0" type="line"/>
      <point x="60" y="50" type="line"/>
      <point x="382" y="596" type="line"/>
      <point x="70" y="596" type="line"/>
    </contour>
  </outline>
</glyph>
<glyph name="backslash" format="1">
  <advance width="342"/>
  <unicode hex="005C"/>
  <outline>
    <contour>
      <point x="20" y="740" type="line"/>
      <point x="82" y="740" type="line"/>
      <point x="322" y="-144" type="line"/>
      <point x="260" y="-144" type="line"/>
    </contour>
  </outline>
</glyph>
<glyph name="underscore" format="1">
  <advance width="440"/>
  <unicode hex="005F"/>
  <outline>
    <contour>
      <point x="35" y="0" type="line"/>
      <point x="405" y="0" type="line"/>
      <point x="405" y="-58" type="line"/>
      <point x="35" y="-58" type="line"/>
    </contour>
  </outline>
</glyph>
<glyph name="a" format="1">
  <advance width="463"/>
  <unicode hex="0061"/>
  <outline>
    <contour>
      <point x="-5" y="0" type="move" name="DoubleTop"/>
    </contour>
    <contour>
      <point x="-5" y="0" type="move" name="Apos"/>
    </contour>
    <contour>
      <point x="-5" y="0" type="move" name="Center"/>
    </contour>
    <contour>
      <point x="365" y="0" type="move" name="Bottom"/>
    </contour>
    <contour>
      <point x="223" y="478" type="move" name="Top"/>
    </contour>
    <contour>
      <point x="120" y="143" type="curve" smooth="yes"/>
      <point x="120" y="120"/>
      <point x="132" y="96"/>
      <point x="150" y="81" type="curve" smooth="yes"/>
      <point x="168" y="66"/>
      <point x="194" y="60"/>
      <point x="216" y="60" type="curve" smooth="yes"/>
      <point x="259" y="60"/>
      <point x="293" y="80"/>
      <point x="311" y="107" type="curve" smooth="yes"/>
      <point x="333" y="140"/>
      <point x="333" y="179"/>
      <point x="333" y="220" type="curve" smooth="yes"/>
      <point x="333" y="229" type="line"/>
      <point x="251" y="229" type="line" smooth="yes"/>
      <point x="217" y="229"/>
      <point x="181" y="229"/>
      <point x="153" y="209" type="curve" smooth="yes"/>
      <point x="135" y="196"/>
      <point x="120" y="173"/>
    </contour>
    <contour>
      <point x="309" y="389" type="curve" smooth="yes"/>
      <point x="292" y="408"/>
      <point x="266" y="418"/>
      <point x="228" y="418" type="curve" smooth="yes"/>
      <point x="184" y="418"/>
      <point x="140" y="408"/>
      <point x="98" y="392" type="curve"/>
      <point x="76" y="455" type="line"/>
      <point x="123" y="472"/>
      <point x="174" y="484"/>
      <point x="228" y="484" type="curve" smooth="yes"/>
      <point x="288" y="484"/>
      <point x="333" y="465"/>
      <point x="363" y="431" type="curve" smooth="yes"/>
      <point x="403" y="386"/>
      <point x="403" y="327"/>
      <point x="403" y="284" type="curve" smooth="yes"/>
      <point x="403" y="0" type="line"/>
      <point x="333" y="0" type="line"/>
      <point x="333" y="32" type="line"/>
      <point x="305" y="10"/>
      <point x="263" y="-6"/>
      <point x="216" y="-6" type="curve" smooth="yes"/>
      <point x="180" y="-6"/>
      <point x="141" y="3"/>
      <point x="108" y="28" type="curve" smooth="yes"/>
      <point x="75" y="53"/>
      <point x="50" y="95"/>
      <point x="50" y="143" type="curve" smooth="yes"/>
      <point x="50" y="195"/>
      <point x="77" y="234"/>
      <point x="109" y="257" type="curve" smooth="yes"/>
      <point x="156" y="291"/>
      <point x="212" y="291"/>
      <point x="251" y="291" type="curve" smooth="yes"/>
      <point x="333" y="291" type="line"/>
      <point x="333" y="322"/>
      <point x="333" y="362"/>
    </contour>
  </outline>
</glyph>
<glyph name="c" format="1">
  <advance width="435"/>
  <unicode hex="0063"/>
  <outline>
    <contour>
      <point x="0" y="0" type="move" name="DoubleTop"/>
    </contour>
    <contour>
      <point x="0" y="0" type="move" name="Apos"/>
    </contour>
    <contour>
      <point x="5" y="0" type="move" name="Center"/>
    </contour>
    <contour>
      <point x="245" y="0" type="move" name="Bottom"/>
    </contour>
    <contour>
      <point x="245" y="478" type="move" name="Top"/>
    </contour>
    <contour>
      <point x="358" y="96" type="curve"/>
      <point x="395" y="40" type="line"/>
      <point x="351" y="10"/>
      <point x="298" y="-6"/>
      <point x="245" y="-6" type="curve" smooth="yes"/>
      <point x="181" y="-6"/>
      <point x="134.062" y="18.0551"/>
      <point x="103" y="53" type="curve" smooth="yes"/>
      <point x="55" y="107"/>
      <point x="55" y="183"/>
      <point x="55" y="243" type="curve" smooth="yes"/>
      <point x="55" y="296"/>
      <point x="55" y="369"/>
      <point x="102" y="424" type="curve" smooth="yes"/>
      <point x="133" y="460"/>
      <point x="183" y="484"/>
      <point x="245" y="484" type="curve" smooth="yes"/>
      <point x="296" y="484"/>
      <point x="347" y="469"/>
      <point x="388" y="443" type="curve"/>
      <point x="354" y="385" type="line"/>
      <point x="322" y="406"/>
      <point x="283" y="418"/>
      <point x="245" y="418" type="curve" smooth="yes"/>
      <point x="205" y="418"/>
      <point x="176" y="405"/>
      <point x="156" y="382" type="curve" smooth="yes"/>
      <point x="125" y="346"/>
      <point x="125" y="286"/>
      <point x="125" y="243" type="curve" smooth="yes"/>
      <point x="125" y="191"/>
      <point x="125" y="132"/>
      <point x="157" y="95" type="curve" smooth="yes"/>
      <point x="176.015" y="73.0134"/>
      <point x="206" y="60"/>
      <point x="245" y="60" type="curve" smooth="yes"/>
      <point x="285" y="60"/>
      <point x="325" y="73"/>
    </contour>
  </outline>
</glyph>
<glyph name="e" format="1">
  <advance width="457"/>
  <unicode hex="0065"/>
  <outline>
    <contour>
      <point x="-14.9814" y="0" type="move" name="DoubleTop"/>
    </contour>
    <contour>
      <point x="-14.9814" y="0" type="move" name="Apos"/>
    </contour>
    <contour>
      <point x="-9.98145" y="0" type="move" name="Center"/>
    </contour>
    <contour>
      <point x="235.019" y="0" type="move" name="Bottom"/>
    </contour>
    <contour>
      <point x="230.019" y="478" type="move" name="Top"/>
    </contour>
    <contour>
      <point x="344" y="281" type="line"/>
      <point x="344" y="321"/>
      <point x="336" y="358"/>
      <point x="315" y="383" type="curve" smooth="yes"/>
      <point x="295" y="407"/>
      <point x="262" y="418"/>
      <point x="230" y="418" type="curve" smooth="yes"/>
      <point x="198" y="418"/>
      <point x="165" y="407"/>
      <point x="145" y="383" type="curve" smooth="yes"/>
      <point x="124" y="358"/>
      <point x="116" y="321"/>
      <point x="116" y="281" type="curve"/>
    </contour>
    <contour>
      <point x="415" y="219" type="line"/>
      <point x="115" y="219" type="line"/>
      <point x="115" y="190"/>
      <point x="115" y="130"/>
      <point x="145" y="96" type="curve" smooth="yes"/>
      <point x="166" y="72"/>
      <point x="198" y="60"/>
      <point x="240" y="60" type="curve" smooth="yes"/>
      <point x="283" y="60"/>
      <point x="323" y="69"/>
      <point x="359" y="88" type="curve"/>
      <point x="388" y="28" type="line"/>
      <point x="342" y="5"/>
      <point x="292" y="-6"/>
      <point x="240" y="-6" type="curve" smooth="yes"/>
      <point x="175" y="-6"/>
      <point x="124" y="16"/>
      <point x="91" y="54" type="curve" smooth="yes"/>
      <point x="45" y="107"/>
      <point x="45" y="179"/>
      <point x="45" y="239" type="curve" smooth="yes"/>
      <point x="45" y="303"/>
      <point x="45" y="371"/>
      <point x="91" y="425" type="curve" smooth="yes"/>
      <point x="121" y="460"/>
      <point x="171" y="484"/>
      <point x="230" y="484" type="curve" smooth="yes"/>
      <point x="289" y="484"/>
      <point x="339" y="460"/>
      <point x="369" y="425" type="curve" smooth="yes"/>
      <point x="411" y="375"/>
      <point x="415" y="315"/>
      <point x="415" y="239" type="curve" smooth="yes"/>
    </contour>
  </outline>
</glyph>
<glyph name="f" format="1">
  <advance width="352"/>
  <unicode hex="0066"/>
  <outline>
    <contour>
      <point x="115" y="486" type="line" smooth="yes"/>
      <point x="115" y="543"/>
      <point x="115" y="581"/>
      <point x="138" y="616" type="curve" smooth="yes"/>
      <point x="160" y="649"/>
      <point x="199" y="672"/>
      <point x="248" y="672" type="curve" smooth="yes"/>
      <point x="276" y="672"/>
      <point x="300" y="666"/>
      <point x="322" y="659" type="curve"/>
      <point x="304" y="596" type="line"/>
      <point x="283" y="602"/>
      <point x="265" y="606"/>
      <point x="248" y="606" type="curve" smooth="yes"/>
      <point x="225" y="606"/>
      <point x="209" y="597"/>
      <point x="199" y="583" type="curve" smooth="yes"/>
      <point x="185" y="563"/>
      <point x="185" y="541"/>
      <point x="185" y="478" type="curve"/>
      <point x="295" y="478" type="line"/>
      <point x="295" y="416" type="line"/>
      <point x="185" y="416" type="line"/>
      <point x="185" y="0" type="line"/>
      <point x="115" y="0" type="line"/>
      <point x="115" y="416" type="line"/>
      <point x="35" y="416" type="line"/>
      <point x="35" y="478" type="line"/>
      <point x="115" y="478" type="line"/>
    </contour>
  </outline>
</glyph>
<glyph name="g" format="1">
  <advance width="480"/>
  <unicode hex="0067"/>
  <outline>
    <contour>
      <point x="-10" y="0" type="move" name="DoubleTop"/>
    </contour>
    <contour>
      <point x="-10" y="0" type="move" name="Apos"/>
    </contour>
    <contour>
      <point x="-10" y="0" type="move" name="Center"/>
    </contour>
    <contour>
      <point x="225" y="-185" type="move" name="Bottom"/>
    </contour>
    <contour>
      <point x="225" y="478" type="move" name="Top"/>
    </contour>
    <contour>
      <point x="345" y="45" type="curve" smooth="yes"/>
      <point x="345" y="51" type="line"/>
      <point x="312" y="6"/>
      <point x="264" y="-6"/>
      <point x="225" y="-6" type="curve" smooth="yes"/>
      <point x="167" y="-6"/>
      <point x="111" y="19"/>
      <point x="79" y="68" type="curve" smooth="yes"/>
      <point x="45" y="120"/>
      <point x="45" y="184"/>
      <point x="45" y="239" type="curve" smooth="yes"/>
      <point x="45" y="294"/>
      <point x="45" y="358"/>
      <point x="79" y="410" type="curve" smooth="yes"/>
      <point x="111" y="459"/>
      <point x="167" y="484"/>
      <point x="225" y="484" type="curve" smooth="yes"/>
      <point x="264" y="484"/>
      <point x="312" y="472"/>
      <point x="345" y="427" type="curve"/>
      <point x="345" y="478" type="line"/>
      <point x="415" y="478" type="line"/>
      <point x="415" y="45" type="line" smooth="yes"/>
      <point x="415" y="-26"/>
      <point x="415" y="-81"/>
      <point x="369" y="-131" type="curve" smooth="yes"/>
      <point x="337" y="-166"/>
      <point x="286" y="-189"/>
      <point x="220" y="-189" type="curve" smooth="yes"/>
      <point x="171" y="-189"/>
      <point x="118" y="-177"/>
      <point x="74" y="-153" type="curve"/>
      <point x="103" y="-93" type="line"/>
      <point x="136" y="-111"/>
      <point x="178" y="-123"/>
      <point x="220" y="-123" type="curve" smooth="yes"/>
      <point x="269" y="-123"/>
      <point x="302" y="-106"/>
      <point x="321" y="-82" type="curve" smooth="yes"/>
      <point x="345" y="-52"/>
      <point x="345" y="-16"/>
    </contour>
    <contour>
      <point x="230" y="418" type="curve" smooth="yes"/>
      <point x="207" y="418"/>
      <point x="171" y="412"/>
      <point x="147" y="385" type="curve" smooth="yes"/>
      <point x="115" y="349"/>
      <point x="115" y="295"/>
      <point x="115" y="239" type="curve" smooth="yes"/>
      <point x="115" y="183"/>
      <point x="115" y="129"/>
      <point x="147" y="93" type="curve" smooth="yes"/>
      <point x="171" y="66"/>
      <point x="207" y="60"/>
      <point x="230" y="60" type="curve" smooth="yes"/>
      <point x="253" y="60"/>
      <point x="289" y="66"/>
      <point x="313" y="93" type="curve" smooth="yes"/>
      <point x="345" y="129"/>
      <point x="345" y="183"/>
      <point x="345" y="239" type="curve" smooth="yes"/>
      <point x="345" y="295"/>
      <point x="345" y="349"/>
      <point x="313" y="385" type="curve" smooth="yes"/>
      <point x="289" y="412"/>
      <point x="253" y="418"/>
    </contour>
  </outline>
</glyph>
<glyph name="h" format="1">
  <advance width="485"/>
  <unicode hex="0068"/>
  <outline>
    <contour>
      <point x="0" y="0" type="move" name="DoubleTop"/>
    </contour>
    <contour>
      <point x="0" y="0" type="move" name="Apos"/>
    </contour>
    <contour>
      <point x="-10" y="0" type="move" name="Center"/>
    </contour>
    <contour>
      <point x="245" y="0" type="move" name="Bottom"/>
    </contour>
    <contour>
      <point x="100" y="666" type="move" name="Top"/>
    </contour>
    <contour>
      <point x="250" y="484" type="curve" smooth="yes"/>
      <point x="301" y="484"/>
      <point x="351" y="464"/>
      <point x="383" y="425" type="curve" smooth="yes"/>
      <point x="425" y="374"/>
      <point x="425" y="320"/>
      <point x="425" y="246" type="curve" smooth="yes"/>
      <point x="425" y="0" type="line"/>
      <point x="355" y="0" type="line"/>
      <point x="355" y="246" type="line" smooth="yes"/>
      <point x="355" y="313"/>
      <point x="355" y="352"/>
      <point x="327" y="384" type="curve" smooth="yes"/>
      <point x="307" y="407"/>
      <point x="277" y="418"/>
      <point x="245" y="418" type="curve" smooth="yes"/>
      <point x="213" y="418"/>
      <point x="183" y="407"/>
      <point x="163" y="384" type="curve" smooth="yes"/>
      <point x="135" y="352"/>
      <point x="135" y="313"/>
      <point x="135" y="246" type="curve" smooth="yes"/>
      <point x="135" y="0" type="line"/>
      <point x="65" y="0" type="line"/>
      <point x="65" y="666" type="line"/>
      <point x="135" y="666" type="line"/>
      <point x="135" y="430" type="line"/>
      <point x="164" y="466"/>
      <point x="208" y="484"/>
    </contour>
  </outline>
</glyph>
<glyph name="i" format="1">
  <advance width="200"/>
  <unicode hex="0069"/>
  <outline>
    <contour>
      <point x="13" y="23" type="move" name="Top"/>
    </contour>
    <contour>
      <point x="97" y="0" type="move" name="Bottom"/>
    </contour>
    <contour>
      <point x="-6" y="0" type="move" name="Center"/>
    </contour>
    <contour>
      <point x="-6" y="0" type="move" name="Apos"/>
    </contour>
    <contour>
      <point x="-6" y="0" type="move" name="DoubleTop"/>
    </contour>
    <contour>
      <point x="100" y="644" type="curve" smooth="yes"/>
      <point x="127" y="644"/>
      <point x="147" y="625"/>
      <point x="147" y="597" type="curve" smooth="yes"/>
      <point x="147" y="569"/>
      <point x="127" y="550"/>
      <point x="100" y="550" type="curve" smooth="yes"/>
      <point x="73" y="550"/>
      <point x="53" y="569"/>
      <point x="53" y="597" type="curve" smooth="yes"/>
      <point x="53" y="625"/>
      <point x="73" y="644"/>
    </contour>
    <contour>
      <point x="65" y="0" type="line"/>
      <point x="65" y="478" type="line"/>
      <point x="135" y="478" type="line"/>
      <point x="135" y="0" type="line"/>
    </contour>
  </outline>
</glyph>
<glyph name="j" format="1">
  <advance width="210"/>
  <unicode hex="006A"/>
  <outline>
    <contour>
      <point x="140" y="-24" type="line" smooth="yes"/>
      <point x="140" y="-78"/>
      <point x="140" y="-113"/>
      <point x="114" y="-146" type="curve" smooth="yes"/>
      <point x="94" y="-171"/>
      <point x="62" y="-189"/>
      <point x="19" y="-189" type="curve" smooth="yes"/>
      <point x="-7" y="-189"/>
      <point x="-31" y="-182"/>
      <point x="-51" y="-173" type="curve"/>
      <point x="-24" y="-112" type="line"/>
      <point x="-10" y="-119"/>
      <point x="6" y="-123"/>
      <point x="19" y="-123" type="curve" smooth="yes"/>
      <point x="35" y="-123"/>
      <point x="50" y="-118"/>
      <point x="60" y="-104" type="curve" smooth="yes"/>
      <point x="70" y="-90"/>
      <point x="70" y="-72"/>
      <point x="70" y="-14" type="curve" smooth="yes"/>
      <point x="70" y="478" type="line"/>
      <point x="140" y="478" type="line"/>
    </contour>
    <contour>
      <point x="105" y="644" type="curve" smooth="yes"/>
      <point x="132" y="644"/>
      <point x="152" y="625"/>
      <point x="152" y="597" type="curve" smooth="yes"/>
      <point x="152" y="569"/>
      <point x="132" y="550"/>
      <point x="105" y="550" type="curve" smooth="yes"/>
      <point x="78" y="550"/>
      <point x="58" y="569"/>
      <point x="58" y="597" type="curve" smooth="yes"/>
      <point x="58" y="625"/>
      <point x="78" y="644"/>
    </contour>
  </outline>
</glyph>
<glyph name="k" format="1">
  <advance width="454"/>
  <unicode hex="006B"/>
  <outline>
    <contour>
      <point x="0" y="0" type="move" name="DoubleTop"/>
    </contour>
    <contour>
      <point x="0" y="0" type="move" name="Apos"/>
    </contour>
    <contour>
      <point x="-8" y="0" type="move" name="Top"/>
    </contour>
    <contour>
      <point x="-8" y="0" type="move" name="Center"/>
    </contour>
    <contour>
      <point x="229" y="0" type="move" name="Bottom"/>
    </contour>
    <contour>
      <point x="65" y="666" type="line"/>
      <point x="135" y="666" type="line"/>
      <point x="135" y="229" type="line"/>
      <point x="322" y="478" type="line"/>
      <point x="404" y="478" type="line"/>
      <point x="237" y="261" type="line"/>
      <point x="419" y="0" type="line"/>
      <point x="338" y="0" type="line"/>
      <point x="191" y="213" type="line"/>
      <point x="135" y="138" type="line"/>
      <point x="135" y="0" type="line"/>
      <point x="65" y="0" type="line"/>
    </contour>
  </outline>
</glyph>
<glyph name="l" format="1">
  <advance width="200"/>
  <unicode hex="006C"/>
  <outline>
    <contour>
      <point x="0" y="0" type="move" name="DoubleTop"/>
    </contour>
    <contour>
      <point x="136" y="334" type="move" name="Center"/>
    </contour>
    <contour>
      <point x="199" y="667" type="move" name="Apos"/>
    </contour>
    <contour>
      <point x="100" y="0" type="move" name="Bottom"/>
    </contour>
    <contour>
      <point x="100" y="666" type="move" name="Top"/>
    </contour>
    <contour>
      <point x="65" y="666" type="line"/>
      <point x="135" y="666" type="line"/>
      <point x="135" y="0" type="line"/>
      <point x="65" y="0" type="line"/>
    </contour>
  </outline>
</glyph>
<glyph name="m" format="1">
  <advance width="710"/>
  <unicode hex="006D"/>
  <outline>
    <contour>
      <point x="495" y="484" type="curve" smooth="yes"/>
      <point x="542" y="484"/>
      <point x="579" y="466"/>
      <point x="606" y="441" type="curve" smooth="yes"/>
      <point x="655" y="394"/>
      <point x="655" y="330"/>
      <point x="655" y="256" type="curve" smooth="yes"/>
      <point x="655" y="0" type="line"/>
      <point x="585" y="0" type="line"/>
      <point x="585" y="256" type="line" smooth="yes"/>
      <point x="585" y="321"/>
      <point x="585" y="354"/>
      <point x="566" y="382" type="curve" smooth="yes"/>
      <point x="551" y="404"/>
      <point x="524" y="418"/>
      <point x="490" y="418" type="curve" smooth="yes"/>
      <point x="456" y="418"/>
      <point x="429" y="404"/>
      <point x="414" y="382" type="curve" smooth="yes"/>
      <point x="395" y="354"/>
      <point x="395" y="321"/>
      <point x="395" y="256" type="curve" smooth="yes"/>
      <point x="395" y="0" type="line"/>
      <point x="325" y="0" type="line"/>
      <point x="325" y="256" type="line" smooth="yes"/>
      <point x="325" y="321"/>
      <point x="325" y="354"/>
      <point x="306" y="382" type="curve" smooth="yes"/>
      <point x="291" y="404"/>
      <point x="264" y="418"/>
      <point x="230" y="418" type="curve" smooth="yes"/>
      <point x="196" y="418"/>
      <point x="169" y="404"/>
      <point x="154" y="382" type="curve" smooth="yes"/>
      <point x="135" y="354"/>
      <point x="135" y="321"/>
      <point x="135" y="256" type="curve" smooth="yes"/>
      <point x="135" y="0" type="line"/>
      <point x="65" y="0" type="line"/>
      <point x="65" y="286" type="line"/>
      <point x="65" y="478" type="line"/>
      <point x="135" y="478" type="line"/>
      <point x="135" y="437" type="line"/>
      <point x="159" y="467"/>
      <point x="195" y="484"/>
      <point x="235" y="484" type="curve" smooth="yes"/>
      <point x="297" y="484"/>
      <point x="339" y="454"/>
      <point x="364" y="409" type="curve"/>
      <point x="386" y="455"/>
      <point x="434" y="484"/>
    </contour>
  </outline>
</glyph>
<glyph name="n" format="1">
  <advance width="460"/>
  <unicode hex="006E"/>
  <outline>
    <contour>
      <point x="-0.000976562" y="0" type="move" name="DoubleTop"/>
    </contour>
    <contour>
      <point x="-0.000976562" y="0" type="move" name="Center"/>
    </contour>
    <contour>
      <point x="84.999" y="666" type="move" name="Apos"/>
    </contour>
    <contour>
      <point x="244.999" y="0" type="move" name="Bottom"/>
    </contour>
    <contour>
      <point x="244.999" y="478" type="move" name="Top"/>
    </contour>
    <contour>
      <point x="134.999" y="0" type="line"/>
      <point x="64.999" y="0" type="line"/>
      <point x="64.999" y="478" type="line"/>
      <point x="134.999" y="478" type="line"/>
    </contour>
    <contour>
      <point x="134.999" y="0" type="line"/>
      <point x="64.999" y="0" type="line"/>
      <point x="64.999" y="276" type="line" smooth="yes"/>
      <point x="64.999" y="299.632"/>
      <point x="64.7842" y="325.617"/>
      <point x="70.2686" y="352.892" type="curve" smooth="yes"/>
      <point x="75.8125" y="380.467"/>
      <point x="87.5361" y="408.347"/>
      <point x="108.352" y="431.395" type="curve" smooth="yes"/>
      <point x="124.579" y="449.363"/>
      <point x="144.973" y="462.891"/>
      <point x="167.134" y="471.567" type="curve" smooth="yes"/>
      <point x="189.095" y="480.166"/>
      <point x="212.272" y="484"/>
      <point x="234.999" y="484" type="curve" smooth="yes"/>
      <point x="257.726" y="484"/>
      <point x="280.903" y="480.166"/>
      <point x="302.864" y="471.567" type="curve" smooth="yes"/>
      <point x="325.026" y="462.891"/>
      <point x="345.419" y="449.363"/>
      <point x="361.646" y="431.395" type="curve" smooth="yes"/>
      <point x="382.455" y="408.355"/>
      <point x="394.19" y="380.443"/>
      <point x="399.729" y="352.893" type="curve" smooth="yes"/>
      <point x="405.214" y="325.618"/>
      <point x="404.999" y="299.626"/>
      <point x="404.999" y="276" type="curve" smooth="yes"/>
      <point x="404.999" y="0" type="line"/>
      <point x="334.999" y="0" type="line"/>
      <point x="334.999" y="276" type="line" smooth="yes"/>
      <point x="334.999" y="299.724"/>
      <point x="334.804" y="321.455"/>
      <point x="330.954" y="340.599" type="curve" smooth="yes"/>
      <point x="327.161" y="359.469"/>
      <point x="319.279" y="376.505"/>
      <point x="308.352" y="388.605" type="curve" smooth="yes"/>
      <point x="299.71" y="398.173"/>
      <point x="288.407" y="405.763"/>
      <point x="276.019" y="410.614" type="curve" smooth="yes"/>
      <point x="263.429" y="415.543"/>
      <point x="249.376" y="418"/>
      <point x="234.999" y="418" type="curve" smooth="yes"/>
      <point x="220.622" y="418"/>
      <point x="206.569" y="415.543"/>
      <point x="193.979" y="410.614" type="curve" smooth="yes"/>
      <point x="181.59" y="405.763"/>
      <point x="170.288" y="398.173"/>
      <point x="161.646" y="388.605" type="curve" smooth="yes"/>
      <point x="150.726" y="376.514"/>
      <point x="142.832" y="359.445"/>
      <point x="139.044" y="340.601" type="curve" smooth="yes"/>
      <point x="135.194" y="321.455"/>
      <point x="134.999" y="299.718"/>
      <point x="134.999" y="276" type="curve" smooth="yes"/>
    </contour>
  </outline>
</glyph>
<glyph name="o" format="1">
  <advance width="470"/>
  <unicode hex="006F"/>
  <outline>
    <contour>
      <point x="-10" y="0" type="move" name="DoubleTop"/>
    </contour>
    <contour>
      <point x="-10" y="0" type="move" name="Apos"/>
    </contour>
    <contour>
      <point x="-10" y="0" type="move" name="Center"/>
    </contour>
    <contour>
      <point x="235" y="0" type="move" name="Bottom"/>
    </contour>
    <contour>
      <point x="235" y="478" type="move" name="Top"/>
    </contour>
    <contour>
      <point x="235" y="418" type="curve" smooth="yes"/>
      <point x="191" y="418"/>
      <point x="157" y="400"/>
      <point x="137" y="370" type="curve" smooth="yes"/>
      <point x="115" y="337"/>
      <point x="115" y="290"/>
      <point x="115" y="239" type="curve" smooth="yes"/>
      <point x="115" y="188"/>
      <point x="115" y="141"/>
      <point x="137" y="108" type="curve" smooth="yes"/>
      <point x="157" y="78"/>
      <point x="191" y="60"/>
      <point x="235" y="60" type="curve" smooth="yes"/>
      <point x="279" y="60"/>
      <point x="313" y="78"/>
      <point x="333" y="108" type="curve" smooth="yes"/>
      <point x="355" y="141"/>
      <point x="355" y="188"/>
      <point x="355" y="239" type="curve" smooth="yes"/>
      <point x="355" y="290"/>
      <point x="355" y="337"/>
      <point x="333" y="370" type="curve" smooth="yes"/>
      <point x="313" y="400"/>
      <point x="279" y="418"/>
    </contour>
    <contour>
      <point x="235" y="484" type="curve" smooth="yes"/>
      <point x="306" y="484"/>
      <point x="364" y="452"/>
      <point x="396" y="399" type="curve" smooth="yes"/>
      <point x="425" y="351"/>
      <point x="425" y="296"/>
      <point x="425" y="239" type="curve" smooth="yes"/>
      <point x="425" y="182"/>
      <point x="425" y="127"/>
      <point x="396" y="79" type="curve" smooth="yes"/>
      <point x="364" y="26"/>
      <point x="306" y="-6"/>
      <point x="235" y="-6" type="curve" smooth="yes"/>
      <point x="164" y="-6"/>
      <point x="106" y="26"/>
      <point x="74" y="79" type="curve" smooth="yes"/>
      <point x="45" y="127"/>
      <point x="45" y="182"/>
      <point x="45" y="239" type="curve" smooth="yes"/>
      <point x="45" y="296"/>
      <point x="45" y="351"/>
      <point x="74" y="399" type="curve" smooth="yes"/>
      <point x="106" y="452"/>
      <point x="164" y="484"/>
    </contour>
  </outline>
</glyph>
<glyph name="p" format="1">
  <advance width="490"/>
  <unicode hex="0070"/>
  <outline>
    <contour>
      <point x="255" y="484" type="curve" smooth="yes"/>
      <point x="313" y="484"/>
      <point x="369" y="459"/>
      <point x="401" y="410" type="curve" smooth="yes"/>
      <point x="435" y="358"/>
      <point x="435" y="294"/>
      <point x="435" y="239" type="curve" smooth="yes"/>
      <point x="435" y="184"/>
      <point x="435" y="120"/>
      <point x="401" y="68" type="curve" smooth="yes"/>
      <point x="369" y="19"/>
      <point x="313" y="-6"/>
      <point x="255" y="-6" type="curve" smooth="yes"/>
      <point x="216" y="-6"/>
      <point x="168" y="6"/>
      <point x="135" y="51" type="curve"/>
      <point x="135" y="-183" type="line"/>
      <point x="65" y="-183" type="line"/>
      <point x="65" y="478" type="line"/>
      <point x="135" y="478" type="line"/>
      <point x="135" y="427" type="line"/>
      <point x="168" y="472"/>
      <point x="216" y="484"/>
    </contour>
    <contour>
      <point x="250" y="418" type="curve" smooth="yes"/>
      <point x="227" y="418"/>
      <point x="191" y="412"/>
      <point x="167" y="385" type="curve" smooth="yes"/>
      <point x="135" y="349"/>
      <point x="135" y="295"/>
      <point x="135" y="239" type="curve" smooth="yes"/>
      <point x="135" y="183"/>
      <point x="135" y="129"/>
      <point x="167" y="93" type="curve" smooth="yes"/>
      <point x="191" y="66"/>
      <point x="227" y="60"/>
      <point x="250" y="60" type="curve" smooth="yes"/>
      <point x="273" y="60"/>
      <point x="309" y="66"/>
      <point x="333" y="93" type="curve" smooth="yes"/>
      <point x="365" y="129"/>
      <point x="365" y="183"/>
      <point x="365" y="239" type="curve" smooth="yes"/>
      <point x="365" y="295"/>
      <point x="365" y="349"/>
      <point x="333" y="385" type="curve" smooth="yes"/>
      <point x="309" y="412"/>
      <point x="273" y="418"/>
    </contour>
  </outline>
</glyph>
<glyph name="q" format="1">
  <advance width="490"/>
  <unicode hex="0071"/>
  <outline>
    <contour>
      <point x="0" y="0" type="move" name="DoubleTop"/>
    </contour>
    <contour>
      <point x="0" y="0" type="move" name="Center"/>
    </contour>
    <contour>
      <point x="0" y="0" type="move" name="Top"/>
    </contour>
    <contour>
      <point x="488" y="666" type="move" name="Apos"/>
    </contour>
    <contour>
      <point x="230" y="0" type="move" name="Bottom"/>
    </contour>
    <contour>
      <point x="235" y="484" type="curve" smooth="yes"/>
      <point x="274" y="484"/>
      <point x="322" y="472"/>
      <point x="355" y="427" type="curve"/>
      <point x="355" y="478" type="line"/>
      <point x="425" y="478" type="line"/>
      <point x="425" y="-183" type="line"/>
      <point x="355" y="-183" type="line"/>
      <point x="355" y="51" type="line"/>
      <point x="322" y="6"/>
      <point x="274" y="-6"/>
      <point x="235" y="-6" type="curve" smooth="yes"/>
      <point x="177" y="-6"/>
      <point x="121" y="19"/>
      <point x="89" y="68" type="curve" smooth="yes"/>
      <point x="55" y="120"/>
      <point x="55" y="184"/>
      <point x="55" y="239" type="curve" smooth="yes"/>
      <point x="55" y="294"/>
      <point x="55" y="358"/>
      <point x="89" y="410" type="curve" smooth="yes"/>
      <point x="121" y="459"/>
      <point x="177" y="484"/>
    </contour>
    <contour>
      <point x="240" y="418" type="curve" smooth="yes"/>
      <point x="217" y="418"/>
      <point x="181" y="412"/>
      <point x="157" y="385" type="curve" smooth="yes"/>
      <point x="125" y="349"/>
      <point x="125" y="295"/>
      <point x="125" y="239" type="curve" smooth="yes"/>
      <point x="125" y="183"/>
      <point x="125" y="129"/>
      <point x="157" y="93" type="curve" smooth="yes"/>
      <point x="181" y="66"/>
      <point x="217" y="60"/>
      <point x="240" y="60" type="curve" smooth="yes"/>
      <point x="263" y="60"/>
      <point x="299" y="66"/>
      <point x="323" y="93" type="curve" smooth="yes"/>
      <point x="355" y="129"/>
      <point x="355" y="183"/>
      <point x="355" y="239" type="curve" smooth="yes"/>
      <point x="355" y="295"/>
      <point x="355" y="349"/>
      <point x="323" y="385" type="curve" smooth="yes"/>
      <point x="299" y="412"/>
      <point x="263" y="418"/>
    </contour>
  </outline>
</glyph>
<glyph name="r" format="1">
  <advance width="348"/>
  <unicode hex="0072"/>
  <outline>
    <contour>
      <point x="0" y="0" type="move" name="DoubleTop"/>
    </contour>
    <contour>
      <point x="0" y="0" type="move" name="Apos"/>
    </contour>
    <contour>
      <point x="0" y="0" type="move" name="Center"/>
    </contour>
    <contour>
      <point x="100" y="0" type="move" name="Bottom"/>
    </contour>
    <contour>
      <point x="200" y="478" type="move" name="Top"/>
    </contour>
    <contour>
      <point x="255" y="484" type="curve" smooth="yes"/>
      <point x="274" y="484"/>
      <point x="295" y="481"/>
      <point x="316" y="474" type="curve"/>
      <point x="298" y="410" type="line"/>
      <point x="285" y="415"/>
      <point x="270" y="418"/>
      <point x="250" y="418" type="curve" smooth="yes"/>
      <point x="212" y="418"/>
      <point x="183" y="404"/>
      <point x="165" y="383" type="curve" smooth="yes"/>
      <point x="135" y="348"/>
      <point x="135" y="293"/>
      <point x="135" y="239" type="curve" smooth="yes"/>
      <point x="135" y="0" type="line"/>
      <point x="65" y="0" type="line"/>
      <point x="65" y="478" type="line"/>
      <point x="135" y="478" type="line"/>
      <point x="135" y="428" type="line"/>
      <point x="162" y="463"/>
      <point x="206" y="484"/>
    </contour>
  </outline>
</glyph>
<glyph name="s" format="1">
  <advance width="419"/>
  <unicode hex="0073"/>
  <outline>
    <contour>
      <point x="3" y="0" type="move" name="DoubleTop"/>
    </contour>
    <contour>
      <point x="3" y="0" type="move" name="Apos"/>
    </contour>
    <contour>
      <point x="-5" y="0" type="move" name="Center"/>
    </contour>
    <contour>
      <point x="205" y="0" type="move" name="Bottom"/>
    </contour>
    <contour>
      <point x="205" y="478" type="move" name="Top"/>
    </contour>
    <contour>
      <point x="205" y="484" type="curve" smooth="yes"/>
      <point x="254" y="484"/>
      <point x="307" y="473"/>
      <point x="356" y="451" type="curve"/>
      <point x="329" y="390" type="line"/>
      <point x="290" y="408"/>
      <point x="247" y="418"/>
      <point x="205" y="418" type="curve" smooth="yes"/>
      <point x="132" y="418"/>
      <point x="111" y="380"/>
      <point x="111" y="352" type="curve" smooth="yes"/>
      <point x="111" y="333"/>
      <point x="121" y="312"/>
      <point x="142" y="299" type="curve" smooth="yes"/>
      <point x="161" y="287"/>
      <point x="184" y="282"/>
      <point x="214" y="277" type="curve" smooth="yes"/>
      <point x="260" y="269"/>
      <point x="289" y="262"/>
      <point x="321" y="240" type="curve" smooth="yes"/>
      <point x="359" y="214"/>
      <point x="379" y="172"/>
      <point x="379" y="132" type="curve" smooth="yes"/>
      <point x="379" y="67"/>
      <point x="328" y="-6"/>
      <point x="205" y="-6" type="curve" smooth="yes"/>
      <point x="151" y="-6"/>
      <point x="92" y="5"/>
      <point x="40" y="31" type="curve"/>
      <point x="69" y="91" type="line"/>
      <point x="109" y="70"/>
      <point x="157" y="60"/>
      <point x="205" y="60" type="curve" smooth="yes"/>
      <point x="295" y="60"/>
      <point x="309" y="109"/>
      <point x="309" y="132" type="curve" smooth="yes"/>
      <point x="309" y="149"/>
      <point x="302" y="169"/>
      <point x="283" y="184" type="curve" smooth="yes"/>
      <point x="266" y="197"/>
      <point x="249" y="204"/>
      <point x="202" y="212" type="curve" smooth="yes"/>
      <point x="172" y="217"/>
      <point x="140" y="223"/>
      <point x="110" y="240" type="curve" smooth="yes"/>
      <point x="67" y="265"/>
      <point x="41" y="305"/>
      <point x="41" y="352" type="curve" smooth="yes"/>
      <point x="41" y="410"/>
      <point x="87" y="484"/>
    </contour>
  </outline>
</glyph>
<glyph name="t" format="1">
  <advance width="355"/>
  <unicode hex="0074"/>
  <outline>
    <contour>
      <point x="-10" y="0" type="move" name="DoubleTop"/>
    </contour>
    <contour>
      <point x="336" y="666" type="move" name="Apos"/>
    </contour>
    <contour>
      <point x="5" y="0" type="move" name="Top"/>
    </contour>
    <contour>
      <point x="5" y="0" type="move" name="Center"/>
    </contour>
    <contour>
      <point x="231" y="0" type="move" name="Bottom"/>
    </contour>
    <contour>
      <point x="115" y="591" type="line"/>
      <point x="185" y="591" type="line"/>
      <point x="185" y="478" type="line"/>
      <point x="295" y="478" type="line"/>
      <point x="295" y="416" type="line"/>
      <point x="185" y="416" type="line"/>
      <point x="185" y="170" type="line" smooth="yes"/>
      <point x="185" y="108"/>
      <point x="185" y="93"/>
      <point x="196" y="78" type="curve" smooth="yes"/>
      <point x="204" y="67"/>
      <point x="217" y="60"/>
      <point x="236" y="60" type="curve" smooth="yes"/>
      <point x="254" y="60"/>
      <point x="275" y="67"/>
      <point x="296" y="79" type="curve"/>
      <point x="325" y="19" type="line"/>
      <point x="299" y="5"/>
      <point x="268" y="-6"/>
      <point x="236" y="-6" type="curve" smooth="yes"/>
      <point x="195" y="-6"/>
      <point x="161" y="11"/>
      <point x="140" y="38" type="curve" smooth="yes"/>
      <point x="115" y="70"/>
      <point x="115" y="106"/>
      <point x="115" y="160" type="curve" smooth="yes"/>
      <point x="115" y="416" type="line"/>
      <point x="35" y="416" type="line"/>
      <point x="35" y="478" type="line"/>
      <point x="115" y="478" type="line"/>
    </contour>
  </outline>
</glyph>
<glyph name="u" format="1">
  <advance width="460"/>
  <unicode hex="0075"/>
  <outline>
    <contour>
      <point x="0" y="0" type="move" name="DoubleTop"/>
    </contour>
    <contour>
      <point x="0" y="0" type="move" name="Apos"/>
    </contour>
    <contour>
      <point x="0" y="0" type="move" name="Center"/>
    </contour>
    <contour>
      <point x="230" y="0" type="move" name="Bottom"/>
    </contour>
    <contour>
      <point x="230" y="478" type="move" name="Top"/>
    </contour>
    <contour>
      <point x="55" y="478" type="line"/>
      <point x="125" y="478" type="line"/>
      <point x="125" y="222" type="line" smooth="yes"/>
      <point x="125" y="160"/>
      <point x="125" y="118"/>
      <point x="154" y="89" type="curve" smooth="yes"/>
      <point x="171" y="72"/>
      <point x="197" y="60"/>
      <point x="230" y="60" type="curve" smooth="yes"/>
      <point x="263" y="60"/>
      <point x="289" y="72"/>
      <point x="306" y="89" type="curve" smooth="yes"/>
      <point x="335" y="118"/>
      <point x="335" y="160"/>
      <point x="335" y="222" type="curve" smooth="yes"/>
      <point x="335" y="478" type="line"/>
      <point x="405" y="478" type="line"/>
      <point x="405" y="222" type="line" smooth="yes"/>
      <point x="405" y="152"/>
      <point x="405" y="94"/>
      <point x="358" y="45" type="curve" smooth="yes"/>
      <point x="334" y="20"/>
      <point x="291" y="-6"/>
      <point x="230" y="-6" type="curve" smooth="yes"/>
      <point x="169" y="-6"/>
      <point x="126" y="20"/>
      <point x="102" y="45" type="curve" smooth="yes"/>
      <point x="55" y="94"/>
      <point x="55" y="152"/>
      <point x="55" y="222" type="curve" smooth="yes"/>
    </contour>
  </outline>
</glyph>
<glyph name="v" format="1">
  <advance width="470"/>
  <unicode hex="0076"/>
  <outline>
    <contour>
      <point x="-5" y="0" type="move" name="DoubleTop"/>
    </contour>
    <contour>
      <point x="-5" y="0" type="move" name="Apos"/>
    </contour>
    <contour>
      <point x="-15" y="0" type="move" name="Bottom"/>
    </contour>
    <contour>
      <point x="-15" y="0" type="move" name="Center"/>
    </contour>
    <contour>
      <point x="235" y="478" type="move" name="Top"/>
    </contour>
    <contour>
      <point x="25" y="478" type="line"/>
      <point x="99" y="478" type="line"/>
      <point x="235" y="97" type="line"/>
      <point x="371" y="478" type="line"/>
      <point x="445" y="478" type="line"/>
      <point x="266" y="0" type="line"/>
      <point x="204" y="0" type="line"/>
    </contour>
  </outline>
</glyph>
<glyph name="w" format="1">
  <advance width="670"/>
  <unicode hex="0077"/>
  <outline>
    <contour>
      <point x="1" y="0" type="move" name="DoubleTop"/>
    </contour>
    <contour>
      <point x="1" y="0" type="move" name="Apos"/>
    </contour>
    <contour>
      <point x="1" y="0" type="move" name="Bottom"/>
    </contour>
    <contour>
      <point x="1" y="0" type="move" name="Center"/>
    </contour>
    <contour>
      <point x="338" y="478" type="move" name="Top"/>
    </contour>
    <contour>
      <point x="518" y="0" type="line"/>
      <point x="454" y="0" type="line"/>
      <point x="335" y="371" type="line"/>
      <point x="216" y="0" type="line"/>
      <point x="152" y="0" type="line"/>
      <point x="30" y="478" type="line"/>
      <point x="102" y="478" type="line"/>
      <point x="191" y="111" type="line"/>
      <point x="309" y="478" type="line"/>
      <point x="363" y="478" type="line"/>
      <point x="483" y="111" type="line"/>
      <point x="570" y="478" type="line"/>
      <point x="640" y="478" type="line"/>
    </contour>
  </outline>
</glyph>
<glyph name="x" format="1">
  <advance width="460"/>
  <unicode hex="0078"/>
  <outline>
    <contour>
      <point x="43" y="478" type="line"/>
      <point x="122" y="478" type="line"/>
      <point x="230" y="291" type="line"/>
      <point x="340" y="478" type="line"/>
      <point x="417" y="478" type="line"/>
      <point x="272" y="241" type="line"/>
      <point x="420" y="0" type="line"/>
      <point x="341" y="0" type="line"/>
      <point x="230" y="192" type="line"/>
      <point x="117" y="0" type="line"/>
      <point x="40" y="0" type="line"/>
      <point x="188" y="241" type="line"/>
    </contour>
  </outline>
</glyph>
<glyph name="y" format="1">
  <advance width="432"/>
  <unicode hex="0079"/>
  <outline>
    <contour>
      <point x="-36" y="0" type="move" name="DoubleTop"/>
    </contour>
    <contour>
      <point x="-36" y="0" type="move" name="Apos"/>
    </contour>
    <contour>
      <point x="204" y="478" type="move" name="Top"/>
    </contour>
    <contour>
      <point x="-46" y="0" type="move" name="Center"/>
    </contour>
    <contour>
      <point x="-46" y="0" type="move" name="Bottom"/>
    </contour>
    <contour>
      <point x="15" y="478" type="line"/>
      <point x="89" y="478" type="line"/>
      <point x="218" y="82" type="line"/>
      <point x="342" y="478" type="line"/>
      <point x="414" y="478" type="line"/>
      <point x="193" y="-183" type="line"/>
      <point x="120" y="-183" type="line"/>
      <point x="182" y="-3" type="line"/>
    </contour>
  </outline>
</glyph>
<glyph name="z" format="1">
  <advance width="440"/>
  <unicode hex="007A"/>
  <outline>
    <contour>
      <point x="0" y="0" type="move" name="DoubleTop"/>
    </contour>
    <contour>
      <point x="0" y="0" type="move" name="Apos"/>
    </contour>
    <contour>
      <point x="15" y="0" type="move" name="Center"/>
    </contour>
    <contour>
      <point x="222" y="0" type="move" name="Bottom"/>
    </contour>
    <contour>
      <point x="220" y="478" type="move" name="Top"/>
    </contour>
    <contour>
      <point x="60" y="478" type="line"/>
      <point x="380" y="478" type="line"/>
      <point x="380" y="428" type="line"/>
      <point x="146" y="66" type="line"/>
      <point x="380" y="66" type="line"/>
      <point x="380" y="0" type="line"/>
      <point x="60" y="0" type="line"/>
      <point x="60" y="50" type="line"/>
      <point x="294" y="412" type="line"/>
      <point x="60" y="412" type="line"/>
    </contour>
  </outline>
</glyph>
<glyph name="braceleft" format="1">
  <advance width="336"/>
  <unicode hex="007B"/>
  <outline>
    <contour>
      <point x="130" y="298" type="curve"/>
      <point x="156" y="277"/>
      <point x="172" y="255"/>
      <point x="185" y="226" type="curve" smooth="yes"/>
      <point x="199" y="194"/>
      <point x="205" y="160"/>
      <point x="205" y="117" type="curve" smooth="yes"/>
      <point x="205" y="80"/>
      <point x="201" y="43"/>
      <point x="201" y="6" type="curve" smooth="yes"/>
      <point x="201" y="-34"/>
      <point x="206" y="-64"/>
      <point x="224" y="-96" type="curve" smooth="yes"/>
      <point x="239" y="-123"/>
      <point x="263" y="-141"/>
      <point x="286" y="-149" type="curve"/>
      <point x="266" y="-201" type="line"/>
      <point x="225" y="-187"/>
      <point x="192" y="-158"/>
      <point x="172" y="-124" type="curve" smooth="yes"/>
      <point x="150" y="-86"/>
      <point x="141" y="-47"/>
      <point x="141" y="6" type="curve" smooth="yes"/>
      <point x="141" y="43"/>
      <point x="145" y="80"/>
      <point x="145" y="117" type="curve" smooth="yes"/>
      <point x="145" y="153"/>
      <point x="141" y="183"/>
      <point x="124" y="215" type="curve" smooth="yes"/>
      <point x="111" y="240"/>
      <point x="89" y="261"/>
      <point x="60" y="271" type="curve"/>
      <point x="60" y="325" type="line"/>
      <point x="89" y="335"/>
      <point x="111" y="356"/>
      <point x="124" y="381" type="curve" smooth="yes"/>
      <point x="141" y="413"/>
      <point x="145" y="443"/>
      <point x="145" y="479" type="curve" smooth="yes"/>
      <point x="145" y="516"/>
      <point x="141" y="553"/>
      <point x="141" y="589" type="curve" smooth="yes"/>
      <point x="141" y="642"/>
      <point x="150" y="681"/>
      <point x="172" y="719" type="curve" smooth="yes"/>
      <point x="192" y="753"/>
      <point x="225" y="782"/>
      <point x="266" y="796" type="curve"/>
      <point x="286" y="744" type="line"/>
      <point x="263" y="736"/>
      <point x="239" y="718"/>
      <point x="224" y="691" type="curve" smooth="yes"/>
      <point x="206" y="659"/>
      <point x="201" y="629"/>
      <point x="201" y="589" type="curve" smooth="yes"/>
      <point x="201" y="553"/>
      <point x="205" y="516"/>
      <point x="205" y="479" type="curve" smooth="yes"/>
      <point x="205" y="436"/>
      <point x="199" y="402"/>
      <point x="185" y="370" type="curve" smooth="yes"/>
      <point x="172" y="341"/>
      <point x="156" y="319"/>
    </contour>
  </outline>
</glyph>
<glyph name="bar" format="1">
  <advance width="230"/>
  <unicode hex="007C"/>
  <outline>
    <contour>
      <point x="85" y="740" type="line"/>
      <point x="145" y="740" type="line"/>
      <point x="145" y="-145" type="line"/>
      <point x="85" y="-145" type="line"/>
    </contour>
  </outline>
</glyph>
<glyph name="exclamdown" format="1">
  <advance width="260"/>
  <unicode hex="00A1"/>
  <outline>
    <contour>
      <point x="130" y="387" type="curve" smooth="yes"/>
      <point x="100" y="387"/>
      <point x="79" y="408"/>
      <point x="79" y="438" type="curve" smooth="yes"/>
      <point x="79" y="468"/>
      <point x="100" y="489"/>
      <point x="130" y="489" type="curve" smooth="yes"/>
      <point x="160" y="489"/>
      <point x="181" y="468"/>
      <point x="181" y="438" type="curve" smooth="yes"/>
      <point x="181" y="408"/>
      <point x="160" y="387"/>
    </contour>
    <contour>
      <point x="167" y="-183" type="line"/>
      <point x="93" y="-183" type="line"/>
      <point x="93" y="11" type="line" smooth="yes"/>
      <point x="93" y="191"/>
      <point x="103" y="314" type="line"/>
      <point x="157" y="314" type="line"/>
      <point x="167" y="191"/>
      <point x="167" y="11" type="curve" smooth="yes"/>
    </contour>
  </outline>
</glyph>
<glyph name="sterling" format="1">
  <advance width="548"/>
  <unicode hex="00A3"/>
  <outline>
    <contour>
      <point x="120" y="435" type="line" smooth="yes"/>
      <point x="120" y="502"/>
      <point x="120" y="556"/>
      <point x="160" y="605" type="curve" smooth="yes"/>
      <point x="194" y="647"/>
      <point x="250" y="672"/>
      <point x="315" y="672" type="curve" smooth="yes"/>
      <point x="360" y="672"/>
      <point x="407" y="662"/>
      <point x="449" y="630" type="curve"/>
      <point x="409" y="572" type="line"/>
      <point x="384" y="592"/>
      <point x="349" y="602"/>
      <point x="315" y="602" type="curve" smooth="yes"/>
      <point x="275" y="602"/>
      <point x="241" y="588"/>
      <point x="221" y="565" type="curve" smooth="yes"/>
      <point x="194" y="534"/>
      <point x="194" y="497"/>
      <point x="194" y="435" type="curve" smooth="yes"/>
      <point x="194" y="353" type="line"/>
      <point x="418" y="353" type="line"/>
      <point x="418" y="292" type="line"/>
      <point x="194" y="292" type="line"/>
      <point x="194" y="199"/>
      <point x="188" y="139"/>
      <point x="156" y="70" type="curve"/>
      <point x="488" y="70" type="line"/>
      <point x="488" y="0" type="line"/>
      <point x="60" y="0" type="line"/>
      <point x="60" y="50" type="line"/>
      <point x="109" y="121"/>
      <point x="120" y="180"/>
      <point x="120" y="292" type="curve"/>
      <point x="60" y="292" type="line"/>
      <point x="60" y="353" type="line"/>
      <point x="120" y="353" type="line"/>
    </contour>
  </outline>
</glyph>
<glyph name="brokenbar" format="1">
  <advance width="232"/>
  <unicode hex="00A6"/>
  <outline>
    <contour>
      <point x="85" y="264" type="line"/>
      <point x="147" y="264" type="line"/>
      <point x="147" y="0" type="line"/>
      <point x="85" y="0" type="line"/>
    </contour>
    <contour>
      <point x="85" y="666" type="line"/>
      <point x="147" y="666" type="line"/>
      <point x="147" y="404" type="line"/>
      <point x="85" y="404" type="line"/>
    </contour>
  </outline>
</glyph>
<glyph name="section" format="1">
  <advance width="468"/>
  <unicode hex="00A7"/>
  <outline>
    <contour>
      <point x="97" y="94" type="line"/>
      <point x="139" y="73"/>
      <point x="184" y="60"/>
      <point x="229" y="60" type="curve" smooth="yes"/>
      <point x="290" y="60"/>
      <point x="333" y="84"/>
      <point x="333" y="134" type="curve" smooth="yes"/>
      <point x="333" y="190"/>
      <point x="288" y="204"/>
      <point x="222" y="218" type="curve" smooth="yes"/>
      <point x="167" y="229"/>
      <point x="65" y="253"/>
      <point x="65" y="354" type="curve" smooth="yes"/>
      <point x="65" y="398"/>
      <point x="85" y="429"/>
      <point x="113" y="449" type="curve"/>
      <point x="85" y="469"/>
      <point x="65" y="499"/>
      <point x="65" y="544" type="curve" smooth="yes"/>
      <point x="65" y="641"/>
      <point x="160" y="673"/>
      <point x="229" y="673" type="curve" smooth="yes"/>
      <point x="283" y="673"/>
      <point x="335" y="660"/>
      <point x="383" y="639" type="curve"/>
      <point x="353" y="579" type="line"/>
      <point x="313" y="597"/>
      <point x="271" y="607"/>
      <point x="229" y="607" type="curve" smooth="yes"/>
      <point x="173" y="607"/>
      <point x="135" y="586"/>
      <point x="135" y="544" type="curve" smooth="yes"/>
      <point x="135" y="499"/>
      <point x="175" y="485"/>
      <point x="236" y="472" type="curve" smooth="yes"/>
      <point x="297" y="460"/>
      <point x="403" y="435"/>
      <point x="403" y="324" type="curve" smooth="yes"/>
      <point x="403" y="283"/>
      <point x="387" y="252"/>
      <point x="363" y="230" type="curve"/>
      <point x="386" y="208"/>
      <point x="403" y="178"/>
      <point x="403" y="134" type="curve" smooth="yes"/>
      <point x="403" y="32"/>
      <point x="305" y="-6"/>
      <point x="229" y="-6" type="curve" smooth="yes"/>
      <point x="170" y="-6"/>
      <point x="114" y="11"/>
      <point x="63" y="36" type="curve"/>
    </contour>
    <contour>
      <point x="163" y="424" type="curve"/>
      <point x="144" y="408"/>
      <point x="135" y="384"/>
      <point x="135" y="354" type="curve" smooth="yes"/>
      <point x="135" y="309"/>
      <point x="175" y="295"/>
      <point x="236" y="282" type="curve" smooth="yes"/>
      <point x="259" y="278"/>
      <point x="287" y="271"/>
      <point x="314" y="260" type="curve"/>
      <point x="327" y="276"/>
      <point x="333" y="297"/>
      <point x="333" y="324" type="curve" smooth="yes"/>
      <point x="333" y="380"/>
      <point x="288" y="394"/>
      <point x="222" y="408" type="curve" smooth="yes"/>
      <point x="205" y="411"/>
      <point x="184" y="416"/>
    </contour>
  </outline>
</glyph>
<glyph name="dieresis" format="1">
  <advance width="374"/>
  <unicode hex="00A8"/>
  <outline>
    <contour>
      <point x="187" y="477" type="move" name="_Top"/>
    </contour>
    <contour>
      <point x="277" y="644" type="curve" smooth="yes"/>
      <point x="305" y="644"/>
      <point x="324" y="625"/>
      <point x="324" y="597" type="curve" smooth="yes"/>
      <point x="324" y="569"/>
      <point x="305" y="550"/>
      <point x="277" y="550" type="curve" smooth="yes"/>
      <point x="249" y="550"/>
      <point x="230" y="569"/>
      <point x="230" y="597" type="curve" smooth="yes"/>
      <point x="230" y="625"/>
      <point x="249" y="644"/>
    </contour>
    <contour>
      <point x="97" y="644" type="curve" smooth="yes"/>
      <point x="125" y="644"/>
      <point x="144" y="625"/>
      <point x="144" y="597" type="curve" smooth="yes"/>
      <point x="144" y="569"/>
      <point x="125" y="550"/>
      <point x="97" y="550" type="curve" smooth="yes"/>
      <point x="69" y="550"/>
      <point x="50" y="569"/>
      <point x="50" y="597" type="curve" smooth="yes"/>
      <point x="50" y="625"/>
      <point x="69" y="644"/>
    </contour>
  </outline>
</glyph>
<glyph name="ordfeminine" format="1">
  <advance width="463"/>
  <unicode hex="00AA"/>
  <outline>
    <contour>
      <point x="218" y="744" type="curve" smooth="yes"/>
      <point x="280" y="744"/>
      <point x="333" y="722"/>
      <point x="368" y="675" type="curve" smooth="yes"/>
      <point x="403" y="628"/>
      <point x="403" y="571"/>
      <point x="403" y="500" type="curve" smooth="yes"/>
      <point x="403" y="260" type="line"/>
      <point x="333" y="260" type="line"/>
      <point x="333" y="311" type="line"/>
      <point x="303" y="275"/>
      <point x="256" y="254"/>
      <point x="208" y="254" type="curve" smooth="yes"/>
      <point x="173" y="254"/>
      <point x="134" y="262"/>
      <point x="100" y="287" type="curve" smooth="yes"/>
      <point x="66" y="312"/>
      <point x="40" y="354"/>
      <point x="40" y="403" type="curve" smooth="yes"/>
      <point x="40" y="448"/>
      <point x="62" y="488"/>
      <point x="98" y="515" type="curve" smooth="yes"/>
      <point x="146" y="551"/>
      <point x="206" y="551"/>
      <point x="268" y="551" type="curve" smooth="yes"/>
      <point x="333" y="551" type="line"/>
      <point x="333" y="570"/>
      <point x="332" y="608"/>
      <point x="311" y="637" type="curve" smooth="yes"/>
      <point x="291" y="664"/>
      <point x="260" y="678"/>
      <point x="218" y="678" type="curve" smooth="yes"/>
      <point x="176" y="678"/>
      <point x="133" y="665"/>
      <point x="89" y="647" type="curve"/>
      <point x="64" y="708" type="line"/>
      <point x="111" y="728"/>
      <point x="161" y="744"/>
    </contour>
    <contour>
      <point x="268" y="489" type="line" smooth="yes"/>
      <point x="209" y="489"/>
      <point x="171" y="489"/>
      <point x="141" y="466" type="curve" smooth="yes"/>
      <point x="124" y="453"/>
      <point x="110" y="431"/>
      <point x="110" y="403" type="curve" smooth="yes"/>
      <point x="110" y="376"/>
      <point x="124" y="354"/>
      <point x="143" y="340" type="curve" smooth="yes"/>
      <point x="162" y="326"/>
      <point x="187" y="320"/>
      <point x="213" y="320" type="curve" smooth="yes"/>
      <point x="258" y="320"/>
      <point x="293" y="338"/>
      <point x="312" y="365" type="curve" smooth="yes"/>
      <point x="333" y="395"/>
      <point x="333" y="432"/>
      <point x="333" y="489" type="curve"/>
    </contour>
  </outline>
</glyph>
<glyph name="guillemotleft" format="1">
  <advance width="484"/>
  <unicode hex="00AB"/>
  <outline>
    <contour>
      <point x="386" y="449" type="line"/>
      <point x="434" y="413" type="line"/>
      <point x="305" y="250" type="line"/>
      <point x="434" y="87" type="line"/>
      <point x="386" y="51" type="line"/>
      <point x="230" y="250" type="line"/>
    </contour>
    <contour>
      <point x="206" y="449" type="line"/>
      <point x="254" y="413" type="line"/>
      <point x="125" y="250" type="line"/>
      <point x="254" y="87" type="line"/>
      <point x="206" y="51" type="line"/>
      <point x="50" y="250" type="line"/>
    </contour>
  </outline>
</glyph>
<glyph name="registered" format="1">
  <advance width="820"/>
  <unicode hex="00AE"/>
  <outline>
    <contour>
      <point x="462" y="-121" type="line" smooth="yes"/>
      <point x="540" y="-121"/>
      <point x="602" y="-121"/>
      <point x="643" y="-73" type="curve" smooth="yes"/>
      <point x="679" y="-31"/>
      <point x="679" y="23"/>
      <point x="679" y="98" type="curve" smooth="yes"/>
      <point x="679" y="385" type="line" smooth="yes"/>
      <point x="679" y="460"/>
      <point x="679" y="514"/>
      <point x="643" y="556" type="curve" smooth="yes"/>
      <point x="602" y="604"/>
      <point x="540" y="604"/>
      <point x="462" y="604" type="curve" smooth="yes"/>
      <point x="358" y="604" type="line" smooth="yes"/>
      <point x="280" y="604"/>
      <point x="218" y="604"/>
      <point x="177" y="556" type="curve" smooth="yes"/>
      <point x="141" y="514"/>
      <point x="141" y="460"/>
      <point x="141" y="385" type="curve" smooth="yes"/>
      <point x="141" y="98" type="line" smooth="yes"/>
      <point x="141" y="23"/>
      <point x="141" y="-31"/>
      <point x="177" y="-73" type="curve" smooth="yes"/>
      <point x="218" y="-121"/>
      <point x="280" y="-121"/>
      <point x="358" y="-121" type="curve" smooth="yes"/>
    </contour>
    <contour>
      <point x="462" y="666" type="line" smooth="yes"/>
      <point x="544" y="666"/>
      <point x="629" y="666"/>
      <point x="690" y="600" type="curve" smooth="yes"/>
      <point x="745" y="540"/>
      <point x="745" y="468"/>
      <point x="745" y="385" type="curve" smooth="yes"/>
      <point x="745" y="98" type="line" smooth="yes"/>
      <point x="745" y="15"/>
      <point x="745" y="-57"/>
      <point x="690" y="-117" type="curve" smooth="yes"/>
      <point x="629" y="-183"/>
      <point x="544" y="-183"/>
      <point x="462" y="-183" type="curve" smooth="yes"/>
      <point x="358" y="-183" type="line" smooth="yes"/>
      <point x="276" y="-183"/>
      <point x="191" y="-183"/>
      <point x="130" y="-117" type="curve" smooth="yes"/>
      <point x="75" y="-57"/>
      <point x="75" y="15"/>
      <point x="75" y="98" type="curve" smooth="yes"/>
      <point x="75" y="385" type="line" smooth="yes"/>
      <point x="75" y="468"/>
      <point x="75" y="540"/>
      <point x="130" y="600" type="curve" smooth="yes"/>
      <point x="191" y="666"/>
      <point x="276" y="666"/>
      <point x="358" y="666" type="curve" smooth="yes"/>
    </contour>
    <contour>
      <point x="393" y="239" type="line" smooth="yes"/>
      <point x="415" y="239"/>
      <point x="442" y="239"/>
      <point x="464" y="258" type="curve" smooth="yes"/>
      <point x="480" y="272"/>
      <point x="491" y="296"/>
      <point x="491" y="326" type="curve" smooth="yes"/>
      <point x="491" y="355"/>
      <point x="480" y="379"/>
      <point x="464" y="393" type="curve" smooth="yes"/>
      <point x="442" y="412"/>
      <point x="415" y="412"/>
      <point x="393" y="412" type="curve" smooth="yes"/>
      <point x="332" y="412" type="line"/>
      <point x="332" y="239" type="line"/>
    </contour>
    <contour>
      <point x="488" y="193" type="curve" smooth="yes"/>
      <point x="571" y="0" type="line"/>
      <point x="496" y="0" type="line"/>
      <point x="421" y="174" type="line"/>
      <point x="411" y="173"/>
      <point x="402" y="173"/>
      <point x="393" y="173" type="curve" smooth="yes"/>
      <point x="332" y="173" type="line"/>
      <point x="332" y="0" type="line"/>
      <point x="262" y="0" type="line"/>
      <point x="262" y="478" type="line"/>
      <point x="393" y="478" type="line" smooth="yes"/>
      <point x="423" y="478"/>
      <point x="469" y="478"/>
      <point x="512" y="441" type="curve" smooth="yes"/>
      <point x="542" y="415"/>
      <point x="561" y="372"/>
      <point x="561" y="326" type="curve" smooth="yes"/>
      <point x="561" y="263"/>
      <point x="530" y="217"/>
    </contour>
  </outline>
</glyph>
<glyph name="degree" format="1">
  <advance width="324"/>
  <unicode hex="00B0"/>
  <outline>
    <contour>
      <point x="162" y="673" type="curve" smooth="yes"/>
      <point x="229" y="673"/>
      <point x="274" y="628"/>
      <point x="274" y="561" type="curve" smooth="yes"/>
      <point x="274" y="494"/>
      <point x="229" y="449"/>
      <point x="162" y="449" type="curve" smooth="yes"/>
      <point x="95" y="449"/>
      <point x="50" y="494"/>
      <point x="50" y="561" type="curve" smooth="yes"/>
      <point x="50" y="628"/>
      <point x="95" y="673"/>
    </contour>
    <contour>
      <point x="162" y="619" type="curve" smooth="yes"/>
      <point x="128" y="619"/>
      <point x="104" y="596"/>
      <point x="104" y="561" type="curve" smooth="yes"/>
      <point x="104" y="526"/>
      <point x="128" y="503"/>
      <point x="162" y="503" type="curve" smooth="yes"/>
      <point x="197" y="503"/>
      <point x="220" y="526"/>
      <point x="220" y="561" type="curve" smooth="yes"/>
      <point x="220" y="596"/>
      <point x="197" y="619"/>
    </contour>
  </outline>
</glyph>
<glyph name="plusminus" format="1">
  <advance width="520"/>
  <unicode hex="00B1"/>
  <outline>
    <contour>
      <point x="230" y="443" type="line"/>
      <point x="290" y="443" type="line"/>
      <point x="290" y="352" type="line"/>
      <point x="440" y="352" type="line"/>
      <point x="440" y="294" type="line"/>
      <point x="290" y="294" type="line"/>
      <point x="290" y="203" type="line"/>
      <point x="230" y="203" type="line"/>
      <point x="230" y="294" type="line"/>
      <point x="80" y="294" type="line"/>
      <point x="80" y="352" type="line"/>
      <point x="230" y="352" type="line"/>
    </contour>
    <contour>
      <point x="80" y="153" type="line"/>
      <point x="440" y="153" type="line"/>
      <point x="440" y="95" type="line"/>
      <point x="80" y="95" type="line"/>
    </contour>
  </outline>
</glyph>
<glyph name="uni00B3" format="1">
  <advance width="364"/>
  <unicode hex="00B3"/>
  <outline>
    <contour>
      <point x="89" y="655" type="curve"/>
      <point x="48" y="708" type="line"/>
      <point x="82" y="733"/>
      <point x="123" y="744"/>
      <point x="162" y="744" type="curve" smooth="yes"/>
      <point x="196" y="744"/>
      <point x="233" y="736"/>
      <point x="263" y="712" type="curve" smooth="yes"/>
      <point x="290" y="690"/>
      <point x="311" y="655"/>
      <point x="311" y="610" type="curve" smooth="yes"/>
      <point x="311" y="572"/>
      <point x="296" y="536"/>
      <point x="260" y="508" type="curve"/>
      <point x="300" y="480"/>
      <point x="319" y="438"/>
      <point x="319" y="395" type="curve" smooth="yes"/>
      <point x="319" y="348"/>
      <point x="297" y="311"/>
      <point x="269" y="289" type="curve" smooth="yes"/>
      <point x="238" y="263"/>
      <point x="198" y="254"/>
      <point x="162" y="254" type="curve" smooth="yes"/>
      <point x="114" y="254"/>
      <point x="72" y="268"/>
      <point x="40" y="295" type="curve"/>
      <point x="83" y="346" type="line"/>
      <point x="101" y="330"/>
      <point x="129" y="320"/>
      <point x="162" y="320" type="curve" smooth="yes"/>
      <point x="186" y="320"/>
      <point x="209" y="326"/>
      <point x="224" y="338" type="curve" smooth="yes"/>
      <point x="238" y="350"/>
      <point x="249" y="370"/>
      <point x="249" y="395" type="curve" smooth="yes"/>
      <point x="249" y="419"/>
      <point x="239" y="441"/>
      <point x="223" y="455" type="curve" smooth="yes"/>
      <point x="206" y="470"/>
      <point x="188" y="473"/>
      <point x="135" y="473" type="curve" smooth="yes"/>
      <point x="126" y="473" type="line"/>
      <point x="126" y="539" type="line"/>
      <point x="135" y="539" type="line" smooth="yes"/>
      <point x="185" y="539"/>
      <point x="201" y="542"/>
      <point x="217" y="555" type="curve" smooth="yes"/>
      <point x="231" y="567"/>
      <point x="241" y="588"/>
      <point x="241" y="610" type="curve" smooth="yes"/>
      <point x="241" y="633"/>
      <point x="231" y="651"/>
      <point x="217" y="662" type="curve" smooth="yes"/>
      <point x="204" y="672"/>
      <point x="184" y="678"/>
      <point x="162" y="678" type="curve" smooth="yes"/>
      <point x="135" y="678"/>
      <point x="108" y="670"/>
    </contour>
  </outline>
</glyph>
<glyph name="mu" format="1">
  <advance width="485"/>
  <unicode hex="00B5"/>
  <outline>
    <contour>
      <point x="5" y="0" type="move" name="DoubleTop"/>
    </contour>
    <contour>
      <point x="5" y="0" type="move" name="Apos"/>
    </contour>
    <contour>
      <point x="-10" y="0" type="move" name="Center"/>
    </contour>
    <contour>
      <point x="245" y="0" type="move" name="Bottom"/>
    </contour>
    <contour>
      <point x="245" y="476" type="move" name="Top"/>
    </contour>
    <contour>
      <point x="250" y="-6" type="curve" smooth="yes"/>
      <point x="208" y="-6"/>
      <point x="164" y="12"/>
      <point x="135" y="48" type="curve"/>
      <point x="135" y="-183" type="line"/>
      <point x="65" y="-183" type="line"/>
      <point x="65" y="478" type="line"/>
      <point x="135" y="478" type="line"/>
      <point x="135" y="232" type="line" smooth="yes"/>
      <point x="135" y="165"/>
      <point x="135" y="126"/>
      <point x="163" y="94" type="curve" smooth="yes"/>
      <point x="183" y="71"/>
      <point x="213" y="60"/>
      <point x="245" y="60" type="curve" smooth="yes"/>
      <point x="277" y="60"/>
      <point x="307" y="71"/>
      <point x="327" y="94" type="curve" smooth="yes"/>
      <point x="355" y="126"/>
      <point x="355" y="165"/>
      <point x="355" y="232" type="curve" smooth="yes"/>
      <point x="355" y="478" type="line"/>
      <point x="425" y="478" type="line"/>
      <point x="425" y="232" type="line" smooth="yes"/>
      <point x="425" y="158"/>
      <point x="425" y="104"/>
      <point x="383" y="53" type="curve" smooth="yes"/>
      <point x="351" y="14"/>
      <point x="301" y="-6"/>
    </contour>
  </outline>
</glyph>
<glyph name="paragraph" format="1">
  <advance width="525"/>
  <unicode hex="00B6"/>
  <outline>
    <contour>
      <point x="341" y="666" type="curve" smooth="yes"/>
      <point x="450" y="666" type="line"/>
      <point x="450" y="0" type="line"/>
      <point x="376" y="0" type="line"/>
      <point x="376" y="596" type="line"/>
      <point x="307" y="596"/>
      <point x="272" y="594" type="line"/>
      <point x="272" y="0" type="line"/>
      <point x="198" y="0" type="line"/>
      <point x="198" y="250" type="line"/>
      <point x="173" y="258"/>
      <point x="149" y="271"/>
      <point x="127" y="291" type="curve" smooth="yes"/>
      <point x="78" y="335"/>
      <point x="60" y="398"/>
      <point x="60" y="451" type="curve" smooth="yes"/>
      <point x="60" y="504"/>
      <point x="78" y="567"/>
      <point x="127" y="611" type="curve" smooth="yes"/>
      <point x="188" y="666"/>
      <point x="262" y="666"/>
    </contour>
  </outline>
</glyph>
<glyph name="cedilla" format="1">
  <advance width="269"/>
  <unicode hex="00B8"/>
  <outline>
    <contour>
      <point x="129" y="0" type="move" name="_Bottom"/>
    </contour>
    <contour>
      <point x="66" y="-128" type="line" smooth="yes"/>
      <point x="80" y="-134"/>
      <point x="95" y="-137"/>
      <point x="107" y="-137" type="curve" smooth="yes"/>
      <point x="116" y="-137"/>
      <point x="129" y="-137"/>
      <point x="143" y="-130" type="curve" smooth="yes"/>
      <point x="155" y="-123"/>
      <point x="163" y="-113"/>
      <point x="163" y="-100" type="curve" smooth="yes"/>
      <point x="163" y="-90"/>
      <point x="158" y="-80"/>
      <point x="147" y="-74" type="curve" smooth="yes"/>
      <point x="139" y="-70"/>
      <point x="131" y="-70"/>
      <point x="122" y="-70" type="curve" smooth="yes"/>
      <point x="85" y="-70" type="line"/>
      <point x="107" y="0" type="line"/>
      <point x="151" y="0" type="line"/>
      <point x="140" y="-37" type="line"/>
      <point x="161" y="-37"/>
      <point x="177" y="-37"/>
      <point x="196" y="-50" type="curve" smooth="yes"/>
      <point x="211" y="-61"/>
      <point x="219" y="-79"/>
      <point x="219" y="-99" type="curve" smooth="yes"/>
      <point x="219" y="-127"/>
      <point x="204" y="-149"/>
      <point x="188" y="-163" type="curve" smooth="yes"/>
      <point x="170" y="-178"/>
      <point x="141" y="-189"/>
      <point x="107" y="-189" type="curve" smooth="yes"/>
      <point x="89" y="-189"/>
      <point x="69" y="-186"/>
      <point x="50" y="-178" type="curve" smooth="yes"/>
    </contour>
  </outline>
</glyph>
<glyph name="ordmasculine" format="1">
  <advance width="490"/>
  <unicode hex="00BA"/>
  <outline>
    <contour>
      <point x="245" y="678" type="curve" smooth="yes"/>
      <point x="205" y="678"/>
      <point x="170" y="663"/>
      <point x="150" y="635" type="curve" smooth="yes"/>
      <point x="125" y="600"/>
      <point x="125" y="553"/>
      <point x="125" y="499" type="curve" smooth="yes"/>
      <point x="125" y="445"/>
      <point x="125" y="398"/>
      <point x="150" y="363" type="curve" smooth="yes"/>
      <point x="170" y="335"/>
      <point x="205" y="320"/>
      <point x="245" y="320" type="curve" smooth="yes"/>
      <point x="285" y="320"/>
      <point x="320" y="335"/>
      <point x="340" y="363" type="curve" smooth="yes"/>
      <point x="365" y="398"/>
      <point x="365" y="445"/>
      <point x="365" y="499" type="curve" smooth="yes"/>
      <point x="365" y="553"/>
      <point x="365" y="600"/>
      <point x="340" y="635" type="curve" smooth="yes"/>
      <point x="320" y="663"/>
      <point x="285" y="678"/>
    </contour>
    <contour>
      <point x="245" y="744" type="curve" smooth="yes"/>
      <point x="306" y="744"/>
      <point x="365" y="720"/>
      <point x="400" y="669" type="curve" smooth="yes"/>
      <point x="435" y="618"/>
      <point x="435" y="557"/>
      <point x="435" y="499" type="curve" smooth="yes"/>
      <point x="435" y="441"/>
      <point x="435" y="380"/>
      <point x="400" y="329" type="curve" smooth="yes"/>
      <point x="365" y="278"/>
      <point x="306" y="254"/>
      <point x="245" y="254" type="curve" smooth="yes"/>
      <point x="184" y="254"/>
      <point x="125" y="278"/>
      <point x="90" y="329" type="curve" smooth="yes"/>
      <point x="55" y="380"/>
      <point x="55" y="441"/>
      <point x="55" y="499" type="curve" smooth="yes"/>
      <point x="55" y="557"/>
      <point x="55" y="618"/>
      <point x="90" y="669" type="curve" smooth="yes"/>
      <point x="125" y="720"/>
      <point x="184" y="744"/>
    </contour>
  </outline>
</glyph>
<glyph name="guillemotright" format="1">
  <advance width="484"/>
  <unicode hex="00BB"/>
  <outline>
    <contour>
      <point x="98" y="449" type="line"/>
      <point x="254" y="250" type="line"/>
      <point x="98" y="51" type="line"/>
      <point x="50" y="87" type="line"/>
      <point x="179" y="250" type="line"/>
      <point x="50" y="413" type="line"/>
    </contour>
    <contour>
      <point x="278" y="449" type="line"/>
      <point x="434" y="250" type="line"/>
      <point x="278" y="51" type="line"/>
      <point x="230" y="87" type="line"/>
      <point x="359" y="250" type="line"/>
      <point x="230" y="413" type="line"/>
    </contour>
  </outline>
</glyph>
<glyph name="onehalf" format="1">
  <advance width="894"/>
  <unicode hex="00BD"/>
  <outline>
    <contour>
      <point x="174" y="666" type="line"/>
      <point x="231" y="666" type="line"/>
      <point x="231" y="188" type="line"/>
      <point x="161" y="188" type="line"/>
      <point x="161" y="584" type="line"/>
      <point x="100" y="553" type="line"/>
      <point x="70" y="613" type="line"/>
    </contour>
    <contour>
      <point x="619" y="395" type="curve"/>
      <point x="578" y="448" type="line"/>
      <point x="614" y="475"/>
      <point x="659" y="484"/>
      <point x="691" y="484" type="curve" smooth="yes"/>
      <point x="733" y="484"/>
      <point x="764" y="473"/>
      <point x="790" y="453" type="curve" smooth="yes"/>
      <point x="819" y="430"/>
      <point x="839" y="394"/>
      <point x="839" y="349" type="curve" smooth="yes"/>
      <point x="839" y="306"/>
      <point x="827" y="282"/>
      <point x="786" y="228" type="curve" smooth="yes"/>
      <point x="661" y="66" type="line"/>
      <point x="844" y="66" type="line"/>
      <point x="844" y="0" type="line"/>
      <point x="567" y="0" type="line"/>
      <point x="567" y="55" type="line"/>
      <point x="728" y="265" type="line" smooth="yes"/>
      <point x="761" y="308"/>
      <point x="769" y="319"/>
      <point x="769" y="348" type="curve" smooth="yes"/>
      <point x="769" y="372"/>
      <point x="759" y="391"/>
      <point x="746" y="402" type="curve" smooth="yes"/>
      <point x="733" y="413"/>
      <point x="714" y="418"/>
      <point x="691" y="418" type="curve" smooth="yes"/>
      <point x="664" y="418"/>
      <point x="638" y="410"/>
    </contour>
    <contour>
      <point x="560" y="667" type="line"/>
      <point x="624" y="667" type="line"/>
      <point x="264" y="0" type="line"/>
      <point x="200" y="0" type="line"/>
    </contour>
  </outline>
</glyph>
<glyph name="questiondown" format="1">
  <advance width="324"/>
  <unicode hex="00BF"/>
  <outline>
    <contour>
      <point x="0" y="-7" type="curve" smooth="yes"/>
      <point x="0" y="69"/>
      <point x="37" y="110"/>
      <point x="83" y="141" type="curve" smooth="yes"/>
      <point x="129" y="172"/>
      <point x="162" y="193"/>
      <point x="165" y="267" type="curve" smooth="yes"/>
      <point x="167" y="314" type="line"/>
      <point x="221" y="314" type="line"/>
      <point x="223" y="277"/>
      <point x="223" y="259" type="curve" smooth="yes"/>
      <point x="223" y="171"/>
      <point x="187" y="128"/>
      <point x="143" y="101" type="curve" smooth="yes"/>
      <point x="99" y="74"/>
      <point x="74" y="44"/>
      <point x="74" y="-7" type="curve" smooth="yes"/>
      <point x="74" y="-69"/>
      <point x="118" y="-119"/>
      <point x="194" y="-119" type="curve" smooth="yes"/>
      <point x="236" y="-119"/>
      <point x="280" y="-104"/>
      <point x="313" y="-78" type="curve"/>
      <point x="354" y="-135" type="line"/>
      <point x="308" y="-171"/>
      <point x="249" y="-189"/>
      <point x="194" y="-189" type="curve" smooth="yes"/>
      <point x="74" y="-189"/>
      <point x="0" y="-107"/>
    </contour>
    <contour>
      <point x="194" y="387" type="curve" smooth="yes"/>
      <point x="164" y="387"/>
      <point x="143" y="408"/>
      <point x="143" y="438" type="curve" smooth="yes"/>
      <point x="143" y="468"/>
      <point x="164" y="489"/>
      <point x="194" y="489" type="curve" smooth="yes"/>
      <point x="224" y="489"/>
      <point x="245" y="468"/>
      <point x="245" y="438" type="curve" smooth="yes"/>
      <point x="245" y="408"/>
      <point x="224" y="387"/>
    </contour>
  </outline>
</glyph>
<glyph name="AE" format="1">
  <advance width="792"/>
  <unicode hex="00C6"/>
  <outline>
    <contour>
      <point x="114" y="0" type="line"/>
      <point x="35" y="0" type="line"/>
      <point x="389" y="666" type="line"/>
      <point x="717" y="666" type="line"/>
      <point x="717" y="596" type="line"/>
      <point x="493" y="596" type="line"/>
      <point x="493" y="377" type="line"/>
      <point x="694" y="377" type="line"/>
      <point x="694" y="308" type="line"/>
      <point x="493" y="308" type="line"/>
      <point x="493" y="69" type="line"/>
      <point x="727" y="69" type="line"/>
      <point x="727" y="0" type="line"/>
      <point x="422" y="0" type="line"/>
      <point x="422" y="165" type="line"/>
      <point x="201" y="165" type="line"/>
    </contour>
    <contour>
      <point x="422" y="587" type="line"/>
      <point x="237" y="235" type="line"/>
      <point x="422" y="235" type="line"/>
    </contour>
  </outline>
</glyph>
<glyph name="Eth" format="1">
  <advance width="612"/>
  <unicode hex="00D0"/>
  <outline>
    <contour>
      <point x="0" y="0" type="move" name="DoubleTop"/>
    </contour>
    <contour>
      <point x="0" y="0" type="move" name="Apos"/>
    </contour>
    <contour>
      <point x="-5" y="0" type="move" name="Center"/>
    </contour>
    <contour>
      <point x="277" y="1" type="move" name="Bottom"/>
    </contour>
    <contour>
      <point x="280" y="667" type="move" name="Top"/>
    </contour>
    <contour>
      <point x="236" y="666" type="line" smooth="yes"/>
      <point x="324" y="666"/>
      <point x="410" y="666"/>
      <point x="479" y="597" type="curve" smooth="yes"/>
      <point x="547" y="529"/>
      <point x="547" y="445"/>
      <point x="547" y="333" type="curve" smooth="yes"/>
      <point x="547" y="221"/>
      <point x="547" y="137"/>
      <point x="479" y="69" type="curve" smooth="yes"/>
      <point x="410" y="0"/>
      <point x="324" y="0"/>
      <point x="236" y="0" type="curve" smooth="yes"/>
      <point x="127" y="0" type="line"/>
      <point x="127" y="308" type="line"/>
      <point x="55" y="308" type="line"/>
      <point x="55" y="378" type="line"/>
      <point x="127" y="378" type="line"/>
      <point x="127" y="666" type="line"/>
    </contour>
    <contour>
      <point x="236" y="70" type="line" smooth="yes"/>
      <point x="315" y="70"/>
      <point x="378" y="70"/>
      <point x="425" y="117" type="curve" smooth="yes"/>
      <point x="473" y="165"/>
      <point x="473" y="227"/>
      <point x="473" y="333" type="curve" smooth="yes"/>
      <point x="473" y="439"/>
      <point x="473" y="501"/>
      <point x="425" y="549" type="curve" smooth="yes"/>
      <point x="378" y="596"/>
      <point x="315" y="596"/>
      <point x="236" y="596" type="curve" smooth="yes"/>
      <point x="201" y="596" type="line"/>
      <point x="201" y="378" type="line"/>
      <point x="319" y="378" type="line"/>
      <point x="319" y="308" type="line"/>
      <point x="201" y="308" type="line"/>
      <point x="201" y="70" type="line"/>
    </contour>
  </outline>
</glyph>
<glyph name="multiply" format="1">
  <advance width="520"/>
  <unicode hex="00D7"/>
  <outline>
    <contour>
      <point x="146" y="94" type="line"/>
      <point x="104" y="136" type="line"/>
      <point x="219" y="250" type="line"/>
      <point x="104" y="364" type="line"/>
      <point x="146" y="406" type="line"/>
      <point x="260" y="291" type="line"/>
      <point x="374" y="406" type="line"/>
      <point x="416" y="364" type="line"/>
      <point x="301" y="250" type="line"/>
      <point x="416" y="136" type="line"/>
      <point x="374" y="94" type="line"/>
      <point x="260" y="209" type="line"/>
    </contour>
  </outline>
</glyph>
<glyph name="Oslash" format="1">
  <advance width="600"/>
  <unicode hex="00D8"/>
  <outline>
    <contour>
      <point x="0" y="0" type="move" name="DoubleTop"/>
    </contour>
    <contour>
      <point x="0" y="0" type="move" name="Apos"/>
    </contour>
    <contour>
      <point x="0" y="0" type="move" name="Center"/>
    </contour>
    <contour>
      <point x="300" y="0" type="move" name="Bottom"/>
    </contour>
    <contour>
      <point x="300" y="667" type="move" name="Top"/>
    </contour>
    <contour>
      <point x="300" y="602" type="curve" smooth="yes"/>
      <point x="251" y="602"/>
      <point x="206" y="584"/>
      <point x="178" y="551" type="curve" smooth="yes"/>
      <point x="139" y="505"/>
      <point x="139" y="446"/>
      <point x="139" y="364" type="curve" smooth="yes"/>
      <point x="139" y="302" type="line" smooth="yes"/>
      <point x="139" y="237"/>
      <point x="139" y="186"/>
      <point x="157" y="145" type="curve"/>
      <point x="407" y="567" type="line"/>
      <point x="379" y="591"/>
      <point x="341" y="602"/>
    </contour>
    <contour>
      <point x="300" y="672" type="curve" smooth="yes"/>
      <point x="352" y="672"/>
      <point x="402" y="658"/>
      <point x="443" y="629" type="curve"/>
      <point x="477" y="686" type="line"/>
      <point x="540" y="686" type="line"/>
      <point x="483" y="590" type="line"/>
      <point x="535" y="526"/>
      <point x="535" y="451"/>
      <point x="535" y="364" type="curve" smooth="yes"/>
      <point x="535" y="302" type="line" smooth="yes"/>
      <point x="535" y="214"/>
      <point x="535" y="139"/>
      <point x="482" y="74" type="curve" smooth="yes"/>
      <point x="438" y="20"/>
      <point x="370" y="-6"/>
      <point x="300" y="-6" type="curve" smooth="yes"/>
      <point x="248" y="-6"/>
      <point x="198" y="8"/>
      <point x="157" y="37" type="curve"/>
      <point x="123" y="-20" type="line"/>
      <point x="60" y="-20" type="line"/>
      <point x="117" y="76" type="line"/>
      <point x="65" y="140"/>
      <point x="65" y="215"/>
      <point x="65" y="302" type="curve" smooth="yes"/>
      <point x="65" y="364" type="line" smooth="yes"/>
      <point x="65" y="452"/>
      <point x="65" y="527"/>
      <point x="118" y="592" type="curve" smooth="yes"/>
      <point x="162" y="646"/>
      <point x="230" y="672"/>
    </contour>
    <contour>
      <point x="192" y="99" type="line"/>
      <point x="219" y="75"/>
      <point x="259" y="64"/>
      <point x="300" y="64" type="curve" smooth="yes"/>
      <point x="349" y="64"/>
      <point x="394" y="82"/>
      <point x="422" y="115" type="curve" smooth="yes"/>
      <point x="461" y="161"/>
      <point x="461" y="220"/>
      <point x="461" y="302" type="curve" smooth="yes"/>
      <point x="461" y="364" type="line" smooth="yes"/>
      <point x="461" y="432"/>
      <point x="461" y="480"/>
      <point x="442" y="521" type="curve"/>
    </contour>
  </outline>
</glyph>
<glyph name="Thorn" format="1">
  <advance width="520"/>
  <unicode hex="00DE"/>
  <outline>
    <contour>
      <point x="184" y="556" type="line" smooth="yes"/>
      <point x="263" y="556"/>
      <point x="337" y="556"/>
      <point x="398" y="501" type="curve" smooth="yes"/>
      <point x="447" y="457"/>
      <point x="465" y="394"/>
      <point x="465" y="341" type="curve" smooth="yes"/>
      <point x="465" y="288"/>
      <point x="447" y="225"/>
      <point x="398" y="181" type="curve" smooth="yes"/>
      <point x="337" y="126"/>
      <point x="263" y="126"/>
      <point x="184" y="126" type="curve" smooth="yes"/>
      <point x="149" y="126" type="line"/>
      <point x="149" y="0" type="line"/>
      <point x="75" y="0" type="line"/>
      <point x="75" y="666" type="line"/>
      <point x="149" y="666" type="line"/>
      <point x="149" y="556" type="line"/>
    </contour>
    <contour>
      <point x="149" y="486" type="line"/>
      <point x="149" y="196" type="line"/>
      <point x="184" y="196" type="line" smooth="yes"/>
      <point x="258" y="196"/>
      <point x="307" y="196"/>
      <point x="346" y="231" type="curve" smooth="yes"/>
      <point x="373" y="255"/>
      <point x="391" y="293"/>
      <point x="391" y="341" type="curve" smooth="yes"/>
      <point x="391" y="389"/>
      <point x="373" y="427"/>
      <point x="346" y="451" type="curve" smooth="yes"/>
      <point x="307" y="486"/>
      <point x="258" y="486"/>
      <point x="184" y="486" type="curve" smooth="yes"/>
    </contour>
  </outline>
</glyph>
<glyph name="ae" format="1">
  <advance width="688"/>
  <unicode hex="00E6"/>
  <outline>
    <contour>
      <point x="198" y="484" type="curve" smooth="yes"/>
      <point x="257" y="484"/>
      <point x="304" y="462"/>
      <point x="331" y="420" type="curve"/>
      <point x="359" y="460"/>
      <point x="406" y="485"/>
      <point x="463" y="485" type="curve" smooth="yes"/>
      <point x="522" y="485"/>
      <point x="570" y="459"/>
      <point x="596" y="423" type="curve" smooth="yes"/>
      <point x="633" y="376"/>
      <point x="633" y="324"/>
      <point x="633" y="258" type="curve" smooth="yes"/>
      <point x="633" y="224" type="line"/>
      <point x="363" y="224" type="line"/>
      <point x="363" y="218" type="line" smooth="yes"/>
      <point x="363" y="158"/>
      <point x="363" y="125"/>
      <point x="385" y="97" type="curve" smooth="yes"/>
      <point x="406" y="70"/>
      <point x="440" y="60"/>
      <point x="473" y="60" type="curve" smooth="yes"/>
      <point x="507" y="60"/>
      <point x="543" y="70"/>
      <point x="574" y="87" type="curve"/>
      <point x="607" y="29" type="line"/>
      <point x="567" y="8"/>
      <point x="521" y="-6"/>
      <point x="473" y="-6" type="curve" smooth="yes"/>
      <point x="410" y="-6"/>
      <point x="360" y="18"/>
      <point x="330" y="62" type="curve"/>
      <point x="301" y="19"/>
      <point x="253" y="-6"/>
      <point x="193" y="-6" type="curve" smooth="yes"/>
      <point x="149" y="-6"/>
      <point x="113" y="9"/>
      <point x="88" y="31" type="curve" smooth="yes"/>
      <point x="60" y="55"/>
      <point x="40" y="94"/>
      <point x="40" y="144" type="curve" smooth="yes"/>
      <point x="40" y="195"/>
      <point x="62" y="233"/>
      <point x="92" y="255" type="curve" smooth="yes"/>
      <point x="134" y="286"/>
      <point x="183" y="286"/>
      <point x="242" y="286" type="curve" smooth="yes"/>
      <point x="293" y="286" type="line"/>
      <point x="293" y="288" type="line" smooth="yes"/>
      <point x="293" y="334"/>
      <point x="293" y="363"/>
      <point x="274" y="387" type="curve" smooth="yes"/>
      <point x="258" y="407"/>
      <point x="232" y="418"/>
      <point x="198" y="418" type="curve" smooth="yes"/>
      <point x="163" y="418"/>
      <point x="127" y="408"/>
      <point x="91" y="391" type="curve"/>
      <point x="63" y="452" type="line"/>
      <point x="107" y="472"/>
      <point x="151" y="484"/>
    </contour>
    <contour>
      <point x="242" y="224" type="line" smooth="yes"/>
      <point x="189" y="224"/>
      <point x="161" y="224"/>
      <point x="139" y="209" type="curve" smooth="yes"/>
      <point x="120" y="196"/>
      <point x="110" y="173"/>
      <point x="110" y="144" type="curve" smooth="yes"/>
      <point x="110" y="120"/>
      <point x="117" y="99"/>
      <point x="129" y="86" type="curve" smooth="yes"/>
      <point x="143" y="70"/>
      <point x="164" y="60"/>
      <point x="193" y="60" type="curve" smooth="yes"/>
      <point x="223" y="60"/>
      <point x="253" y="72"/>
      <point x="270" y="92" type="curve" smooth="yes"/>
      <point x="293" y="119"/>
      <point x="293" y="150"/>
      <point x="293" y="208" type="curve" smooth="yes"/>
      <point x="293" y="224" type="line"/>
    </contour>
    <contour>
      <point x="463" y="419" type="curve" smooth="yes"/>
      <point x="429" y="419"/>
      <point x="400" y="403"/>
      <point x="384" y="381" type="curve" smooth="yes"/>
      <point x="363" y="352"/>
      <point x="363" y="319"/>
      <point x="363" y="286" type="curve"/>
      <point x="563" y="286" type="line"/>
      <point x="563" y="319"/>
      <point x="563" y="352"/>
      <point x="542" y="381" type="curve" smooth="yes"/>
      <point x="526" y="403"/>
      <point x="497" y="419"/>
    </contour>
  </outline>
</glyph>
<glyph name="ccedilla" format="1">
  <advance width="435"/>
  <unicode hex="00E7"/>
  <outline>
    <contour>
      <point x="182" y="-128" type="line"/>
      <point x="196" y="-134"/>
      <point x="211" y="-137"/>
      <point x="223" y="-137" type="curve" smooth="yes"/>
      <point x="232" y="-137"/>
      <point x="245" y="-137"/>
      <point x="259" y="-130" type="curve" smooth="yes"/>
      <point x="271" y="-123"/>
      <point x="279" y="-113"/>
      <point x="279" y="-100" type="curve" smooth="yes"/>
      <point x="279" y="-90"/>
      <point x="274" y="-80"/>
      <point x="263" y="-74" type="curve" smooth="yes"/>
      <point x="255" y="-70"/>
      <point x="247" y="-70"/>
      <point x="238" y="-70" type="curve" smooth="yes"/>
      <point x="201" y="-70" type="line"/>
      <point x="221" y="-5" type="line"/>
      <point x="169" y="0"/>
      <point x="130" y="22"/>
      <point x="103" y="53" type="curve" smooth="yes"/>
      <point x="55" y="107"/>
      <point x="55" y="183"/>
      <point x="55" y="243" type="curve" smooth="yes"/>
      <point x="55" y="296"/>
      <point x="55" y="369"/>
      <point x="102" y="424" type="curve" smooth="yes"/>
      <point x="133" y="460"/>
      <point x="183" y="484"/>
      <point x="245" y="484" type="curve" smooth="yes"/>
      <point x="296" y="484"/>
      <point x="347" y="469"/>
      <point x="388" y="443" type="curve"/>
      <point x="354" y="385" type="line"/>
      <point x="322" y="406"/>
      <point x="283" y="418"/>
      <point x="245" y="418" type="curve" smooth="yes"/>
      <point x="205" y="418"/>
      <point x="176" y="405"/>
      <point x="156" y="382" type="curve" smooth="yes"/>
      <point x="125" y="346"/>
      <point x="125" y="286"/>
      <point x="125" y="243" type="curve" smooth="yes"/>
      <point x="125" y="191"/>
      <point x="125" y="132"/>
      <point x="157" y="95" type="curve" smooth="yes"/>
      <point x="176" y="73"/>
      <point x="206" y="60"/>
      <point x="245" y="60" type="curve" smooth="yes"/>
      <point x="285" y="60"/>
      <point x="325" y="73"/>
      <point x="358" y="96" type="curve"/>
      <point x="395" y="40" type="line"/>
      <point x="357" y="14"/>
      <point x="311" y="-2"/>
      <point x="265" y="-5" type="curve"/>
      <point x="256" y="-37" type="line"/>
      <point x="277" y="-37"/>
      <point x="293" y="-37"/>
      <point x="312" y="-50" type="curve" smooth="yes"/>
      <point x="327" y="-61"/>
      <point x="335" y="-79"/>
      <point x="335" y="-99" type="curve" smooth="yes"/>
      <point x="335" y="-127"/>
      <point x="320" y="-149"/>
      <point x="304" y="-163" type="curve" smooth="yes"/>
      <point x="286" y="-178"/>
      <point x="257" y="-189"/>
      <point x="223" y="-189" type="curve" smooth="yes"/>
      <point x="205" y="-189"/>
      <point x="185" y="-186"/>
      <point x="166" y="-178" type="curve"/>
    </contour>
  </outline>
</glyph>
<glyph name="eth" format="1">
  <advance width="490"/>
  <unicode hex="00F0"/>
  <outline>
    <contour>
      <point x="0" y="0" type="move" name="DoubleTop"/>
    </contour>
    <contour>
      <point x="0" y="0" type="move" name="Center"/>
    </contour>
    <contour>
      <point x="0" y="0" type="move" name="Top"/>
    </contour>
    <contour>
      <point x="488" y="667" type="move" name="Apos"/>
    </contour>
    <contour>
      <point x="230" y="0" type="move" name="Bottom"/>
    </contour>
    <contour>
      <point x="355" y="239" type="curve" smooth="yes"/>
      <point x="355" y="295"/>
      <point x="355" y="349"/>
      <point x="323" y="385" type="curve" smooth="yes"/>
      <point x="299" y="412"/>
      <point x="263" y="418"/>
      <point x="240" y="418" type="curve" smooth="yes"/>
      <point x="217" y="418"/>
      <point x="181" y="412"/>
      <point x="157" y="385" type="curve" smooth="yes"/>
      <point x="125" y="349"/>
      <point x="125" y="295"/>
      <point x="125" y="239" type="curve" smooth="yes"/>
      <point x="125" y="185"/>
      <point x="125" y="130"/>
      <point x="155" y="95" type="curve" smooth="yes"/>
      <point x="173" y="74"/>
      <point x="202" y="60"/>
      <point x="240" y="60" type="curve" smooth="yes"/>
      <point x="278" y="60"/>
      <point x="307" y="74"/>
      <point x="325" y="95" type="curve" smooth="yes"/>
      <point x="355" y="130"/>
      <point x="355" y="185"/>
    </contour>
    <contour>
      <point x="55" y="239" type="curve" smooth="yes"/>
      <point x="55" y="310"/>
      <point x="55" y="372"/>
      <point x="102" y="427" type="curve" smooth="yes"/>
      <point x="131" y="461"/>
      <point x="178" y="484"/>
      <point x="235" y="484" type="curve" smooth="yes"/>
      <point x="277" y="484"/>
      <point x="314" y="469"/>
      <point x="344" y="439" type="curve"/>
      <point x="332" y="498"/>
      <point x="307" y="549"/>
      <point x="276" y="589" type="curve"/>
      <point x="189" y="541" type="line"/>
      <point x="163" y="587" type="line"/>
      <point x="238" y="628" type="line"/>
      <point x="214" y="648"/>
      <point x="187" y="664"/>
      <point x="159" y="674" type="curve"/>
      <point x="177" y="723" type="line"/>
      <point x="220" y="709"/>
      <point x="259" y="687"/>
      <point x="292" y="658" type="curve"/>
      <point x="381" y="707" type="line"/>
      <point x="407" y="661" type="line"/>
      <point x="331" y="620" type="line"/>
      <point x="395" y="535"/>
      <point x="425" y="420"/>
      <point x="425" y="239" type="curve" smooth="yes"/>
      <point x="425" y="173"/>
      <point x="425" y="107"/>
      <point x="379" y="53" type="curve" smooth="yes"/>
      <point x="349" y="18"/>
      <point x="301" y="-6"/>
      <point x="240" y="-6" type="curve" smooth="yes"/>
      <point x="179" y="-6"/>
      <point x="131" y="18"/>
      <point x="101" y="53" type="curve" smooth="yes"/>
      <point x="55" y="107"/>
      <point x="55" y="173"/>
    </contour>
  </outline>
</glyph>
<glyph name="thorn" format="1">
  <advance width="490"/>
  <unicode hex="00FE"/>
  <outline>
    <contour>
      <point x="250" y="418" type="curve" smooth="yes"/>
      <point x="212" y="418"/>
      <point x="183" y="404"/>
      <point x="165" y="383" type="curve" smooth="yes"/>
      <point x="135" y="348"/>
      <point x="135" y="293"/>
      <point x="135" y="239" type="curve" smooth="yes"/>
      <point x="135" y="185"/>
      <point x="135" y="130"/>
      <point x="165" y="95" type="curve" smooth="yes"/>
      <point x="183" y="74"/>
      <point x="212" y="60"/>
      <point x="250" y="60" type="curve" smooth="yes"/>
      <point x="288" y="60"/>
      <point x="317" y="74"/>
      <point x="335" y="95" type="curve" smooth="yes"/>
      <point x="365" y="130"/>
      <point x="365" y="185"/>
      <point x="365" y="239" type="curve" smooth="yes"/>
      <point x="365" y="293"/>
      <point x="365" y="348"/>
      <point x="335" y="383" type="curve" smooth="yes"/>
      <point x="317" y="404"/>
      <point x="288" y="418"/>
    </contour>
    <contour>
      <point x="255" y="484" type="curve" smooth="yes"/>
      <point x="314" y="484"/>
      <point x="361" y="460"/>
      <point x="390" y="425" type="curve" smooth="yes"/>
      <point x="435" y="371"/>
      <point x="435" y="305"/>
      <point x="435" y="239" type="curve" smooth="yes"/>
      <point x="435" y="173"/>
      <point x="435" y="107"/>
      <point x="390" y="53" type="curve" smooth="yes"/>
      <point x="361" y="18"/>
      <point x="314" y="-6"/>
      <point x="255" y="-6" type="curve" smooth="yes"/>
      <point x="206" y="-6"/>
      <point x="162" y="17"/>
      <point x="135" y="55" type="curve"/>
      <point x="135" y="-183" type="line"/>
      <point x="65" y="-183" type="line"/>
      <point x="65" y="666" type="line"/>
      <point x="135" y="666" type="line"/>
      <point x="135" y="423" type="line"/>
      <point x="162" y="461"/>
      <point x="206" y="484"/>
    </contour>
  </outline>
</glyph>
<glyph name="Aogonek" format="1">
  <advance width="610"/>
  <unicode hex="0104"/>
  <outline>
    <contour>
      <point x="273" y="666" type="line"/>
      <point x="337" y="666" type="line"/>
      <point x="575" y="0" type="line"/>
      <point x="529" y="-12"/>
      <point x="470" y="-39"/>
      <point x="470" y="-96" type="curve" smooth="yes"/>
      <point x="470" y="-117"/>
      <point x="485" y="-133"/>
      <point x="506" y="-133" type="curve" smooth="yes"/>
      <point x="518" y="-133"/>
      <point x="531" y="-128"/>
      <point x="545" y="-119" type="curve"/>
      <point x="575" y="-167" type="line"/>
      <point x="556" y="-178"/>
      <point x="533" y="-189"/>
      <point x="506" y="-189" type="curve" smooth="yes"/>
      <point x="454" y="-189"/>
      <point x="414" y="-148"/>
      <point x="414" y="-96" type="curve" smooth="yes"/>
      <point x="414" y="-48"/>
      <point x="455" y="-18"/>
      <point x="499" y="0" type="curve"/>
      <point x="442" y="165" type="line"/>
      <point x="168" y="165" type="line"/>
      <point x="111" y="0" type="line"/>
      <point x="35" y="0" type="line"/>
    </contour>
    <contour>
      <point x="305" y="570" type="line"/>
      <point x="190" y="235" type="line"/>
      <point x="420" y="235" type="line"/>
    </contour>
  </outline>
</glyph>
<glyph name="aogonek" format="1">
  <advance width="463"/>
  <unicode hex="0105"/>
  <outline>
    <contour>
      <point x="218" y="484" type="curve" smooth="yes"/>
      <point x="280" y="484"/>
      <point x="333" y="462"/>
      <point x="368" y="415" type="curve" smooth="yes"/>
      <point x="403" y="368"/>
      <point x="403" y="311"/>
      <point x="403" y="240" type="curve" smooth="yes"/>
      <point x="403" y="0" type="line"/>
      <point x="357" y="-12"/>
      <point x="303" y="-39"/>
      <point x="303" y="-96" type="curve" smooth="yes"/>
      <point x="303" y="-117"/>
      <point x="318" y="-133"/>
      <point x="339" y="-133" type="curve" smooth="yes"/>
      <point x="351" y="-133"/>
      <point x="364" y="-128"/>
      <point x="378" y="-119" type="curve"/>
      <point x="408" y="-167" type="line"/>
      <point x="389" y="-178"/>
      <point x="366" y="-189"/>
      <point x="339" y="-189" type="curve" smooth="yes"/>
      <point x="287" y="-189"/>
      <point x="247" y="-148"/>
      <point x="247" y="-96" type="curve" smooth="yes"/>
      <point x="247" y="-45"/>
      <point x="289" y="-17"/>
      <point x="333" y="0" type="curve"/>
      <point x="333" y="51" type="line"/>
      <point x="303" y="15"/>
      <point x="256" y="-6"/>
      <point x="208" y="-6" type="curve" smooth="yes"/>
      <point x="173" y="-6"/>
      <point x="134" y="2"/>
      <point x="100" y="27" type="curve" smooth="yes"/>
      <point x="66" y="52"/>
      <point x="40" y="94"/>
      <point x="40" y="143" type="curve" smooth="yes"/>
      <point x="40" y="188"/>
      <point x="62" y="228"/>
      <point x="98" y="255" type="curve" smooth="yes"/>
      <point x="146" y="291"/>
      <point x="206" y="291"/>
      <point x="268" y="291" type="curve" smooth="yes"/>
      <point x="333" y="291" type="line"/>
      <point x="333" y="310"/>
      <point x="332" y="348"/>
      <point x="311" y="377" type="curve" smooth="yes"/>
      <point x="291" y="404"/>
      <point x="260" y="418"/>
      <point x="218" y="418" type="curve" smooth="yes"/>
      <point x="176" y="418"/>
      <point x="133" y="405"/>
      <point x="89" y="387" type="curve"/>
      <point x="64" y="448" type="line"/>
      <point x="111" y="468"/>
      <point x="161" y="484"/>
    </contour>
    <contour>
      <point x="268" y="229" type="line" smooth="yes"/>
      <point x="209" y="229"/>
      <point x="171" y="229"/>
      <point x="141" y="206" type="curve" smooth="yes"/>
      <point x="124" y="193"/>
      <point x="110" y="171"/>
      <point x="110" y="143" type="curve" smooth="yes"/>
      <point x="110" y="116"/>
      <point x="124" y="94"/>
      <point x="143" y="80" type="curve" smooth="yes"/>
      <point x="162" y="66"/>
      <point x="187" y="60"/>
      <point x="213" y="60" type="curve" smooth="yes"/>
      <point x="258" y="60"/>
      <point x="293" y="78"/>
      <point x="312" y="105" type="curve" smooth="yes"/>
      <point x="333" y="135"/>
      <point x="333" y="172"/>
      <point x="333" y="229" type="curve"/>
    </contour>
  </outline>
</glyph>
<glyph name="Eogonek" format="1">
  <advance width="500"/>
  <unicode hex="0118"/>
  <outline>
    <contour>
      <point x="75" y="666" type="line"/>
      <point x="435" y="666" type="line"/>
      <point x="435" y="596" type="line"/>
      <point x="149" y="596" type="line"/>
      <point x="149" y="378" type="line"/>
      <point x="385" y="378" type="line"/>
      <point x="385" y="308" type="line"/>
      <point x="149" y="308" type="line"/>
      <point x="149" y="70" type="line"/>
      <point x="435" y="70" type="line"/>
      <point x="435" y="0" type="line"/>
      <point x="392" y="-12"/>
      <point x="337" y="-39"/>
      <point x="337" y="-96" type="curve" smooth="yes"/>
      <point x="337" y="-117"/>
      <point x="352" y="-133"/>
      <point x="373" y="-133" type="curve" smooth="yes"/>
      <point x="385" y="-133"/>
      <point x="398" y="-128"/>
      <point x="412" y="-119" type="curve"/>
      <point x="442" y="-167" type="line"/>
      <point x="423" y="-178"/>
      <point x="400" y="-189"/>
      <point x="373" y="-189" type="curve" smooth="yes"/>
      <point x="321" y="-189"/>
      <point x="281" y="-148"/>
      <point x="281" y="-96" type="curve" smooth="yes"/>
      <point x="281" y="-49"/>
      <point x="320" y="-19"/>
      <point x="363" y="0" type="curve"/>
      <point x="75" y="0" type="line"/>
    </contour>
  </outline>
</glyph>
<glyph name="eogonek" format="1">
  <advance width="475"/>
  <unicode hex="0119"/>
  <outline>
    <contour>
      <point x="354" y="281" type="line"/>
      <point x="354" y="321"/>
      <point x="346" y="358"/>
      <point x="325" y="383" type="curve" smooth="yes"/>
      <point x="305" y="407"/>
      <point x="272" y="418"/>
      <point x="240" y="418" type="curve" smooth="yes"/>
      <point x="208" y="418"/>
      <point x="175" y="407"/>
      <point x="155" y="383" type="curve" smooth="yes"/>
      <point x="134" y="358"/>
      <point x="126" y="321"/>
      <point x="126" y="281" type="curve"/>
    </contour>
    <contour>
      <point x="398" y="28" type="line"/>
      <point x="351" y="6"/>
      <point x="293" y="-23"/>
      <point x="293" y="-72" type="curve" smooth="yes"/>
      <point x="293" y="-93"/>
      <point x="308" y="-109"/>
      <point x="329" y="-109" type="curve" smooth="yes"/>
      <point x="341" y="-109"/>
      <point x="354" y="-104"/>
      <point x="368" y="-95" type="curve"/>
      <point x="398" y="-143" type="line"/>
      <point x="379" y="-154"/>
      <point x="356" y="-165"/>
      <point x="329" y="-165" type="curve" smooth="yes"/>
      <point x="277" y="-165"/>
      <point x="237" y="-124"/>
      <point x="237" y="-72" type="curve" smooth="yes"/>
      <point x="237" y="-45"/>
      <point x="255" y="-22"/>
      <point x="280" y="-3" type="curve"/>
      <point x="270" y="-5"/>
      <point x="260" y="-6"/>
      <point x="250" y="-6" type="curve" smooth="yes"/>
      <point x="185" y="-6"/>
      <point x="134" y="16"/>
      <point x="101" y="54" type="curve" smooth="yes"/>
      <point x="55" y="107"/>
      <point x="55" y="179"/>
      <point x="55" y="239" type="curve" smooth="yes"/>
      <point x="55" y="303"/>
      <point x="55" y="371"/>
      <point x="101" y="425" type="curve" smooth="yes"/>
      <point x="131" y="460"/>
      <point x="181" y="484"/>
      <point x="240" y="484" type="curve" smooth="yes"/>
      <point x="299" y="484"/>
      <point x="349" y="460"/>
      <point x="379" y="425" type="curve" smooth="yes"/>
      <point x="421" y="375"/>
      <point x="425" y="315"/>
      <point x="425" y="239" type="curve" smooth="yes"/>
      <point x="425" y="219" type="line"/>
      <point x="125" y="219" type="line"/>
      <point x="125" y="190"/>
      <point x="125" y="130"/>
      <point x="155" y="96" type="curve" smooth="yes"/>
      <point x="176" y="72"/>
      <point x="208" y="60"/>
      <point x="250" y="60" type="curve" smooth="yes"/>
      <point x="293" y="60"/>
      <point x="333" y="69"/>
      <point x="369" y="88" type="curve"/>
    </contour>
  </outline>
</glyph>
<glyph name="hbar" format="1">
  <advance width="530"/>
  <unicode hex="0127"/>
  <outline>
    <contour>
      <point x="110" y="666" type="line"/>
      <point x="180" y="666" type="line"/>
      <point x="180" y="608" type="line"/>
      <point x="290" y="608" type="line"/>
      <point x="290" y="546" type="line"/>
      <point x="180" y="546" type="line"/>
      <point x="180" y="429" type="line"/>
      <point x="212" y="472"/>
      <point x="258" y="484"/>
      <point x="295" y="484" type="curve" smooth="yes"/>
      <point x="351" y="484"/>
      <point x="404" y="461"/>
      <point x="436" y="414" type="curve" smooth="yes"/>
      <point x="470" y="364"/>
      <point x="470" y="310"/>
      <point x="470" y="239" type="curve" smooth="yes"/>
      <point x="470" y="0" type="line"/>
      <point x="400" y="0" type="line"/>
      <point x="400" y="239" type="line" smooth="yes"/>
      <point x="400" y="300"/>
      <point x="400" y="344"/>
      <point x="377" y="377" type="curve" smooth="yes"/>
      <point x="356" y="407"/>
      <point x="321" y="418"/>
      <point x="290" y="418" type="curve" smooth="yes"/>
      <point x="259" y="418"/>
      <point x="224" y="407"/>
      <point x="203" y="377" type="curve" smooth="yes"/>
      <point x="180" y="344"/>
      <point x="180" y="300"/>
      <point x="180" y="239" type="curve" smooth="yes"/>
      <point x="180" y="0" type="line"/>
      <point x="110" y="0" type="line"/>
      <point x="110" y="546" type="line"/>
      <point x="30" y="546" type="line"/>
      <point x="30" y="608" type="line"/>
      <point x="110" y="608" type="line"/>
    </contour>
  </outline>
</glyph>
<glyph name="Iogonek" format="1">
  <advance width="224"/>
  <unicode hex="012E"/>
  <outline>
    <contour>
      <point x="75" y="0" type="curve"/>
      <point x="75" y="666" type="line"/>
      <point x="149" y="666" type="line"/>
      <point x="149" y="0" type="line"/>
      <point x="106" y="-12"/>
      <point x="50" y="-39"/>
      <point x="50" y="-96" type="curve" smooth="yes"/>
      <point x="50" y="-117"/>
      <point x="65" y="-133"/>
      <point x="86" y="-133" type="curve" smooth="yes"/>
      <point x="98" y="-133"/>
      <point x="111" y="-128"/>
      <point x="125" y="-119" type="curve"/>
      <point x="155" y="-167" type="line"/>
      <point x="136" y="-178"/>
      <point x="113" y="-189"/>
      <point x="86" y="-189" type="curve" smooth="yes"/>
      <point x="34" y="-189"/>
      <point x="-6" y="-148"/>
      <point x="-6" y="-96" type="curve" smooth="yes"/>
      <point x="-6" y="-48"/>
      <point x="33" y="-18"/>
    </contour>
  </outline>
</glyph>
<glyph name="iogonek" format="1">
  <advance width="200"/>
  <unicode hex="012F"/>
  <outline>
    <contour>
      <point x="135" y="0" type="line"/>
      <point x="91" y="-12"/>
      <point x="35" y="-39"/>
      <point x="35" y="-96" type="curve" smooth="yes"/>
      <point x="35" y="-117"/>
      <point x="50" y="-133"/>
      <point x="71" y="-133" type="curve" smooth="yes"/>
      <point x="83" y="-133"/>
      <point x="96" y="-128"/>
      <point x="110" y="-119" type="curve"/>
      <point x="140" y="-167" type="line"/>
      <point x="121" y="-178"/>
      <point x="98" y="-189"/>
      <point x="71" y="-189" type="curve" smooth="yes"/>
      <point x="19" y="-189"/>
      <point x="-21" y="-148"/>
      <point x="-21" y="-96" type="curve" smooth="yes"/>
      <point x="-21" y="-48"/>
      <point x="21" y="-18"/>
      <point x="65" y="0" type="curve"/>
      <point x="65" y="478" type="line"/>
      <point x="135" y="478" type="line"/>
    </contour>
    <contour>
      <point x="100" y="644" type="curve" smooth="yes"/>
      <point x="127" y="644"/>
      <point x="147" y="625"/>
      <point x="147" y="597" type="curve" smooth="yes"/>
      <point x="147" y="569"/>
      <point x="127" y="550"/>
      <point x="100" y="550" type="curve" smooth="yes"/>
      <point x="73" y="550"/>
      <point x="53" y="569"/>
      <point x="53" y="597" type="curve" smooth="yes"/>
      <point x="53" y="625"/>
      <point x="73" y="644"/>
    </contour>
  </outline>
</glyph>
<glyph name="dotlessi" format="1">
  <advance width="210"/>
  <unicode hex="0131"/>
  <outline>
    <contour>
      <point x="-2" y="0" type="move" name="Center"/>
    </contour>
    <contour>
      <point x="-2" y="0" type="move" name="Apos"/>
    </contour>
    <contour>
      <point x="-2" y="0" type="move" name="DoubleTop"/>
    </contour>
    <contour>
      <point x="105" y="0" type="move" name="Bottom"/>
    </contour>
    <contour>
      <point x="105" y="477" type="move" name="Top"/>
    </contour>
    <contour>
      <point x="70" y="478" type="line"/>
      <point x="140" y="478" type="line"/>
      <point x="140" y="0" type="line"/>
      <point x="70" y="0" type="line"/>
    </contour>
  </outline>
</glyph>
<glyph name="IJ" format="1">
  <advance width="636"/>
  <unicode hex="0132"/>
  <outline>
    <contour>
      <point x="0" y="0" type="move" name="DoubleTop"/>
    </contour>
    <contour>
      <point x="0" y="0" type="move" name="Apos"/>
    </contour>
    <contour>
      <point x="0" y="0" type="move" name="Center"/>
    </contour>
    <contour>
      <point x="201" y="0" type="move" name="Bottom"/>
    </contour>
    <contour>
      <point x="359" y="667" type="move" name="Top"/>
    </contour>
    <contour>
      <point x="492" y="666" type="line"/>
      <point x="566" y="666" type="line"/>
      <point x="566" y="251" type="line" smooth="yes"/>
      <point x="566" y="171"/>
      <point x="566" y="107"/>
      <point x="517" y="53" type="curve" smooth="yes"/>
      <point x="479" y="11"/>
      <point x="423" y="-6"/>
      <point x="371" y="-6" type="curve" smooth="yes"/>
      <point x="318" y="-6"/>
      <point x="268" y="9"/>
      <point x="225" y="42" type="curve"/>
      <point x="270" y="98" type="line"/>
      <point x="296" y="76"/>
      <point x="333" y="64"/>
      <point x="371" y="64" type="curve" smooth="yes"/>
      <point x="410" y="64"/>
      <point x="441" y="77"/>
      <point x="461" y="99" type="curve" smooth="yes"/>
      <point x="492" y="133"/>
      <point x="492" y="179"/>
      <point x="492" y="251" type="curve" smooth="yes"/>
    </contour>
    <contour>
      <point x="85" y="666" type="line"/>
      <point x="159" y="666" type="line"/>
      <point x="159" y="0" type="line"/>
      <point x="85" y="0" type="line"/>
    </contour>
  </outline>
</glyph>
<glyph name="kgreenlandic" format="1">
  <advance width="454"/>
  <unicode hex="0138"/>
  <outline>
    <contour>
      <point x="0" y="0" type="move" name="DoubleTop"/>
    </contour>
    <contour>
      <point x="0" y="0" type="move" name="Apos"/>
    </contour>
    <contour>
      <point x="-8" y="0" type="move" name="Top"/>
    </contour>
    <contour>
      <point x="-8" y="0" type="move" name="Center"/>
    </contour>
    <contour>
      <point x="229" y="0" type="move" name="Bottom"/>
    </contour>
    <contour>
      <point x="65" y="478" type="line"/>
      <point x="135" y="478" type="line"/>
      <point x="135" y="228" type="line"/>
      <point x="322" y="478" type="line"/>
      <point x="404" y="478" type="line"/>
      <point x="237" y="260" type="line"/>
      <point x="419" y="0" type="line"/>
      <point x="338" y="0" type="line"/>
      <point x="191" y="212" type="line"/>
      <point x="135" y="137" type="line"/>
      <point x="135" y="0" type="line"/>
      <point x="65" y="0" type="line"/>
    </contour>
  </outline>
</glyph>
<glyph name="ldot" format="1">
  <advance width="354"/>
  <unicode hex="0140"/>
  <outline>
    <contour>
      <point x="65" y="667" type="line"/>
      <point x="135" y="667" type="line"/>
      <point x="135" y="0" type="line"/>
      <point x="65" y="0" type="line"/>
    </contour>
    <contour>
      <point x="253" y="385" type="curve" smooth="yes"/>
      <point x="283" y="385"/>
      <point x="304" y="364"/>
      <point x="304" y="334" type="curve" smooth="yes"/>
      <point x="304" y="304"/>
      <point x="283" y="283"/>
      <point x="253" y="283" type="curve" smooth="yes"/>
      <point x="223" y="283"/>
      <point x="202" y="304"/>
      <point x="202" y="334" type="curve" smooth="yes"/>
      <point x="202" y="364"/>
      <point x="223" y="385"/>
    </contour>
  </outline>
</glyph>
<glyph name="lslash" format="1">
  <advance width="320"/>
  <unicode hex="0142"/>
  <outline>
    <contour>
      <point x="185" y="0" type="line"/>
      <point x="115" y="0" type="line"/>
      <point x="115" y="236" type="line"/>
      <point x="58" y="196" type="line"/>
      <point x="22" y="246" type="line"/>
      <point x="115" y="312" type="line"/>
      <point x="115" y="666" type="line"/>
      <point x="185" y="666" type="line"/>
      <point x="185" y="362" type="line"/>
      <point x="262" y="416" type="line"/>
      <point x="298" y="366" type="line"/>
      <point x="185" y="286" type="line"/>
    </contour>
  </outline>
</glyph>
<glyph name="Eng" format="1">
  <advance width="590"/>
  <unicode hex="014A"/>
  <outline>
    <contour>
      <point x="75" y="666" type="line"/>
      <point x="140" y="666" type="line"/>
      <point x="441" y="147" type="line"/>
      <point x="441" y="666" type="line"/>
      <point x="515" y="666" type="line"/>
      <point x="515" y="-51" type="line" smooth="yes"/>
      <point x="515" y="-78"/>
      <point x="513" y="-105"/>
      <point x="497" y="-132" type="curve" smooth="yes"/>
      <point x="474" y="-169"/>
      <point x="432" y="-191"/>
      <point x="382" y="-191" type="curve" smooth="yes"/>
      <point x="352" y="-191"/>
      <point x="324" y="-184"/>
      <point x="298" y="-173" type="curve"/>
      <point x="330" y="-109" type="line"/>
      <point x="347" y="-117"/>
      <point x="365" y="-121"/>
      <point x="382" y="-121" type="curve" smooth="yes"/>
      <point x="410" y="-121"/>
      <point x="425" y="-111"/>
      <point x="433" y="-98" type="curve" smooth="yes"/>
      <point x="439" y="-87"/>
      <point x="441" y="-76"/>
      <point x="441" y="-51" type="curve" smooth="yes"/>
      <point x="441" y="16" type="line"/>
      <point x="149" y="519" type="line"/>
      <point x="149" y="0" type="line"/>
      <point x="75" y="0" type="line"/>
    </contour>
  </outline>
</glyph>
<glyph name="eng" format="1">
  <advance width="485"/>
  <unicode hex="014B"/>
  <outline>
    <contour>
      <point x="65" y="478" type="line"/>
      <point x="135" y="478" type="line"/>
      <point x="135" y="429" type="line"/>
      <point x="167" y="472"/>
      <point x="213" y="484"/>
      <point x="250" y="484" type="curve" smooth="yes"/>
      <point x="306" y="484"/>
      <point x="359" y="461"/>
      <point x="391" y="414" type="curve" smooth="yes"/>
      <point x="425" y="364"/>
      <point x="425" y="310"/>
      <point x="425" y="239" type="curve" smooth="yes"/>
      <point x="425" y="-21" type="line" smooth="yes"/>
      <point x="425" y="-83"/>
      <point x="425" y="-116"/>
      <point x="392" y="-151" type="curve" smooth="yes"/>
      <point x="371" y="-173"/>
      <point x="338" y="-189"/>
      <point x="294" y="-189" type="curve" smooth="yes"/>
      <point x="268" y="-189"/>
      <point x="242" y="-183"/>
      <point x="215" y="-172" type="curve"/>
      <point x="241" y="-111" type="line"/>
      <point x="259" y="-119"/>
      <point x="278" y="-123"/>
      <point x="294" y="-123" type="curve" smooth="yes"/>
      <point x="314" y="-123"/>
      <point x="333" y="-117"/>
      <point x="344" y="-102" type="curve" smooth="yes"/>
      <point x="355" y="-87"/>
      <point x="355" y="-69"/>
      <point x="355" y="-21" type="curve" smooth="yes"/>
      <point x="355" y="239" type="line" smooth="yes"/>
      <point x="355" y="300"/>
      <point x="355" y="344"/>
      <point x="332" y="377" type="curve" smooth="yes"/>
      <point x="311" y="407"/>
      <point x="276" y="418"/>
      <point x="245" y="418" type="curve" smooth="yes"/>
      <point x="214" y="418"/>
      <point x="179" y="407"/>
      <point x="158" y="377" type="curve" smooth="yes"/>
      <point x="135" y="344"/>
      <point x="135" y="300"/>
      <point x="135" y="239" type="curve" smooth="yes"/>
      <point x="135" y="0" type="line"/>
      <point x="65" y="0" type="line"/>
    </contour>
  </outline>
</glyph>
<glyph name="OE" format="1">
  <advance width="806"/>
  <unicode hex="0152"/>
  <outline>
    <contour>
      <point x="280" y="602" type="curve" smooth="yes"/>
      <point x="237" y="602"/>
      <point x="197" y="584"/>
      <point x="175" y="555" type="curve" smooth="yes"/>
      <point x="139" y="508"/>
      <point x="139" y="455"/>
      <point x="139" y="357" type="curve" smooth="yes"/>
      <point x="139" y="309" type="line" smooth="yes"/>
      <point x="139" y="211"/>
      <point x="139" y="158"/>
      <point x="175" y="111" type="curve" smooth="yes"/>
      <point x="197" y="82"/>
      <point x="237" y="64"/>
      <point x="280" y="64" type="curve" smooth="yes"/>
      <point x="323" y="64"/>
      <point x="363" y="82"/>
      <point x="385" y="111" type="curve" smooth="yes"/>
      <point x="421" y="158"/>
      <point x="421" y="211"/>
      <point x="421" y="309" type="curve" smooth="yes"/>
      <point x="421" y="357" type="line" smooth="yes"/>
      <point x="421" y="455"/>
      <point x="421" y="508"/>
      <point x="385" y="555" type="curve" smooth="yes"/>
      <point x="363" y="584"/>
      <point x="323" y="602"/>
    </contour>
    <contour>
      <point x="421" y="666" type="line"/>
      <point x="741" y="666" type="line"/>
      <point x="741" y="596" type="line"/>
      <point x="495" y="596" type="line"/>
      <point x="495" y="378" type="line"/>
      <point x="701" y="378" type="line"/>
      <point x="701" y="308" type="line"/>
      <point x="495" y="308" type="line"/>
      <point x="495" y="70" type="line"/>
      <point x="741" y="70" type="line"/>
      <point x="741" y="0" type="line"/>
      <point x="421" y="0" type="line"/>
      <point x="421" y="64" type="line"/>
      <point x="382" y="7"/>
      <point x="327" y="-6"/>
      <point x="280" y="-6" type="curve" smooth="yes"/>
      <point x="228" y="-6"/>
      <point x="167" y="13"/>
      <point x="128" y="55" type="curve" smooth="yes"/>
      <point x="65" y="122"/>
      <point x="65" y="201"/>
      <point x="65" y="309" type="curve" smooth="yes"/>
      <point x="65" y="357" type="line" smooth="yes"/>
      <point x="65" y="465"/>
      <point x="65" y="544"/>
      <point x="128" y="611" type="curve" smooth="yes"/>
      <point x="167" y="653"/>
      <point x="228" y="672"/>
      <point x="280" y="672" type="curve" smooth="yes"/>
      <point x="327" y="672"/>
      <point x="382" y="659"/>
      <point x="421" y="602" type="curve"/>
    </contour>
  </outline>
</glyph>
<glyph name="oe" format="1">
  <advance width="720"/>
  <unicode hex="0153"/>
  <outline>
    <contour>
      <point x="225" y="418" type="curve" smooth="yes"/>
      <point x="191" y="418"/>
      <point x="165" y="401"/>
      <point x="149" y="379" type="curve" smooth="yes"/>
      <point x="126" y="346"/>
      <point x="125" y="295"/>
      <point x="125" y="239" type="curve" smooth="yes"/>
      <point x="125" y="183"/>
      <point x="125" y="132"/>
      <point x="149" y="99" type="curve" smooth="yes"/>
      <point x="165" y="77"/>
      <point x="191" y="60"/>
      <point x="225" y="60" type="curve" smooth="yes"/>
      <point x="259" y="60"/>
      <point x="285" y="77"/>
      <point x="301" y="99" type="curve" smooth="yes"/>
      <point x="324" y="132"/>
      <point x="325" y="183"/>
      <point x="325" y="239" type="curve" smooth="yes"/>
      <point x="325" y="295"/>
      <point x="325" y="346"/>
      <point x="301" y="379" type="curve" smooth="yes"/>
      <point x="285" y="401"/>
      <point x="259" y="418"/>
    </contour>
    <contour>
      <point x="495" y="419" type="curve" smooth="yes"/>
      <point x="461" y="419"/>
      <point x="432" y="403"/>
      <point x="416" y="381" type="curve" smooth="yes"/>
      <point x="395" y="352"/>
      <point x="395" y="320"/>
      <point x="395" y="286" type="curve"/>
      <point x="595" y="286" type="line"/>
      <point x="595" y="320"/>
      <point x="595" y="352"/>
      <point x="574" y="381" type="curve" smooth="yes"/>
      <point x="558" y="403"/>
      <point x="529" y="419"/>
    </contour>
    <contour>
      <point x="495" y="485" type="curve" smooth="yes"/>
      <point x="554" y="485"/>
      <point x="600" y="458"/>
      <point x="628" y="423" type="curve" smooth="yes"/>
      <point x="665" y="376"/>
      <point x="665" y="325"/>
      <point x="665" y="268" type="curve" smooth="yes"/>
      <point x="665" y="224" type="line"/>
      <point x="395" y="224" type="line"/>
      <point x="395" y="218" type="line" smooth="yes"/>
      <point x="395" y="158"/>
      <point x="395" y="125"/>
      <point x="417" y="97" type="curve" smooth="yes"/>
      <point x="438" y="70"/>
      <point x="472" y="60"/>
      <point x="505" y="60" type="curve" smooth="yes"/>
      <point x="539" y="60"/>
      <point x="575" y="70"/>
      <point x="606" y="87" type="curve"/>
      <point x="639" y="29" type="line"/>
      <point x="599" y="8"/>
      <point x="553" y="-6"/>
      <point x="505" y="-6" type="curve" smooth="yes"/>
      <point x="444" y="-6"/>
      <point x="389" y="19"/>
      <point x="358" y="67" type="curve"/>
      <point x="332" y="24"/>
      <point x="284" y="-6"/>
      <point x="225" y="-6" type="curve" smooth="yes"/>
      <point x="165" y="-6"/>
      <point x="118" y="25"/>
      <point x="91" y="63" type="curve" smooth="yes"/>
      <point x="57" y="111"/>
      <point x="55" y="167"/>
      <point x="55" y="239" type="curve" smooth="yes"/>
      <point x="55" y="311"/>
      <point x="58" y="366"/>
      <point x="91" y="415" type="curve" smooth="yes"/>
      <point x="117" y="453"/>
      <point x="165" y="484"/>
      <point x="225" y="484" type="curve" smooth="yes"/>
      <point x="286" y="484"/>
      <point x="333" y="454"/>
      <point x="360" y="409" type="curve"/>
      <point x="391" y="455"/>
      <point x="438" y="485"/>
    </contour>
  </outline>
</glyph>
<glyph name="Scedilla" format="1">
  <advance width="510"/>
  <unicode hex="015E"/>
  <outline>
    <contour>
      <point x="184" y="-128" type="line"/>
      <point x="198" y="-134"/>
      <point x="213" y="-137"/>
      <point x="225" y="-137" type="curve" smooth="yes"/>
      <point x="234" y="-137"/>
      <point x="247" y="-137"/>
      <point x="261" y="-130" type="curve" smooth="yes"/>
      <point x="273" y="-123"/>
      <point x="281" y="-113"/>
      <point x="281" y="-100" type="curve" smooth="yes"/>
      <point x="281" y="-90"/>
      <point x="276" y="-80"/>
      <point x="265" y="-74" type="curve" smooth="yes"/>
      <point x="257" y="-70"/>
      <point x="249" y="-70"/>
      <point x="240" y="-70" type="curve" smooth="yes"/>
      <point x="203" y="-70" type="line"/>
      <point x="223" y="-5" type="line"/>
      <point x="157" y="-1"/>
      <point x="93" y="23"/>
      <point x="43" y="66" type="curve"/>
      <point x="90" y="120" type="line"/>
      <point x="133" y="82"/>
      <point x="191" y="64"/>
      <point x="247" y="64" type="curve" smooth="yes"/>
      <point x="347" y="64"/>
      <point x="386" y="126"/>
      <point x="386" y="180" type="curve" smooth="yes"/>
      <point x="386" y="211"/>
      <point x="370" y="246"/>
      <point x="342" y="269" type="curve" smooth="yes"/>
      <point x="315" y="292"/>
      <point x="274" y="304"/>
      <point x="228" y="318" type="curve" smooth="yes"/>
      <point x="191" y="329"/>
      <point x="152" y="340"/>
      <point x="111" y="374" type="curve" smooth="yes"/>
      <point x="77" y="402"/>
      <point x="49" y="450"/>
      <point x="49" y="501" type="curve" smooth="yes"/>
      <point x="49" y="596"/>
      <point x="123" y="672"/>
      <point x="247" y="672" type="curve" smooth="yes"/>
      <point x="318" y="672"/>
      <point x="385" y="649"/>
      <point x="433" y="612" type="curve"/>
      <point x="389" y="556" type="line"/>
      <point x="355" y="583"/>
      <point x="303" y="602"/>
      <point x="247" y="602" type="curve" smooth="yes"/>
      <point x="158" y="602"/>
      <point x="123" y="551"/>
      <point x="123" y="503" type="curve" smooth="yes"/>
      <point x="123" y="473"/>
      <point x="138" y="444"/>
      <point x="163" y="424" type="curve" smooth="yes"/>
      <point x="187" y="404"/>
      <point x="226" y="392"/>
      <point x="259" y="382" type="curve" smooth="yes"/>
      <point x="303" y="369"/>
      <point x="352" y="355"/>
      <point x="394" y="319" type="curve" smooth="yes"/>
      <point x="429" y="289"/>
      <point x="460" y="238"/>
      <point x="460" y="180" type="curve" smooth="yes"/>
      <point x="460" y="93"/>
      <point x="398" y="3"/>
      <point x="267" y="-5" type="curve"/>
      <point x="258" y="-37" type="line"/>
      <point x="279" y="-37"/>
      <point x="295" y="-37"/>
      <point x="314" y="-50" type="curve" smooth="yes"/>
      <point x="329" y="-61"/>
      <point x="337" y="-79"/>
      <point x="337" y="-99" type="curve" smooth="yes"/>
      <point x="337" y="-127"/>
      <point x="322" y="-149"/>
      <point x="306" y="-163" type="curve" smooth="yes"/>
      <point x="288" y="-178"/>
      <point x="259" y="-189"/>
      <point x="225" y="-189" type="curve" smooth="yes"/>
      <point x="207" y="-189"/>
      <point x="187" y="-186"/>
      <point x="168" y="-178" type="curve"/>
    </contour>
  </outline>
</glyph>
<glyph name="scedilla" format="1">
  <advance width="416"/>
  <unicode hex="015F"/>
  <outline>
    <contour>
      <point x="146" y="-128" type="line"/>
      <point x="160" y="-134"/>
      <point x="175" y="-137"/>
      <point x="187" y="-137" type="curve" smooth="yes"/>
      <point x="196" y="-137"/>
      <point x="209" y="-137"/>
      <point x="223" y="-130" type="curve" smooth="yes"/>
      <point x="235" y="-123"/>
      <point x="243" y="-113"/>
      <point x="243" y="-100" type="curve" smooth="yes"/>
      <point x="243" y="-90"/>
      <point x="238" y="-80"/>
      <point x="227" y="-74" type="curve" smooth="yes"/>
      <point x="219" y="-70"/>
      <point x="211" y="-70"/>
      <point x="202" y="-70" type="curve" smooth="yes"/>
      <point x="165" y="-70" type="line"/>
      <point x="185" y="-5" type="line"/>
      <point x="138" y="-3"/>
      <point x="88" y="9"/>
      <point x="44" y="31" type="curve"/>
      <point x="73" y="91" type="line"/>
      <point x="113" y="70"/>
      <point x="161" y="60"/>
      <point x="209" y="60" type="curve" smooth="yes"/>
      <point x="299" y="60"/>
      <point x="313" y="109"/>
      <point x="313" y="132" type="curve" smooth="yes"/>
      <point x="313" y="149"/>
      <point x="306" y="169"/>
      <point x="287" y="184" type="curve" smooth="yes"/>
      <point x="270" y="197"/>
      <point x="253" y="204"/>
      <point x="206" y="212" type="curve" smooth="yes"/>
      <point x="176" y="217"/>
      <point x="144" y="223"/>
      <point x="114" y="240" type="curve" smooth="yes"/>
      <point x="71" y="265"/>
      <point x="45" y="305"/>
      <point x="45" y="352" type="curve" smooth="yes"/>
      <point x="45" y="410"/>
      <point x="91" y="484"/>
      <point x="209" y="484" type="curve" smooth="yes"/>
      <point x="258" y="484"/>
      <point x="311" y="473"/>
      <point x="360" y="451" type="curve"/>
      <point x="333" y="390" type="line"/>
      <point x="294" y="408"/>
      <point x="251" y="418"/>
      <point x="209" y="418" type="curve" smooth="yes"/>
      <point x="136" y="418"/>
      <point x="115" y="380"/>
      <point x="115" y="352" type="curve" smooth="yes"/>
      <point x="115" y="333"/>
      <point x="125" y="312"/>
      <point x="146" y="299" type="curve" smooth="yes"/>
      <point x="165" y="287"/>
      <point x="188" y="282"/>
      <point x="218" y="277" type="curve" smooth="yes"/>
      <point x="264" y="269"/>
      <point x="293" y="262"/>
      <point x="325" y="240" type="curve" smooth="yes"/>
      <point x="363" y="214"/>
      <point x="383" y="172"/>
      <point x="383" y="132" type="curve" smooth="yes"/>
      <point x="383" y="71"/>
      <point x="338" y="2"/>
      <point x="229" y="-5" type="curve"/>
      <point x="220" y="-37" type="line"/>
      <point x="241" y="-37"/>
      <point x="257" y="-37"/>
      <point x="276" y="-50" type="curve" smooth="yes"/>
      <point x="291" y="-61"/>
      <point x="299" y="-79"/>
      <point x="299" y="-99" type="curve" smooth="yes"/>
      <point x="299" y="-127"/>
      <point x="284" y="-149"/>
      <point x="268" y="-163" type="curve" smooth="yes"/>
      <point x="250" y="-178"/>
      <point x="221" y="-189"/>
      <point x="187" y="-189" type="curve" smooth="yes"/>
      <point x="169" y="-189"/>
      <point x="149" y="-186"/>
      <point x="130" y="-178" type="curve"/>
    </contour>
  </outline>
</glyph>
<glyph name="uni0162" format="1">
  <advance width="560"/>
  <unicode hex="0162"/>
  <outline>
    <contour>
      <point x="217" y="-128" type="line"/>
      <point x="231" y="-134"/>
      <point x="246" y="-137"/>
      <point x="258" y="-137" type="curve" smooth="yes"/>
      <point x="267" y="-137"/>
      <point x="280" y="-137"/>
      <point x="294" y="-130" type="curve" smooth="yes"/>
      <point x="306" y="-123"/>
      <point x="314" y="-113"/>
      <point x="314" y="-100" type="curve" smooth="yes"/>
      <point x="314" y="-90"/>
      <point x="309" y="-80"/>
      <point x="298" y="-74" type="curve" smooth="yes"/>
      <point x="290" y="-70"/>
      <point x="282" y="-70"/>
      <point x="273" y="-70" type="curve" smooth="yes"/>
      <point x="236" y="-70" type="line"/>
      <point x="258" y="0" type="line"/>
      <point x="243" y="0" type="line"/>
      <point x="243" y="596" type="line"/>
      <point x="55" y="596" type="line"/>
      <point x="55" y="666" type="line"/>
      <point x="505" y="666" type="line"/>
      <point x="505" y="596" type="line"/>
      <point x="317" y="596" type="line"/>
      <point x="317" y="0" type="line"/>
      <point x="302" y="0" type="line"/>
      <point x="291" y="-37" type="line"/>
      <point x="312" y="-37"/>
      <point x="328" y="-37"/>
      <point x="347" y="-50" type="curve" smooth="yes"/>
      <point x="362" y="-61"/>
      <point x="370" y="-79"/>
      <point x="370" y="-99" type="curve" smooth="yes"/>
      <point x="370" y="-127"/>
      <point x="355" y="-149"/>
      <point x="339" y="-163" type="curve" smooth="yes"/>
      <point x="321" y="-178"/>
      <point x="292" y="-189"/>
      <point x="258" y="-189" type="curve" smooth="yes"/>
      <point x="240" y="-189"/>
      <point x="220" y="-186"/>
      <point x="201" y="-178" type="curve"/>
    </contour>
  </outline>
</glyph>
<glyph name="uni0163" format="1">
  <advance width="353"/>
  <unicode hex="0163"/>
  <outline>
    <contour>
      <point x="168" y="-128" type="line"/>
      <point x="182" y="-134"/>
      <point x="197" y="-137"/>
      <point x="209" y="-137" type="curve" smooth="yes"/>
      <point x="218" y="-137"/>
      <point x="231" y="-137"/>
      <point x="245" y="-130" type="curve" smooth="yes"/>
      <point x="257" y="-123"/>
      <point x="265" y="-113"/>
      <point x="265" y="-100" type="curve" smooth="yes"/>
      <point x="265" y="-90"/>
      <point x="260" y="-80"/>
      <point x="249" y="-74" type="curve" smooth="yes"/>
      <point x="241" y="-70"/>
      <point x="233" y="-70"/>
      <point x="224" y="-70" type="curve" smooth="yes"/>
      <point x="187" y="-70" type="line"/>
      <point x="208" y="-2" type="line"/>
      <point x="183" y="4"/>
      <point x="163" y="17"/>
      <point x="148" y="32" type="curve" smooth="yes"/>
      <point x="115" y="67"/>
      <point x="115" y="100"/>
      <point x="115" y="162" type="curve" smooth="yes"/>
      <point x="115" y="416" type="line"/>
      <point x="35" y="416" type="line"/>
      <point x="35" y="478" type="line"/>
      <point x="115" y="478" type="line"/>
      <point x="115" y="591" type="line"/>
      <point x="185" y="591" type="line"/>
      <point x="185" y="478" type="line"/>
      <point x="295" y="478" type="line"/>
      <point x="295" y="416" type="line"/>
      <point x="185" y="416" type="line"/>
      <point x="185" y="162" type="line" smooth="yes"/>
      <point x="185" y="114"/>
      <point x="185" y="96"/>
      <point x="196" y="81" type="curve" smooth="yes"/>
      <point x="207" y="66"/>
      <point x="226" y="60"/>
      <point x="246" y="60" type="curve" smooth="yes"/>
      <point x="262" y="60"/>
      <point x="281" y="64"/>
      <point x="299" y="72" type="curve"/>
      <point x="325" y="11" type="line"/>
      <point x="300" y="1"/>
      <point x="275" y="-5"/>
      <point x="251" y="-6" type="curve"/>
      <point x="242" y="-37" type="line"/>
      <point x="263" y="-37"/>
      <point x="279" y="-37"/>
      <point x="298" y="-50" type="curve" smooth="yes"/>
      <point x="313" y="-61"/>
      <point x="321" y="-79"/>
      <point x="321" y="-99" type="curve" smooth="yes"/>
      <point x="321" y="-127"/>
      <point x="306" y="-149"/>
      <point x="290" y="-163" type="curve" smooth="yes"/>
      <point x="272" y="-178"/>
      <point x="243" y="-189"/>
      <point x="209" y="-189" type="curve" smooth="yes"/>
      <point x="191" y="-189"/>
      <point x="171" y="-186"/>
      <point x="152" y="-178" type="curve"/>
    </contour>
  </outline>
</glyph>
<glyph name="Tbar" format="1">
  <advance width="560"/>
  <unicode hex="0166"/>
  <outline>
    <contour>
      <point x="55" y="666" type="line"/>
      <point x="505" y="666" type="line"/>
      <point x="505" y="596" type="line"/>
      <point x="317" y="596" type="line"/>
      <point x="317" y="334" type="line"/>
      <point x="412" y="334" type="line"/>
      <point x="412" y="272" type="line"/>
      <point x="317" y="272" type="line"/>
      <point x="317" y="0" type="line"/>
      <point x="243" y="0" type="line"/>
      <point x="243" y="272" type="line"/>
      <point x="148" y="272" type="line"/>
      <point x="148" y="334" type="line"/>
      <point x="243" y="334" type="line"/>
      <point x="243" y="596" type="line"/>
      <point x="55" y="596" type="line"/>
    </contour>
  </outline>
</glyph>
